G04 #@! TF.GenerationSoftware,KiCad,Pcbnew,(5.1.2)-1*
G04 #@! TF.CreationDate,2019-05-13T07:20:01+02:00*
G04 #@! TF.ProjectId,lcd board,6c636420-626f-4617-9264-2e6b69636164,rev?*
G04 #@! TF.SameCoordinates,Original*
G04 #@! TF.FileFunction,Soldermask,Bot*
G04 #@! TF.FilePolarity,Negative*
%FSLAX46Y46*%
G04 Gerber Fmt 4.6, Leading zero omitted, Abs format (unit mm)*
G04 Created by KiCad (PCBNEW (5.1.2)-1) date 2019-05-13 07:20:01*
%MOMM*%
%LPD*%
G04 APERTURE LIST*
%ADD10C,0.100000*%
G04 APERTURE END LIST*
D10*
G36*
X181424072Y-55850918D02*
G01*
X181669939Y-55952759D01*
X181891212Y-56100610D01*
X182079390Y-56288788D01*
X182227241Y-56510061D01*
X182329082Y-56755928D01*
X182381000Y-57016938D01*
X182381000Y-57283062D01*
X182329082Y-57544072D01*
X182227241Y-57789939D01*
X182079390Y-58011212D01*
X181891212Y-58199390D01*
X181669939Y-58347241D01*
X181669938Y-58347242D01*
X181669937Y-58347242D01*
X181424072Y-58449082D01*
X181163063Y-58501000D01*
X180896937Y-58501000D01*
X180635928Y-58449082D01*
X180390063Y-58347242D01*
X180390062Y-58347242D01*
X180390061Y-58347241D01*
X180168788Y-58199390D01*
X179980610Y-58011212D01*
X179832759Y-57789939D01*
X179730918Y-57544072D01*
X179679000Y-57283062D01*
X179679000Y-57016938D01*
X179730918Y-56755928D01*
X179832759Y-56510061D01*
X179980610Y-56288788D01*
X180168788Y-56100610D01*
X180390061Y-55952759D01*
X180635928Y-55850918D01*
X180896937Y-55799000D01*
X181163063Y-55799000D01*
X181424072Y-55850918D01*
X181424072Y-55850918D01*
G37*
G36*
X176924072Y-55850918D02*
G01*
X177169939Y-55952759D01*
X177391212Y-56100610D01*
X177579390Y-56288788D01*
X177727241Y-56510061D01*
X177829082Y-56755928D01*
X177881000Y-57016938D01*
X177881000Y-57283062D01*
X177829082Y-57544072D01*
X177727241Y-57789939D01*
X177579390Y-58011212D01*
X177391212Y-58199390D01*
X177169939Y-58347241D01*
X177169938Y-58347242D01*
X177169937Y-58347242D01*
X176924072Y-58449082D01*
X176663063Y-58501000D01*
X176396937Y-58501000D01*
X176135928Y-58449082D01*
X175890063Y-58347242D01*
X175890062Y-58347242D01*
X175890061Y-58347241D01*
X175668788Y-58199390D01*
X175480610Y-58011212D01*
X175332759Y-57789939D01*
X175230918Y-57544072D01*
X175179000Y-57283062D01*
X175179000Y-57016938D01*
X175230918Y-56755928D01*
X175332759Y-56510061D01*
X175480610Y-56288788D01*
X175668788Y-56100610D01*
X175890061Y-55952759D01*
X176135928Y-55850918D01*
X176396937Y-55799000D01*
X176663063Y-55799000D01*
X176924072Y-55850918D01*
X176924072Y-55850918D01*
G37*
G36*
X95378254Y-53177818D02*
G01*
X95751511Y-53332426D01*
X95751513Y-53332427D01*
X96087436Y-53556884D01*
X96373116Y-53842564D01*
X96597574Y-54178489D01*
X96752182Y-54551746D01*
X96831000Y-54947993D01*
X96831000Y-55352007D01*
X96752182Y-55748254D01*
X96667473Y-55952759D01*
X96597573Y-56121513D01*
X96373116Y-56457436D01*
X96087436Y-56743116D01*
X95751513Y-56967573D01*
X95751512Y-56967574D01*
X95751511Y-56967574D01*
X95378254Y-57122182D01*
X94982007Y-57201000D01*
X94577993Y-57201000D01*
X94181746Y-57122182D01*
X93808489Y-56967574D01*
X93808488Y-56967574D01*
X93808487Y-56967573D01*
X93472564Y-56743116D01*
X93186884Y-56457436D01*
X92962427Y-56121513D01*
X92892527Y-55952759D01*
X92807818Y-55748254D01*
X92729000Y-55352007D01*
X92729000Y-54947993D01*
X92807818Y-54551746D01*
X92962426Y-54178489D01*
X93186884Y-53842564D01*
X93472564Y-53556884D01*
X93808487Y-53332427D01*
X93808489Y-53332426D01*
X94181746Y-53177818D01*
X94577993Y-53099000D01*
X94982007Y-53099000D01*
X95378254Y-53177818D01*
X95378254Y-53177818D01*
G37*
G36*
X156578254Y-53177818D02*
G01*
X156951511Y-53332426D01*
X156951513Y-53332427D01*
X157287436Y-53556884D01*
X157573116Y-53842564D01*
X157797574Y-54178489D01*
X157952182Y-54551746D01*
X158031000Y-54947993D01*
X158031000Y-55352007D01*
X157952182Y-55748254D01*
X157867473Y-55952759D01*
X157797573Y-56121513D01*
X157573116Y-56457436D01*
X157287436Y-56743116D01*
X156951513Y-56967573D01*
X156951512Y-56967574D01*
X156951511Y-56967574D01*
X156578254Y-57122182D01*
X156182007Y-57201000D01*
X155777993Y-57201000D01*
X155381746Y-57122182D01*
X155008489Y-56967574D01*
X155008488Y-56967574D01*
X155008487Y-56967573D01*
X154672564Y-56743116D01*
X154386884Y-56457436D01*
X154162427Y-56121513D01*
X154092527Y-55952759D01*
X154007818Y-55748254D01*
X153929000Y-55352007D01*
X153929000Y-54947993D01*
X154007818Y-54551746D01*
X154162426Y-54178489D01*
X154386884Y-53842564D01*
X154672564Y-53556884D01*
X155008487Y-53332427D01*
X155008489Y-53332426D01*
X155381746Y-53177818D01*
X155777993Y-53099000D01*
X156182007Y-53099000D01*
X156578254Y-53177818D01*
X156578254Y-53177818D01*
G37*
G36*
X181424072Y-49350918D02*
G01*
X181669939Y-49452759D01*
X181891212Y-49600610D01*
X182079390Y-49788788D01*
X182227241Y-50010061D01*
X182329082Y-50255928D01*
X182381000Y-50516938D01*
X182381000Y-50783062D01*
X182329082Y-51044072D01*
X182227241Y-51289939D01*
X182079390Y-51511212D01*
X181891212Y-51699390D01*
X181669939Y-51847241D01*
X181669938Y-51847242D01*
X181669937Y-51847242D01*
X181424072Y-51949082D01*
X181163063Y-52001000D01*
X180896937Y-52001000D01*
X180635928Y-51949082D01*
X180390063Y-51847242D01*
X180390062Y-51847242D01*
X180390061Y-51847241D01*
X180168788Y-51699390D01*
X179980610Y-51511212D01*
X179832759Y-51289939D01*
X179730918Y-51044072D01*
X179679000Y-50783062D01*
X179679000Y-50516938D01*
X179730918Y-50255928D01*
X179832759Y-50010061D01*
X179980610Y-49788788D01*
X180168788Y-49600610D01*
X180390061Y-49452759D01*
X180635928Y-49350918D01*
X180896937Y-49299000D01*
X181163063Y-49299000D01*
X181424072Y-49350918D01*
X181424072Y-49350918D01*
G37*
G36*
X176924072Y-49350918D02*
G01*
X177169939Y-49452759D01*
X177391212Y-49600610D01*
X177579390Y-49788788D01*
X177727241Y-50010061D01*
X177829082Y-50255928D01*
X177881000Y-50516938D01*
X177881000Y-50783062D01*
X177829082Y-51044072D01*
X177727241Y-51289939D01*
X177579390Y-51511212D01*
X177391212Y-51699390D01*
X177169939Y-51847241D01*
X177169938Y-51847242D01*
X177169937Y-51847242D01*
X176924072Y-51949082D01*
X176663063Y-52001000D01*
X176396937Y-52001000D01*
X176135928Y-51949082D01*
X175890063Y-51847242D01*
X175890062Y-51847242D01*
X175890061Y-51847241D01*
X175668788Y-51699390D01*
X175480610Y-51511212D01*
X175332759Y-51289939D01*
X175230918Y-51044072D01*
X175179000Y-50783062D01*
X175179000Y-50516938D01*
X175230918Y-50255928D01*
X175332759Y-50010061D01*
X175480610Y-49788788D01*
X175668788Y-49600610D01*
X175890061Y-49452759D01*
X176135928Y-49350918D01*
X176396937Y-49299000D01*
X176663063Y-49299000D01*
X176924072Y-49350918D01*
X176924072Y-49350918D01*
G37*
G36*
X158831000Y-49311000D02*
G01*
X156129000Y-49311000D01*
X156129000Y-47209000D01*
X158831000Y-47209000D01*
X158831000Y-49311000D01*
X158831000Y-49311000D01*
G37*
G36*
X158831000Y-46771000D02*
G01*
X156129000Y-46771000D01*
X156129000Y-44669000D01*
X158831000Y-44669000D01*
X158831000Y-46771000D01*
X158831000Y-46771000D01*
G37*
G36*
X158831000Y-44231000D02*
G01*
X156129000Y-44231000D01*
X156129000Y-42129000D01*
X158831000Y-42129000D01*
X158831000Y-44231000D01*
X158831000Y-44231000D01*
G37*
G36*
X95311000Y-44231000D02*
G01*
X92609000Y-44231000D01*
X92609000Y-42129000D01*
X95311000Y-42129000D01*
X95311000Y-44231000D01*
X95311000Y-44231000D01*
G37*
G36*
X181424072Y-39975918D02*
G01*
X181669939Y-40077759D01*
X181891212Y-40225610D01*
X182079390Y-40413788D01*
X182227241Y-40635061D01*
X182329082Y-40880928D01*
X182381000Y-41141938D01*
X182381000Y-41408062D01*
X182329082Y-41669072D01*
X182227241Y-41914939D01*
X182079390Y-42136212D01*
X181891212Y-42324390D01*
X181669939Y-42472241D01*
X181669938Y-42472242D01*
X181669937Y-42472242D01*
X181424072Y-42574082D01*
X181163063Y-42626000D01*
X180896937Y-42626000D01*
X180635928Y-42574082D01*
X180390063Y-42472242D01*
X180390062Y-42472242D01*
X180390061Y-42472241D01*
X180168788Y-42324390D01*
X179980610Y-42136212D01*
X179832759Y-41914939D01*
X179730918Y-41669072D01*
X179679000Y-41408062D01*
X179679000Y-41141938D01*
X179730918Y-40880928D01*
X179832759Y-40635061D01*
X179980610Y-40413788D01*
X180168788Y-40225610D01*
X180390061Y-40077759D01*
X180635928Y-39975918D01*
X180896937Y-39924000D01*
X181163063Y-39924000D01*
X181424072Y-39975918D01*
X181424072Y-39975918D01*
G37*
G36*
X176924072Y-39975918D02*
G01*
X177169939Y-40077759D01*
X177391212Y-40225610D01*
X177579390Y-40413788D01*
X177727241Y-40635061D01*
X177829082Y-40880928D01*
X177881000Y-41141938D01*
X177881000Y-41408062D01*
X177829082Y-41669072D01*
X177727241Y-41914939D01*
X177579390Y-42136212D01*
X177391212Y-42324390D01*
X177169939Y-42472241D01*
X177169938Y-42472242D01*
X177169937Y-42472242D01*
X176924072Y-42574082D01*
X176663063Y-42626000D01*
X176396937Y-42626000D01*
X176135928Y-42574082D01*
X175890063Y-42472242D01*
X175890062Y-42472242D01*
X175890061Y-42472241D01*
X175668788Y-42324390D01*
X175480610Y-42136212D01*
X175332759Y-41914939D01*
X175230918Y-41669072D01*
X175179000Y-41408062D01*
X175179000Y-41141938D01*
X175230918Y-40880928D01*
X175332759Y-40635061D01*
X175480610Y-40413788D01*
X175668788Y-40225610D01*
X175890061Y-40077759D01*
X176135928Y-39975918D01*
X176396937Y-39924000D01*
X176663063Y-39924000D01*
X176924072Y-39975918D01*
X176924072Y-39975918D01*
G37*
G36*
X158831000Y-41691000D02*
G01*
X156129000Y-41691000D01*
X156129000Y-39589000D01*
X158831000Y-39589000D01*
X158831000Y-41691000D01*
X158831000Y-41691000D01*
G37*
G36*
X95311000Y-41691000D02*
G01*
X92609000Y-41691000D01*
X92609000Y-39589000D01*
X95311000Y-39589000D01*
X95311000Y-41691000D01*
X95311000Y-41691000D01*
G37*
G36*
X158831000Y-39151000D02*
G01*
X156129000Y-39151000D01*
X156129000Y-37049000D01*
X158831000Y-37049000D01*
X158831000Y-39151000D01*
X158831000Y-39151000D01*
G37*
G36*
X95311000Y-39151000D02*
G01*
X92609000Y-39151000D01*
X92609000Y-37049000D01*
X95311000Y-37049000D01*
X95311000Y-39151000D01*
X95311000Y-39151000D01*
G37*
G36*
X185560072Y-35784918D02*
G01*
X185805939Y-35886759D01*
X186027212Y-36034610D01*
X186215390Y-36222788D01*
X186363241Y-36444061D01*
X186465082Y-36689928D01*
X186517000Y-36950938D01*
X186517000Y-37217062D01*
X186465082Y-37478072D01*
X186363241Y-37723939D01*
X186215390Y-37945212D01*
X186027212Y-38133390D01*
X185805939Y-38281241D01*
X185805938Y-38281242D01*
X185805937Y-38281242D01*
X185560072Y-38383082D01*
X185299063Y-38435000D01*
X185032937Y-38435000D01*
X184771928Y-38383082D01*
X184526063Y-38281242D01*
X184526062Y-38281242D01*
X184526061Y-38281241D01*
X184304788Y-38133390D01*
X184116610Y-37945212D01*
X183968759Y-37723939D01*
X183866918Y-37478072D01*
X183815000Y-37217062D01*
X183815000Y-36950938D01*
X183866918Y-36689928D01*
X183968759Y-36444061D01*
X184116610Y-36222788D01*
X184304788Y-36034610D01*
X184526061Y-35886759D01*
X184771928Y-35784918D01*
X185032937Y-35733000D01*
X185299063Y-35733000D01*
X185560072Y-35784918D01*
X185560072Y-35784918D01*
G37*
G36*
X193180072Y-35784918D02*
G01*
X193425939Y-35886759D01*
X193647212Y-36034610D01*
X193835390Y-36222788D01*
X193983241Y-36444061D01*
X194085082Y-36689928D01*
X194137000Y-36950938D01*
X194137000Y-37217062D01*
X194085082Y-37478072D01*
X193983241Y-37723939D01*
X193835390Y-37945212D01*
X193647212Y-38133390D01*
X193425939Y-38281241D01*
X193425938Y-38281242D01*
X193425937Y-38281242D01*
X193180072Y-38383082D01*
X192919063Y-38435000D01*
X192652937Y-38435000D01*
X192391928Y-38383082D01*
X192146063Y-38281242D01*
X192146062Y-38281242D01*
X192146061Y-38281241D01*
X191924788Y-38133390D01*
X191736610Y-37945212D01*
X191588759Y-37723939D01*
X191486918Y-37478072D01*
X191435000Y-37217062D01*
X191435000Y-36950938D01*
X191486918Y-36689928D01*
X191588759Y-36444061D01*
X191736610Y-36222788D01*
X191924788Y-36034610D01*
X192146061Y-35886759D01*
X192391928Y-35784918D01*
X192652937Y-35733000D01*
X192919063Y-35733000D01*
X193180072Y-35784918D01*
X193180072Y-35784918D01*
G37*
G36*
X95311000Y-36611000D02*
G01*
X92609000Y-36611000D01*
X92609000Y-34509000D01*
X95311000Y-34509000D01*
X95311000Y-36611000D01*
X95311000Y-36611000D01*
G37*
G36*
X158831000Y-36611000D02*
G01*
X156129000Y-36611000D01*
X156129000Y-34509000D01*
X158831000Y-34509000D01*
X158831000Y-36611000D01*
X158831000Y-36611000D01*
G37*
G36*
X181424072Y-33475918D02*
G01*
X181669939Y-33577759D01*
X181781328Y-33652187D01*
X181891211Y-33725609D01*
X182079391Y-33913789D01*
X182227242Y-34135063D01*
X182329082Y-34380928D01*
X182381000Y-34641938D01*
X182381000Y-34908062D01*
X182329082Y-35169072D01*
X182227241Y-35414939D01*
X182079390Y-35636212D01*
X181891212Y-35824390D01*
X181669939Y-35972241D01*
X181669938Y-35972242D01*
X181669937Y-35972242D01*
X181424072Y-36074082D01*
X181163063Y-36126000D01*
X180896937Y-36126000D01*
X180635928Y-36074082D01*
X180390063Y-35972242D01*
X180390062Y-35972242D01*
X180390061Y-35972241D01*
X180168788Y-35824390D01*
X179980610Y-35636212D01*
X179832759Y-35414939D01*
X179730918Y-35169072D01*
X179679000Y-34908062D01*
X179679000Y-34641938D01*
X179730918Y-34380928D01*
X179832758Y-34135063D01*
X179980609Y-33913789D01*
X180168789Y-33725609D01*
X180278672Y-33652187D01*
X180390061Y-33577759D01*
X180635928Y-33475918D01*
X180896937Y-33424000D01*
X181163063Y-33424000D01*
X181424072Y-33475918D01*
X181424072Y-33475918D01*
G37*
G36*
X176924072Y-33475918D02*
G01*
X177169939Y-33577759D01*
X177281328Y-33652187D01*
X177391211Y-33725609D01*
X177579391Y-33913789D01*
X177727242Y-34135063D01*
X177829082Y-34380928D01*
X177881000Y-34641938D01*
X177881000Y-34908062D01*
X177829082Y-35169072D01*
X177727241Y-35414939D01*
X177579390Y-35636212D01*
X177391212Y-35824390D01*
X177169939Y-35972241D01*
X177169938Y-35972242D01*
X177169937Y-35972242D01*
X176924072Y-36074082D01*
X176663063Y-36126000D01*
X176396937Y-36126000D01*
X176135928Y-36074082D01*
X175890063Y-35972242D01*
X175890062Y-35972242D01*
X175890061Y-35972241D01*
X175668788Y-35824390D01*
X175480610Y-35636212D01*
X175332759Y-35414939D01*
X175230918Y-35169072D01*
X175179000Y-34908062D01*
X175179000Y-34641938D01*
X175230918Y-34380928D01*
X175332758Y-34135063D01*
X175480609Y-33913789D01*
X175668789Y-33725609D01*
X175778672Y-33652187D01*
X175890061Y-33577759D01*
X176135928Y-33475918D01*
X176396937Y-33424000D01*
X176663063Y-33424000D01*
X176924072Y-33475918D01*
X176924072Y-33475918D01*
G37*
G36*
X185530320Y-31969000D02*
G01*
X185560072Y-31974918D01*
X185805939Y-32076759D01*
X185917328Y-32151187D01*
X186027211Y-32224609D01*
X186215391Y-32412789D01*
X186363242Y-32634063D01*
X186465082Y-32879928D01*
X186517000Y-33140937D01*
X186517000Y-33407063D01*
X186465082Y-33668072D01*
X186363242Y-33913937D01*
X186258296Y-34071000D01*
X186215390Y-34135212D01*
X186027212Y-34323390D01*
X185805939Y-34471241D01*
X185805938Y-34471242D01*
X185805937Y-34471242D01*
X185560072Y-34573082D01*
X185299063Y-34625000D01*
X185032937Y-34625000D01*
X184771928Y-34573082D01*
X184526063Y-34471242D01*
X184526062Y-34471242D01*
X184526061Y-34471241D01*
X184304788Y-34323390D01*
X184116610Y-34135212D01*
X184073705Y-34071000D01*
X183968758Y-33913937D01*
X183866918Y-33668072D01*
X183815000Y-33407063D01*
X183815000Y-33140937D01*
X183866918Y-32879928D01*
X183968758Y-32634063D01*
X184116609Y-32412789D01*
X184304789Y-32224609D01*
X184414672Y-32151187D01*
X184526061Y-32076759D01*
X184771928Y-31974918D01*
X184801680Y-31969000D01*
X185032937Y-31923000D01*
X185299063Y-31923000D01*
X185530320Y-31969000D01*
X185530320Y-31969000D01*
G37*
G36*
X193150320Y-31969000D02*
G01*
X193180072Y-31974918D01*
X193425939Y-32076759D01*
X193537328Y-32151187D01*
X193647211Y-32224609D01*
X193835391Y-32412789D01*
X193983242Y-32634063D01*
X194085082Y-32879928D01*
X194137000Y-33140937D01*
X194137000Y-33407063D01*
X194085082Y-33668072D01*
X193983242Y-33913937D01*
X193878296Y-34071000D01*
X193835390Y-34135212D01*
X193647212Y-34323390D01*
X193425939Y-34471241D01*
X193425938Y-34471242D01*
X193425937Y-34471242D01*
X193180072Y-34573082D01*
X192919063Y-34625000D01*
X192652937Y-34625000D01*
X192391928Y-34573082D01*
X192146063Y-34471242D01*
X192146062Y-34471242D01*
X192146061Y-34471241D01*
X191924788Y-34323390D01*
X191736610Y-34135212D01*
X191693705Y-34071000D01*
X191588758Y-33913937D01*
X191486918Y-33668072D01*
X191435000Y-33407063D01*
X191435000Y-33140937D01*
X191486918Y-32879928D01*
X191588758Y-32634063D01*
X191736609Y-32412789D01*
X191924789Y-32224609D01*
X192034672Y-32151187D01*
X192146061Y-32076759D01*
X192391928Y-31974918D01*
X192421680Y-31969000D01*
X192652937Y-31923000D01*
X192919063Y-31923000D01*
X193150320Y-31969000D01*
X193150320Y-31969000D01*
G37*
G36*
X158831000Y-34071000D02*
G01*
X156129000Y-34071000D01*
X156129000Y-31969000D01*
X158831000Y-31969000D01*
X158831000Y-34071000D01*
X158831000Y-34071000D01*
G37*
G36*
X95311000Y-34071000D02*
G01*
X92609000Y-34071000D01*
X92609000Y-31969000D01*
X95311000Y-31969000D01*
X95311000Y-34071000D01*
X95311000Y-34071000D01*
G37*
G36*
X158831000Y-31531000D02*
G01*
X156129000Y-31531000D01*
X156129000Y-29429000D01*
X158831000Y-29429000D01*
X158831000Y-31531000D01*
X158831000Y-31531000D01*
G37*
G36*
X193180072Y-28164918D02*
G01*
X193425939Y-28266759D01*
X193647212Y-28414610D01*
X193835390Y-28602788D01*
X193983241Y-28824061D01*
X194085082Y-29069928D01*
X194137000Y-29330938D01*
X194137000Y-29597062D01*
X194085082Y-29858072D01*
X193983241Y-30103939D01*
X193835390Y-30325212D01*
X193647212Y-30513390D01*
X193425939Y-30661241D01*
X193425938Y-30661242D01*
X193425937Y-30661242D01*
X193180072Y-30763082D01*
X192919063Y-30815000D01*
X192652937Y-30815000D01*
X192391928Y-30763082D01*
X192146063Y-30661242D01*
X192146062Y-30661242D01*
X192146061Y-30661241D01*
X191924788Y-30513390D01*
X191736610Y-30325212D01*
X191588759Y-30103939D01*
X191486918Y-29858072D01*
X191435000Y-29597062D01*
X191435000Y-29330938D01*
X191486918Y-29069928D01*
X191588759Y-28824061D01*
X191736610Y-28602788D01*
X191924788Y-28414610D01*
X192146061Y-28266759D01*
X192391928Y-28164918D01*
X192652937Y-28113000D01*
X192919063Y-28113000D01*
X193180072Y-28164918D01*
X193180072Y-28164918D01*
G37*
G36*
X185560072Y-28164918D02*
G01*
X185805939Y-28266759D01*
X186027212Y-28414610D01*
X186215390Y-28602788D01*
X186363241Y-28824061D01*
X186465082Y-29069928D01*
X186517000Y-29330938D01*
X186517000Y-29597062D01*
X186465082Y-29858072D01*
X186363241Y-30103939D01*
X186215390Y-30325212D01*
X186027212Y-30513390D01*
X185805939Y-30661241D01*
X185805938Y-30661242D01*
X185805937Y-30661242D01*
X185560072Y-30763082D01*
X185299063Y-30815000D01*
X185032937Y-30815000D01*
X184771928Y-30763082D01*
X184526063Y-30661242D01*
X184526062Y-30661242D01*
X184526061Y-30661241D01*
X184304788Y-30513390D01*
X184116610Y-30325212D01*
X183968759Y-30103939D01*
X183866918Y-29858072D01*
X183815000Y-29597062D01*
X183815000Y-29330938D01*
X183866918Y-29069928D01*
X183968759Y-28824061D01*
X184116610Y-28602788D01*
X184304788Y-28414610D01*
X184526061Y-28266759D01*
X184771928Y-28164918D01*
X185032937Y-28113000D01*
X185299063Y-28113000D01*
X185560072Y-28164918D01*
X185560072Y-28164918D01*
G37*
G36*
X158831000Y-28991000D02*
G01*
X156129000Y-28991000D01*
X156129000Y-26889000D01*
X158831000Y-26889000D01*
X158831000Y-28991000D01*
X158831000Y-28991000D01*
G37*
G36*
X181424072Y-24100918D02*
G01*
X181669939Y-24202759D01*
X181891212Y-24350610D01*
X182079390Y-24538788D01*
X182227241Y-24760061D01*
X182329082Y-25005928D01*
X182381000Y-25266938D01*
X182381000Y-25533062D01*
X182329082Y-25794072D01*
X182227241Y-26039939D01*
X182079390Y-26261212D01*
X181891212Y-26449390D01*
X181669939Y-26597241D01*
X181669938Y-26597242D01*
X181669937Y-26597242D01*
X181424072Y-26699082D01*
X181163063Y-26751000D01*
X180896937Y-26751000D01*
X180635928Y-26699082D01*
X180390063Y-26597242D01*
X180390062Y-26597242D01*
X180390061Y-26597241D01*
X180168788Y-26449390D01*
X179980610Y-26261212D01*
X179832759Y-26039939D01*
X179730918Y-25794072D01*
X179679000Y-25533062D01*
X179679000Y-25266938D01*
X179730918Y-25005928D01*
X179832759Y-24760061D01*
X179980610Y-24538788D01*
X180168788Y-24350610D01*
X180390061Y-24202759D01*
X180635928Y-24100918D01*
X180896937Y-24049000D01*
X181163063Y-24049000D01*
X181424072Y-24100918D01*
X181424072Y-24100918D01*
G37*
G36*
X176924072Y-24100918D02*
G01*
X177169939Y-24202759D01*
X177391212Y-24350610D01*
X177579390Y-24538788D01*
X177727241Y-24760061D01*
X177829082Y-25005928D01*
X177881000Y-25266938D01*
X177881000Y-25533062D01*
X177829082Y-25794072D01*
X177727241Y-26039939D01*
X177579390Y-26261212D01*
X177391212Y-26449390D01*
X177169939Y-26597241D01*
X177169938Y-26597242D01*
X177169937Y-26597242D01*
X176924072Y-26699082D01*
X176663063Y-26751000D01*
X176396937Y-26751000D01*
X176135928Y-26699082D01*
X175890063Y-26597242D01*
X175890062Y-26597242D01*
X175890061Y-26597241D01*
X175668788Y-26449390D01*
X175480610Y-26261212D01*
X175332759Y-26039939D01*
X175230918Y-25794072D01*
X175179000Y-25533062D01*
X175179000Y-25266938D01*
X175230918Y-25005928D01*
X175332759Y-24760061D01*
X175480610Y-24538788D01*
X175668788Y-24350610D01*
X175890061Y-24202759D01*
X176135928Y-24100918D01*
X176396937Y-24049000D01*
X176663063Y-24049000D01*
X176924072Y-24100918D01*
X176924072Y-24100918D01*
G37*
G36*
X156578254Y-19077818D02*
G01*
X156951511Y-19232426D01*
X156951513Y-19232427D01*
X157287436Y-19456884D01*
X157573116Y-19742564D01*
X157711314Y-19949391D01*
X157797574Y-20078489D01*
X157952182Y-20451746D01*
X158031000Y-20847993D01*
X158031000Y-21252007D01*
X157952182Y-21648254D01*
X157882420Y-21816674D01*
X157797573Y-22021513D01*
X157573116Y-22357436D01*
X157287436Y-22643116D01*
X156951513Y-22867573D01*
X156951512Y-22867574D01*
X156951511Y-22867574D01*
X156578254Y-23022182D01*
X156182007Y-23101000D01*
X155777993Y-23101000D01*
X155381746Y-23022182D01*
X155008489Y-22867574D01*
X155008488Y-22867574D01*
X155008487Y-22867573D01*
X154672564Y-22643116D01*
X154386884Y-22357436D01*
X154162427Y-22021513D01*
X154077580Y-21816674D01*
X154007818Y-21648254D01*
X153929000Y-21252007D01*
X153929000Y-20847993D01*
X154007818Y-20451746D01*
X154162426Y-20078489D01*
X154248687Y-19949391D01*
X154386884Y-19742564D01*
X154672564Y-19456884D01*
X155008487Y-19232427D01*
X155008489Y-19232426D01*
X155381746Y-19077818D01*
X155777993Y-18999000D01*
X156182007Y-18999000D01*
X156578254Y-19077818D01*
X156578254Y-19077818D01*
G37*
G36*
X95378254Y-19077818D02*
G01*
X95751511Y-19232426D01*
X95751513Y-19232427D01*
X96087436Y-19456884D01*
X96373116Y-19742564D01*
X96511314Y-19949391D01*
X96597574Y-20078489D01*
X96752182Y-20451746D01*
X96831000Y-20847993D01*
X96831000Y-21252007D01*
X96752182Y-21648254D01*
X96682420Y-21816674D01*
X96597573Y-22021513D01*
X96373116Y-22357436D01*
X96087436Y-22643116D01*
X95751513Y-22867573D01*
X95751512Y-22867574D01*
X95751511Y-22867574D01*
X95378254Y-23022182D01*
X94982007Y-23101000D01*
X94577993Y-23101000D01*
X94181746Y-23022182D01*
X93808489Y-22867574D01*
X93808488Y-22867574D01*
X93808487Y-22867573D01*
X93472564Y-22643116D01*
X93186884Y-22357436D01*
X92962427Y-22021513D01*
X92877580Y-21816674D01*
X92807818Y-21648254D01*
X92729000Y-21252007D01*
X92729000Y-20847993D01*
X92807818Y-20451746D01*
X92962426Y-20078489D01*
X93048687Y-19949391D01*
X93186884Y-19742564D01*
X93472564Y-19456884D01*
X93808487Y-19232427D01*
X93808489Y-19232426D01*
X94181746Y-19077818D01*
X94577993Y-18999000D01*
X94982007Y-18999000D01*
X95378254Y-19077818D01*
X95378254Y-19077818D01*
G37*
G36*
X176924072Y-17600918D02*
G01*
X177169939Y-17702759D01*
X177281328Y-17777187D01*
X177391211Y-17850609D01*
X177579391Y-18038789D01*
X177727242Y-18260063D01*
X177829082Y-18505928D01*
X177881000Y-18766937D01*
X177881000Y-19033063D01*
X177829082Y-19294072D01*
X177727242Y-19539937D01*
X177591851Y-19742564D01*
X177579390Y-19761212D01*
X177391212Y-19949390D01*
X177169939Y-20097241D01*
X177169938Y-20097242D01*
X177169937Y-20097242D01*
X176924072Y-20199082D01*
X176663063Y-20251000D01*
X176396937Y-20251000D01*
X176135928Y-20199082D01*
X175890063Y-20097242D01*
X175890062Y-20097242D01*
X175890061Y-20097241D01*
X175668788Y-19949390D01*
X175480610Y-19761212D01*
X175468150Y-19742564D01*
X175332758Y-19539937D01*
X175230918Y-19294072D01*
X175179000Y-19033063D01*
X175179000Y-18766937D01*
X175230918Y-18505928D01*
X175332758Y-18260063D01*
X175480609Y-18038789D01*
X175668789Y-17850609D01*
X175778672Y-17777187D01*
X175890061Y-17702759D01*
X176135928Y-17600918D01*
X176396937Y-17549000D01*
X176663063Y-17549000D01*
X176924072Y-17600918D01*
X176924072Y-17600918D01*
G37*
G36*
X181424072Y-17600918D02*
G01*
X181669939Y-17702759D01*
X181781328Y-17777187D01*
X181891211Y-17850609D01*
X182079391Y-18038789D01*
X182227242Y-18260063D01*
X182329082Y-18505928D01*
X182381000Y-18766937D01*
X182381000Y-19033063D01*
X182329082Y-19294072D01*
X182227242Y-19539937D01*
X182091851Y-19742564D01*
X182079390Y-19761212D01*
X181891212Y-19949390D01*
X181669939Y-20097241D01*
X181669938Y-20097242D01*
X181669937Y-20097242D01*
X181424072Y-20199082D01*
X181163063Y-20251000D01*
X180896937Y-20251000D01*
X180635928Y-20199082D01*
X180390063Y-20097242D01*
X180390062Y-20097242D01*
X180390061Y-20097241D01*
X180168788Y-19949390D01*
X179980610Y-19761212D01*
X179968150Y-19742564D01*
X179832758Y-19539937D01*
X179730918Y-19294072D01*
X179679000Y-19033063D01*
X179679000Y-18766937D01*
X179730918Y-18505928D01*
X179832758Y-18260063D01*
X179980609Y-18038789D01*
X180168789Y-17850609D01*
X180278672Y-17777187D01*
X180390061Y-17702759D01*
X180635928Y-17600918D01*
X180896937Y-17549000D01*
X181163063Y-17549000D01*
X181424072Y-17600918D01*
X181424072Y-17600918D01*
G37*
G36*
X130591000Y-11511000D02*
G01*
X128489000Y-11511000D01*
X128489000Y-8809000D01*
X130591000Y-8809000D01*
X130591000Y-11511000D01*
X130591000Y-11511000D01*
G37*
G36*
X145831000Y-11511000D02*
G01*
X143729000Y-11511000D01*
X143729000Y-8809000D01*
X145831000Y-8809000D01*
X145831000Y-11511000D01*
X145831000Y-11511000D01*
G37*
G36*
X143291000Y-11511000D02*
G01*
X141189000Y-11511000D01*
X141189000Y-8809000D01*
X143291000Y-8809000D01*
X143291000Y-11511000D01*
X143291000Y-11511000D01*
G37*
G36*
X140751000Y-11511000D02*
G01*
X138649000Y-11511000D01*
X138649000Y-8809000D01*
X140751000Y-8809000D01*
X140751000Y-11511000D01*
X140751000Y-11511000D01*
G37*
G36*
X138211000Y-11511000D02*
G01*
X136109000Y-11511000D01*
X136109000Y-8809000D01*
X138211000Y-8809000D01*
X138211000Y-11511000D01*
X138211000Y-11511000D01*
G37*
G36*
X128051000Y-11511000D02*
G01*
X125949000Y-11511000D01*
X125949000Y-8809000D01*
X128051000Y-8809000D01*
X128051000Y-11511000D01*
X128051000Y-11511000D01*
G37*
G36*
X122971000Y-11511000D02*
G01*
X120869000Y-11511000D01*
X120869000Y-8809000D01*
X122971000Y-8809000D01*
X122971000Y-11511000D01*
X122971000Y-11511000D01*
G37*
G36*
X135671000Y-11511000D02*
G01*
X133569000Y-11511000D01*
X133569000Y-8809000D01*
X135671000Y-8809000D01*
X135671000Y-11511000D01*
X135671000Y-11511000D01*
G37*
G36*
X133131000Y-11511000D02*
G01*
X131029000Y-11511000D01*
X131029000Y-8809000D01*
X133131000Y-8809000D01*
X133131000Y-11511000D01*
X133131000Y-11511000D01*
G37*
G36*
X125511000Y-11511000D02*
G01*
X123409000Y-11511000D01*
X123409000Y-8809000D01*
X125511000Y-8809000D01*
X125511000Y-11511000D01*
X125511000Y-11511000D01*
G37*
G36*
X120431000Y-11511000D02*
G01*
X118329000Y-11511000D01*
X118329000Y-8809000D01*
X120431000Y-8809000D01*
X120431000Y-11511000D01*
X120431000Y-11511000D01*
G37*
M02*
