M48
; DRILL file {KiCad (5.1.2)-1} date 13/05/2019 07:20:09
; FORMAT={-:-/ absolute / metric / decimal}
; #@! TF.CreationDate,2019-05-13T07:20:09+02:00
; #@! TF.GenerationSoftware,Kicad,Pcbnew,(5.1.2)-1
FMAT,2
METRIC
T1C0.800
T2C1.000
T3C1.100
T4C2.700
T5C3.000
%
G90
G05
T1
X185.166Y-33.274
X192.786Y-33.274
X185.166Y-29.464
X192.786Y-29.464
X185.166Y-37.084
X192.786Y-37.084
T2
X119.38Y-10.16
X121.92Y-10.16
X124.46Y-10.16
X127.0Y-10.16
X129.54Y-10.16
X132.08Y-10.16
X134.62Y-10.16
X137.16Y-10.16
X139.7Y-10.16
X142.24Y-10.16
X144.78Y-10.16
X93.96Y-33.02
X93.96Y-35.56
X93.96Y-38.1
X93.96Y-40.64
X93.96Y-43.18
X157.48Y-27.94
X157.48Y-30.48
X157.48Y-33.02
X157.48Y-35.56
X157.48Y-38.1
X157.48Y-40.64
X157.48Y-43.18
X157.48Y-45.72
X157.48Y-48.26
T3
X176.53Y-34.775
X176.53Y-41.275
X181.03Y-34.775
X181.03Y-41.275
X176.53Y-18.9
X176.53Y-25.4
X181.03Y-18.9
X181.03Y-25.4
X176.53Y-50.65
X176.53Y-57.15
X181.03Y-50.65
X181.03Y-57.15
T4
X94.78Y-21.05
X94.78Y-55.15
X155.98Y-21.05
X155.98Y-55.15
T5
X155.956Y-55.118
X94.742Y-21.082
X155.956Y-21.082
X94.742Y-55.118
T0
M30
