0
SECTION
2
HEADER
9
$INSUNITS
70
4
9
$ACADVER
1
AC1014
9
$HANDSEED
5
FFFF
0
ENDSEC
0
SECTION
2
TABLES
0
TABLE
2
VPORT
5
8
100
AcDbSymbolTable
0
ENDTAB
0
TABLE
2
LTYPE
5
5
100
AcDbSymbolTable
0
LTYPE
5
14
100
AcDbSymbolTableRecord
100
AcDbLinetypeTableRecord
2
BYBLOCK
70
0
0
LTYPE
5
15
100
AcDbSymbolTableRecord
100
AcDbLinetypeTableRecord
2
BYLAYER
70
0
0
ENDTAB
0
TABLE
2
LAYER
5
2
100
AcDbSymbolTable
70
2
0
LAYER
5
50
100
AcDbSymbolTableRecord
100
AcDbLayerTableRecord
2
0
70
0
6
CONTINUOUS
0
ENDTAB
0
TABLE
2
STYLE
5
3
100
AcDbSymbolTable
70
1
0
STYLE
5
11
100
AcDbSymbolTableRecord
100
AcDbTextStyleTableRecord
2
STANDARD
70
0
0
ENDTAB
0
TABLE
2
VIEW
5
6
100
AcDbSymbolTable
70
0
0
ENDTAB
0
TABLE
2
UCS
5
7
100
AcDbSymbolTable
70
0
0
ENDTAB
0
TABLE
2
APPID
5
9
100
AcDbSymbolTable
70
2
0
APPID
5
12
100
AcDbSymbolTableRecord
100
AcDbRegAppTableRecord
2
ACAD
70
0
0
ENDTAB
0
TABLE
2
DIMSTYLE
5
A
100
AcDbSymbolTable
70
1
0
ENDTAB
0
TABLE
2
BLOCK_RECORD
5
1
100
AcDbSymbolTable
70
1
0
BLOCK_RECORD
5
1F
100
AcDbSymbolTableRecord
100
AcDbBlockTableRecord
2
*MODEL_SPACE
0
BLOCK_RECORD
5
1B
100
AcDbSymbolTableRecord
100
AcDbBlockTableRecord
2
*PAPER_SPACE
0
ENDTAB
0
ENDSEC
0
SECTION
2
BLOCKS
0
BLOCK
5
20
100
AcDbEntity
100
AcDbBlockBegin
2
*MODEL_SPACE
0
ENDBLK
5
21
100
AcDbEntity
100
AcDbBlockEnd
0
BLOCK
5
1C
100
AcDbEntity
100
AcDbBlockBegin
2
*PAPER_SPACE
0
ENDBLK
5
1D
100
AcDbEntity
100
AcDbBlockEnd
0
ENDSEC
0
SECTION
2
ENTITIES
0
CIRCLE
5
100
100
AcDbEntity
8
0
100
AcDbCircle
10
-24.250000000000025
20
-35.036961479804035
30
0
40
1.6000000000000016
0
CIRCLE
5
101
100
AcDbEntity
8
0
100
AcDbCircle
10
59.799999999999983
20
-67.856961479804028
30
0
40
5.0000000000000009
0
CIRCLE
5
102
100
AcDbEntity
8
0
100
AcDbCircle
10
59.799999999999983
20
-51.98696147980403
30
0
40
5.0000000000000009
0
CIRCLE
5
103
100
AcDbEntity
8
0
100
AcDbCircle
10
36.949999999999989
20
-35.036961479804035
30
0
40
1.6000000000000016
0
CIRCLE
5
104
100
AcDbEntity
8
0
100
AcDbCircle
10
-24.250000000000025
20
-69.076961479804027
30
0
40
1.6000000000000016
0
LWPOLYLINE
5
105
100
AcDbEntity
8
0
100
AcDbPolyline
90
10
70
1
43
0.0
10
-21.150000000000027
20
-59.449434598083606
10
-21.150000000000027
20
-72.306961479804031
10
33.849999999999973
20
-72.306961479804031
10
33.849999999999973
20
-59.449434598083599
10
33.589069349651069
20
-59.379291950140342
10
33.849999999999973
20
-59.379291950140342
10
33.849999999999973
20
-31.806961479804027
10
-21.150000000000023
20
-31.806961479804023
10
-21.15000000000002
20
-59.379291950140342
10
-20.889069349651113
20
-59.379291950140349
0
CIRCLE
5
106
100
AcDbEntity
8
0
100
AcDbCircle
10
59.799999999999983
20
-36.106961479804042
30
0
40
5.0000000000000009
0
CIRCLE
5
107
100
AcDbEntity
8
0
100
AcDbCircle
10
36.949999999999989
20
-69.076961479804027
30
0
40
1.6000000000000016
0
LWPOLYLINE
5
108
100
AcDbEntity
8
0
100
AcDbPolyline
90
4
70
1
43
0.0
10
99.349999999999994
20
-27.056961479804027
10
99.349999999999994
20
-77.056961479804031
10
-86.650000000000034
20
-77.056961479804031
10
-86.650000000000034
20
-27.056961479804027
0
LINE
5
109
100
AcDbEntity
8
0
100
AcDbLine
10
-21.150000000000023
20
-31.806961479804023
30
1.1102230246251565e-14
11
-21.150000000000027
21
-72.306961479804031
31
8.8817841970012523e-15
0
LINE
5
110
100
AcDbEntity
8
0
100
AcDbLine
10
33.849999999999973
20
-72.306961479804031
30
0
11
-21.150000000000027
21
-72.306961479804031
31
8.8817841970012523e-15
0
LINE
5
111
100
AcDbEntity
8
0
100
AcDbLine
10
33.849999999999973
20
-72.306961479804031
30
0
11
33.849999999999973
21
-31.806961479804027
31
8.8817841970012523e-15
0
LINE
5
112
100
AcDbEntity
8
0
100
AcDbLine
10
33.849999999999973
20
-31.806961479804027
30
8.8817841970012523e-15
11
-21.150000000000023
21
-31.806961479804023
31
1.1102230246251565e-14
0
CIRCLE
5
113
100
AcDbEntity
8
0
100
AcDbCircle
10
-24.250000000000025
20
-35.036961479804035
30
0
40
1.6000000000000003
0
CIRCLE
5
114
100
AcDbEntity
8
0
100
AcDbCircle
10
-24.250000000000025
20
-69.076961479804027
30
0
40
1.6000000000000059
0
CIRCLE
5
115
100
AcDbEntity
8
0
100
AcDbCircle
10
36.949999999999989
20
-69.076961479804027
30
0
40
1.6000000000000134
0
CIRCLE
5
116
100
AcDbEntity
8
0
100
AcDbCircle
10
36.949999999999989
20
-35.036961479804035
30
0
40
1.6000000000000107
0
CIRCLE
5
117
100
AcDbEntity
8
0
100
AcDbCircle
10
59.799999999999983
20
-36.106961479804042
30
0
40
5.0000000000000053
0
CIRCLE
5
118
100
AcDbEntity
8
0
100
AcDbCircle
10
59.799999999999983
20
-51.98696147980403
30
0
40
5.0000000000000089
0
CIRCLE
5
119
100
AcDbEntity
8
0
100
AcDbCircle
10
59.799999999999983
20
-67.856961479804028
30
0
40
5.0000000000000107
0
LINE
5
120
100
AcDbEntity
8
0
100
AcDbLine
10
-21.150000000000023
20
-31.806961479804023
30
1.1102230246251565e-14
11
33.849999999999973
21
-31.806961479804027
31
8.8817841970012523e-15
0
LWPOLYLINE
5
121
100
AcDbEntity
8
0
100
AcDbPolyline
90
8
70
1
43
0.0
10
-81.650000000000034
20
-77.056961479804031
10
94.349999999999994
20
-77.056961479804031
42
0.4142135623730987
10
99.350000000000009
20
-72.056961479804016
10
99.349999999999994
20
-47.056961479804031
42
0.4142135623730957
10
79.350000000000009
20
-27.056961479804038
10
-66.650000000000034
20
-27.056961479804027
42
0.41421356237309531
10
-86.650000000000034
20
-47.056961479804031
10
-86.650000000000034
20
-72.056961479804031
42
0.41421356237309453
0
ENDSEC
0
SECTION
2
OBJECTS
0
DICTIONARY
5
C
100
AcDbDictionary
3
ACAD_GROUP
350
D
3
ACAD_MLINESTYLE
350
17
0
DICTIONARY
5
D
100
AcDbDictionary
0
DICTIONARY
5
1A
330
C
100
AcDbDictionary
0
DICTIONARY
5
17
100
AcDbDictionary
0
ENDSEC
0
EOF
