M48
; DRILL file {KiCad (5.1.2)-1} date 13/05/2019 01:32:35
; FORMAT={-:-/ absolute / metric / decimal}
; #@! TF.CreationDate,2019-05-13T01:32:35+02:00
; #@! TF.GenerationSoftware,Kicad,Pcbnew,(5.1.2)-1
FMAT,2
METRIC
T1C0.800
T2C1.000
T3C1.501
T4C3.200
%
G90
G05
T1
X234.95Y-90.17
X234.95Y-92.71
X234.95Y-95.25
X234.95Y-97.79
X242.57Y-90.17
X242.57Y-92.71
X242.57Y-95.25
X242.57Y-97.79
T2
X198.12Y-77.47
X203.2Y-73.66
X210.82Y-73.66
X210.82Y-77.47
X157.48Y-81.28
X157.48Y-86.28
X186.88Y-76.08
X186.88Y-91.48
X251.333Y-56.007
X251.333Y-58.547
X251.333Y-61.087
X251.333Y-63.627
X231.14Y-53.34
X231.14Y-55.88
X231.14Y-58.42
X231.14Y-60.96
X220.98Y-50.8
X220.98Y-53.34
X220.98Y-55.88
X220.98Y-58.42
X220.98Y-60.96
X220.98Y-63.5
X220.98Y-66.04
X220.98Y-68.58
X220.98Y-71.12
X220.98Y-73.66
X220.98Y-76.2
X220.98Y-78.74
X220.98Y-81.28
X220.98Y-83.82
X220.98Y-86.36
X170.18Y-99.06
X170.18Y-104.14
X175.26Y-99.06
X175.26Y-104.14
X180.34Y-99.06
X180.34Y-104.14
X193.04Y-50.8
X193.04Y-53.34
X193.04Y-55.88
X193.04Y-58.42
X193.04Y-60.96
X193.04Y-63.5
X193.04Y-66.04
X193.04Y-68.58
X193.04Y-71.12
X193.04Y-73.66
X193.04Y-76.2
X193.04Y-78.74
X193.04Y-81.28
X193.04Y-83.82
X193.04Y-86.36
X193.04Y-91.44
X195.58Y-91.44
X198.12Y-91.44
X200.66Y-91.44
X203.2Y-91.44
X205.74Y-91.44
X208.28Y-91.44
X210.82Y-91.44
X213.36Y-91.44
X215.9Y-91.44
X218.44Y-91.44
X255.933Y-56.007
X255.933Y-58.547
X255.933Y-61.087
X255.933Y-63.627
T3
X170.18Y-69.85
X175.26Y-69.85
T4
X250.19Y-45.72
X149.86Y-106.68
X149.86Y-45.72
X250.19Y-106.68
T0
M30
