%FSLAX45Y45*%
G04 Gerber Fmt 4.5, Leading zero omitted, Abs format (unit mm)*
G04 Created by KiCad (PCBNEW (5.1.2)-1) date 2019-05-13 00:48:16*
%MOMM*%
%LPD*%
G04 APERTURE LIST*
%ADD10C,0.200000*%
%ADD11C,0.300000*%
G04 APERTURE END LIST*
D10*
X23455000Y-8977000D02*
X23535000Y-9057000D01*
X23535000Y-8977000D02*
X23455000Y-9057000D01*
X23455000Y-9231000D02*
X23535000Y-9311000D01*
X23535000Y-9231000D02*
X23455000Y-9311000D01*
X23455000Y-9485000D02*
X23535000Y-9565000D01*
X23535000Y-9485000D02*
X23455000Y-9565000D01*
X23455000Y-9739000D02*
X23535000Y-9819000D01*
X23535000Y-9739000D02*
X23455000Y-9819000D01*
X24217000Y-8977000D02*
X24297000Y-9057000D01*
X24297000Y-8977000D02*
X24217000Y-9057000D01*
X24217000Y-9231000D02*
X24297000Y-9311000D01*
X24297000Y-9231000D02*
X24217000Y-9311000D01*
X24217000Y-9485000D02*
X24297000Y-9565000D01*
X24297000Y-9485000D02*
X24217000Y-9565000D01*
X24217000Y-9739000D02*
X24297000Y-9819000D01*
X24297000Y-9739000D02*
X24217000Y-9819000D01*
X22148000Y-5080000D02*
G75*
G03X22148000Y-5080000I-50000J0D01*
G01*
X22148000Y-5334000D02*
G75*
G03X22148000Y-5334000I-50000J0D01*
G01*
X22148000Y-5588000D02*
G75*
G03X22148000Y-5588000I-50000J0D01*
G01*
X22148000Y-5842000D02*
G75*
G03X22148000Y-5842000I-50000J0D01*
G01*
X22148000Y-6096000D02*
G75*
G03X22148000Y-6096000I-50000J0D01*
G01*
X22148000Y-6350000D02*
G75*
G03X22148000Y-6350000I-50000J0D01*
G01*
X22148000Y-6604000D02*
G75*
G03X22148000Y-6604000I-50000J0D01*
G01*
X22148000Y-6858000D02*
G75*
G03X22148000Y-6858000I-50000J0D01*
G01*
X22148000Y-7112000D02*
G75*
G03X22148000Y-7112000I-50000J0D01*
G01*
X22148000Y-7366000D02*
G75*
G03X22148000Y-7366000I-50000J0D01*
G01*
X22148000Y-7620000D02*
G75*
G03X22148000Y-7620000I-50000J0D01*
G01*
X22148000Y-7874000D02*
G75*
G03X22148000Y-7874000I-50000J0D01*
G01*
X22148000Y-8128000D02*
G75*
G03X22148000Y-8128000I-50000J0D01*
G01*
X22148000Y-8382000D02*
G75*
G03X22148000Y-8382000I-50000J0D01*
G01*
X22148000Y-8636000D02*
G75*
G03X22148000Y-8636000I-50000J0D01*
G01*
X19354000Y-9144000D02*
G75*
G03X19354000Y-9144000I-50000J0D01*
G01*
X19608000Y-9144000D02*
G75*
G03X19608000Y-9144000I-50000J0D01*
G01*
X19862000Y-9144000D02*
G75*
G03X19862000Y-9144000I-50000J0D01*
G01*
X20116000Y-9144000D02*
G75*
G03X20116000Y-9144000I-50000J0D01*
G01*
X20370000Y-9144000D02*
G75*
G03X20370000Y-9144000I-50000J0D01*
G01*
X20624000Y-9144000D02*
G75*
G03X20624000Y-9144000I-50000J0D01*
G01*
X20878000Y-9144000D02*
G75*
G03X20878000Y-9144000I-50000J0D01*
G01*
X21132000Y-9144000D02*
G75*
G03X21132000Y-9144000I-50000J0D01*
G01*
X21386000Y-9144000D02*
G75*
G03X21386000Y-9144000I-50000J0D01*
G01*
X21640000Y-9144000D02*
G75*
G03X21640000Y-9144000I-50000J0D01*
G01*
X21894000Y-9144000D02*
G75*
G03X21894000Y-9144000I-50000J0D01*
G01*
X17957000Y-9906000D02*
G75*
G03X17957000Y-9906000I-50000J0D01*
G01*
X17957000Y-10160000D02*
G75*
G03X17957000Y-10160000I-50000J0D01*
G01*
X17957000Y-10414000D02*
G75*
G03X17957000Y-10414000I-50000J0D01*
G01*
X18211000Y-9906000D02*
G75*
G03X18211000Y-9906000I-50000J0D01*
G01*
X18211000Y-10160000D02*
G75*
G03X18211000Y-10160000I-50000J0D01*
G01*
X18211000Y-10414000D02*
G75*
G03X18211000Y-10414000I-50000J0D01*
G01*
X25643300Y-5600700D02*
G75*
G03X25643300Y-5600700I-50000J0D01*
G01*
X25643300Y-5854700D02*
G75*
G03X25643300Y-5854700I-50000J0D01*
G01*
X25643300Y-6108700D02*
G75*
G03X25643300Y-6108700I-50000J0D01*
G01*
X25643300Y-6362700D02*
G75*
G03X25643300Y-6362700I-50000J0D01*
G01*
X23164000Y-5334000D02*
G75*
G03X23164000Y-5334000I-50000J0D01*
G01*
X23164000Y-5588000D02*
G75*
G03X23164000Y-5588000I-50000J0D01*
G01*
X23164000Y-5842000D02*
G75*
G03X23164000Y-5842000I-50000J0D01*
G01*
X23164000Y-6096000D02*
G75*
G03X23164000Y-6096000I-50000J0D01*
G01*
X19354000Y-5080000D02*
G75*
G03X19354000Y-5080000I-50000J0D01*
G01*
X19354000Y-5334000D02*
G75*
G03X19354000Y-5334000I-50000J0D01*
G01*
X19354000Y-5588000D02*
G75*
G03X19354000Y-5588000I-50000J0D01*
G01*
X19354000Y-5842000D02*
G75*
G03X19354000Y-5842000I-50000J0D01*
G01*
X19354000Y-6096000D02*
G75*
G03X19354000Y-6096000I-50000J0D01*
G01*
X19354000Y-6350000D02*
G75*
G03X19354000Y-6350000I-50000J0D01*
G01*
X19354000Y-6604000D02*
G75*
G03X19354000Y-6604000I-50000J0D01*
G01*
X19354000Y-6858000D02*
G75*
G03X19354000Y-6858000I-50000J0D01*
G01*
X19354000Y-7112000D02*
G75*
G03X19354000Y-7112000I-50000J0D01*
G01*
X19354000Y-7366000D02*
G75*
G03X19354000Y-7366000I-50000J0D01*
G01*
X19354000Y-7620000D02*
G75*
G03X19354000Y-7620000I-50000J0D01*
G01*
X19354000Y-7874000D02*
G75*
G03X19354000Y-7874000I-50000J0D01*
G01*
X19354000Y-8128000D02*
G75*
G03X19354000Y-8128000I-50000J0D01*
G01*
X19354000Y-8382000D02*
G75*
G03X19354000Y-8382000I-50000J0D01*
G01*
X19354000Y-8636000D02*
G75*
G03X19354000Y-8636000I-50000J0D01*
G01*
X25183300Y-5600700D02*
G75*
G03X25183300Y-5600700I-50000J0D01*
G01*
X25183300Y-5854700D02*
G75*
G03X25183300Y-5854700I-50000J0D01*
G01*
X25183300Y-6108700D02*
G75*
G03X25183300Y-6108700I-50000J0D01*
G01*
X25183300Y-6362700D02*
G75*
G03X25183300Y-6362700I-50000J0D01*
G01*
X15798000Y-8128000D02*
G75*
G03X15798000Y-8128000I-50000J0D01*
G01*
X15798000Y-8628000D02*
G75*
G03X15798000Y-8628000I-50000J0D01*
G01*
X18738000Y-7608000D02*
G75*
G03X18738000Y-7608000I-50000J0D01*
G01*
X18738000Y-9148000D02*
G75*
G03X18738000Y-9148000I-50000J0D01*
G01*
X16891000Y-6147943D02*
X16891000Y-6298057D01*
X16815943Y-6223000D02*
X16966057Y-6223000D01*
X17399000Y-6147943D02*
X17399000Y-6298057D01*
X17323943Y-6223000D02*
X17474057Y-6223000D01*
X26014067Y-10774067D02*
X26014067Y-10561933D01*
X25801933Y-10561933D01*
X25801933Y-10774067D01*
X26014067Y-10774067D01*
X26014067Y-4678067D02*
X26014067Y-4465933D01*
X25801933Y-4465933D01*
X25801933Y-4678067D01*
X26014067Y-4678067D01*
X15092067Y-10774067D02*
X15092067Y-10561933D01*
X14879933Y-10561933D01*
X14879933Y-10774067D01*
X15092067Y-10774067D01*
X15092067Y-4678067D02*
X15092067Y-4465933D01*
X14879933Y-4465933D01*
X14879933Y-4678067D01*
X15092067Y-4678067D01*
D11*
X286429Y-465714D02*
X286429Y-165714D01*
X357857Y-165714D01*
X400714Y-180000D01*
X429286Y-208571D01*
X443571Y-237143D01*
X457857Y-294286D01*
X457857Y-337143D01*
X443571Y-394286D01*
X429286Y-422857D01*
X400714Y-451428D01*
X357857Y-465714D01*
X286429Y-465714D01*
X586429Y-465714D02*
X586429Y-265714D01*
X586429Y-322857D02*
X600714Y-294286D01*
X615000Y-280000D01*
X643571Y-265714D01*
X672143Y-265714D01*
X772143Y-465714D02*
X772143Y-265714D01*
X772143Y-165714D02*
X757857Y-180000D01*
X772143Y-194286D01*
X786428Y-180000D01*
X772143Y-165714D01*
X772143Y-194286D01*
X957857Y-465714D02*
X929286Y-451428D01*
X915000Y-422857D01*
X915000Y-165714D01*
X1115000Y-465714D02*
X1086429Y-451428D01*
X1072143Y-422857D01*
X1072143Y-165714D01*
X1457857Y-465714D02*
X1457857Y-165714D01*
X1557857Y-380000D01*
X1657857Y-165714D01*
X1657857Y-465714D01*
X1929286Y-465714D02*
X1929286Y-308571D01*
X1915000Y-280000D01*
X1886428Y-265714D01*
X1829286Y-265714D01*
X1800714Y-280000D01*
X1929286Y-451428D02*
X1900714Y-465714D01*
X1829286Y-465714D01*
X1800714Y-451428D01*
X1786428Y-422857D01*
X1786428Y-394286D01*
X1800714Y-365714D01*
X1829286Y-351428D01*
X1900714Y-351428D01*
X1929286Y-337143D01*
X2072143Y-265714D02*
X2072143Y-565714D01*
X2072143Y-280000D02*
X2100714Y-265714D01*
X2157857Y-265714D01*
X2186429Y-280000D01*
X2200714Y-294286D01*
X2215000Y-322857D01*
X2215000Y-408571D01*
X2200714Y-437143D01*
X2186429Y-451428D01*
X2157857Y-465714D01*
X2100714Y-465714D01*
X2072143Y-451428D01*
X2343571Y-437143D02*
X2357857Y-451428D01*
X2343571Y-465714D01*
X2329286Y-451428D01*
X2343571Y-437143D01*
X2343571Y-465714D01*
X2343571Y-280000D02*
X2357857Y-294286D01*
X2343571Y-308571D01*
X2329286Y-294286D01*
X2343571Y-280000D01*
X2343571Y-308571D01*
X-80000Y-920000D02*
X0Y-1000000D01*
X0Y-920000D02*
X-80000Y-1000000D01*
X343571Y-795714D02*
X372143Y-795714D01*
X400714Y-810000D01*
X415000Y-824286D01*
X429286Y-852857D01*
X443571Y-910000D01*
X443571Y-981428D01*
X429286Y-1038571D01*
X415000Y-1067143D01*
X400714Y-1081429D01*
X372143Y-1095714D01*
X343571Y-1095714D01*
X315000Y-1081429D01*
X300714Y-1067143D01*
X286429Y-1038571D01*
X272143Y-981428D01*
X272143Y-910000D01*
X286429Y-852857D01*
X300714Y-824286D01*
X315000Y-810000D01*
X343571Y-795714D01*
X572143Y-1067143D02*
X586429Y-1081429D01*
X572143Y-1095714D01*
X557857Y-1081429D01*
X572143Y-1067143D01*
X572143Y-1095714D01*
X757857Y-924286D02*
X729286Y-910000D01*
X715000Y-895714D01*
X700714Y-867143D01*
X700714Y-852857D01*
X715000Y-824286D01*
X729286Y-810000D01*
X757857Y-795714D01*
X815000Y-795714D01*
X843571Y-810000D01*
X857857Y-824286D01*
X872143Y-852857D01*
X872143Y-867143D01*
X857857Y-895714D01*
X843571Y-910000D01*
X815000Y-924286D01*
X757857Y-924286D01*
X729286Y-938571D01*
X715000Y-952857D01*
X700714Y-981428D01*
X700714Y-1038571D01*
X715000Y-1067143D01*
X729286Y-1081429D01*
X757857Y-1095714D01*
X815000Y-1095714D01*
X843571Y-1081429D01*
X857857Y-1067143D01*
X872143Y-1038571D01*
X872143Y-981428D01*
X857857Y-952857D01*
X843571Y-938571D01*
X815000Y-924286D01*
X1057857Y-795714D02*
X1086429Y-795714D01*
X1115000Y-810000D01*
X1129286Y-824286D01*
X1143571Y-852857D01*
X1157857Y-910000D01*
X1157857Y-981428D01*
X1143571Y-1038571D01*
X1129286Y-1067143D01*
X1115000Y-1081429D01*
X1086429Y-1095714D01*
X1057857Y-1095714D01*
X1029286Y-1081429D01*
X1015000Y-1067143D01*
X1000714Y-1038571D01*
X986428Y-981428D01*
X986428Y-910000D01*
X1000714Y-852857D01*
X1015000Y-824286D01*
X1029286Y-810000D01*
X1057857Y-795714D01*
X1286429Y-1095714D02*
X1286429Y-895714D01*
X1286429Y-924286D02*
X1300714Y-910000D01*
X1329286Y-895714D01*
X1372143Y-895714D01*
X1400714Y-910000D01*
X1415000Y-938571D01*
X1415000Y-1095714D01*
X1415000Y-938571D02*
X1429286Y-910000D01*
X1457857Y-895714D01*
X1500714Y-895714D01*
X1529286Y-910000D01*
X1543571Y-938571D01*
X1543571Y-1095714D01*
X1686428Y-1095714D02*
X1686428Y-895714D01*
X1686428Y-924286D02*
X1700714Y-910000D01*
X1729286Y-895714D01*
X1772143Y-895714D01*
X1800714Y-910000D01*
X1815000Y-938571D01*
X1815000Y-1095714D01*
X1815000Y-938571D02*
X1829286Y-910000D01*
X1857857Y-895714D01*
X1900714Y-895714D01*
X1929286Y-910000D01*
X1943571Y-938571D01*
X1943571Y-1095714D01*
X2529286Y-781428D02*
X2272143Y-1167143D01*
X2915000Y-795714D02*
X2943571Y-795714D01*
X2972143Y-810000D01*
X2986428Y-824286D01*
X3000714Y-852857D01*
X3015000Y-910000D01*
X3015000Y-981428D01*
X3000714Y-1038571D01*
X2986428Y-1067143D01*
X2972143Y-1081429D01*
X2943571Y-1095714D01*
X2915000Y-1095714D01*
X2886428Y-1081429D01*
X2872143Y-1067143D01*
X2857857Y-1038571D01*
X2843571Y-981428D01*
X2843571Y-910000D01*
X2857857Y-852857D01*
X2872143Y-824286D01*
X2886428Y-810000D01*
X2915000Y-795714D01*
X3143571Y-1067143D02*
X3157857Y-1081429D01*
X3143571Y-1095714D01*
X3129286Y-1081429D01*
X3143571Y-1067143D01*
X3143571Y-1095714D01*
X3343571Y-795714D02*
X3372143Y-795714D01*
X3400714Y-810000D01*
X3415000Y-824286D01*
X3429286Y-852857D01*
X3443571Y-910000D01*
X3443571Y-981428D01*
X3429286Y-1038571D01*
X3415000Y-1067143D01*
X3400714Y-1081429D01*
X3372143Y-1095714D01*
X3343571Y-1095714D01*
X3315000Y-1081429D01*
X3300714Y-1067143D01*
X3286428Y-1038571D01*
X3272143Y-981428D01*
X3272143Y-910000D01*
X3286428Y-852857D01*
X3300714Y-824286D01*
X3315000Y-810000D01*
X3343571Y-795714D01*
X3543571Y-795714D02*
X3729286Y-795714D01*
X3629286Y-910000D01*
X3672143Y-910000D01*
X3700714Y-924286D01*
X3715000Y-938571D01*
X3729286Y-967143D01*
X3729286Y-1038571D01*
X3715000Y-1067143D01*
X3700714Y-1081429D01*
X3672143Y-1095714D01*
X3586428Y-1095714D01*
X3557857Y-1081429D01*
X3543571Y-1067143D01*
X4015000Y-1095714D02*
X3843571Y-1095714D01*
X3929286Y-1095714D02*
X3929286Y-795714D01*
X3900714Y-838571D01*
X3872143Y-867143D01*
X3843571Y-881428D01*
X4129286Y-795714D02*
X4129286Y-852857D01*
X4243571Y-795714D02*
X4243571Y-852857D01*
X4686429Y-1210000D02*
X4672143Y-1195714D01*
X4643571Y-1152857D01*
X4629286Y-1124286D01*
X4615000Y-1081429D01*
X4600714Y-1010000D01*
X4600714Y-952857D01*
X4615000Y-881428D01*
X4629286Y-838571D01*
X4643571Y-810000D01*
X4672143Y-767143D01*
X4686429Y-752857D01*
X4843571Y-924286D02*
X4815000Y-910000D01*
X4800714Y-895714D01*
X4786429Y-867143D01*
X4786429Y-852857D01*
X4800714Y-824286D01*
X4815000Y-810000D01*
X4843571Y-795714D01*
X4900714Y-795714D01*
X4929286Y-810000D01*
X4943571Y-824286D01*
X4957857Y-852857D01*
X4957857Y-867143D01*
X4943571Y-895714D01*
X4929286Y-910000D01*
X4900714Y-924286D01*
X4843571Y-924286D01*
X4815000Y-938571D01*
X4800714Y-952857D01*
X4786429Y-981428D01*
X4786429Y-1038571D01*
X4800714Y-1067143D01*
X4815000Y-1081429D01*
X4843571Y-1095714D01*
X4900714Y-1095714D01*
X4929286Y-1081429D01*
X4943571Y-1067143D01*
X4957857Y-1038571D01*
X4957857Y-981428D01*
X4943571Y-952857D01*
X4929286Y-938571D01*
X4900714Y-924286D01*
X5315000Y-1095714D02*
X5315000Y-795714D01*
X5443571Y-1095714D02*
X5443571Y-938571D01*
X5429286Y-910000D01*
X5400714Y-895714D01*
X5357857Y-895714D01*
X5329286Y-910000D01*
X5315000Y-924286D01*
X5629286Y-1095714D02*
X5600714Y-1081429D01*
X5586429Y-1067143D01*
X5572143Y-1038571D01*
X5572143Y-952857D01*
X5586429Y-924286D01*
X5600714Y-910000D01*
X5629286Y-895714D01*
X5672143Y-895714D01*
X5700714Y-910000D01*
X5715000Y-924286D01*
X5729286Y-952857D01*
X5729286Y-1038571D01*
X5715000Y-1067143D01*
X5700714Y-1081429D01*
X5672143Y-1095714D01*
X5629286Y-1095714D01*
X5900714Y-1095714D02*
X5872143Y-1081429D01*
X5857857Y-1052857D01*
X5857857Y-795714D01*
X6129286Y-1081429D02*
X6100714Y-1095714D01*
X6043571Y-1095714D01*
X6015000Y-1081429D01*
X6000714Y-1052857D01*
X6000714Y-938571D01*
X6015000Y-910000D01*
X6043571Y-895714D01*
X6100714Y-895714D01*
X6129286Y-910000D01*
X6143571Y-938571D01*
X6143571Y-967143D01*
X6000714Y-995714D01*
X6257857Y-1081429D02*
X6286428Y-1095714D01*
X6343571Y-1095714D01*
X6372143Y-1081429D01*
X6386428Y-1052857D01*
X6386428Y-1038571D01*
X6372143Y-1010000D01*
X6343571Y-995714D01*
X6300714Y-995714D01*
X6272143Y-981428D01*
X6257857Y-952857D01*
X6257857Y-938571D01*
X6272143Y-910000D01*
X6300714Y-895714D01*
X6343571Y-895714D01*
X6372143Y-910000D01*
X6486428Y-1210000D02*
X6500714Y-1195714D01*
X6529286Y-1152857D01*
X6543571Y-1124286D01*
X6557857Y-1081429D01*
X6572143Y-1010000D01*
X6572143Y-952857D01*
X6557857Y-881428D01*
X6543571Y-838571D01*
X6529286Y-810000D01*
X6500714Y-767143D01*
X6486428Y-752857D01*
X0Y-1356000D02*
G75*
G03X0Y-1356000I-50000J0D01*
G01*
X443571Y-1491714D02*
X272143Y-1491714D01*
X357857Y-1491714D02*
X357857Y-1191714D01*
X329286Y-1234571D01*
X300714Y-1263143D01*
X272143Y-1277429D01*
X572143Y-1463143D02*
X586429Y-1477428D01*
X572143Y-1491714D01*
X557857Y-1477428D01*
X572143Y-1463143D01*
X572143Y-1491714D01*
X772143Y-1191714D02*
X800714Y-1191714D01*
X829286Y-1206000D01*
X843571Y-1220286D01*
X857857Y-1248857D01*
X872143Y-1306000D01*
X872143Y-1377429D01*
X857857Y-1434571D01*
X843571Y-1463143D01*
X829286Y-1477428D01*
X800714Y-1491714D01*
X772143Y-1491714D01*
X743571Y-1477428D01*
X729286Y-1463143D01*
X715000Y-1434571D01*
X700714Y-1377429D01*
X700714Y-1306000D01*
X715000Y-1248857D01*
X729286Y-1220286D01*
X743571Y-1206000D01*
X772143Y-1191714D01*
X1057857Y-1191714D02*
X1086429Y-1191714D01*
X1115000Y-1206000D01*
X1129286Y-1220286D01*
X1143571Y-1248857D01*
X1157857Y-1306000D01*
X1157857Y-1377429D01*
X1143571Y-1434571D01*
X1129286Y-1463143D01*
X1115000Y-1477428D01*
X1086429Y-1491714D01*
X1057857Y-1491714D01*
X1029286Y-1477428D01*
X1015000Y-1463143D01*
X1000714Y-1434571D01*
X986428Y-1377429D01*
X986428Y-1306000D01*
X1000714Y-1248857D01*
X1015000Y-1220286D01*
X1029286Y-1206000D01*
X1057857Y-1191714D01*
X1286429Y-1491714D02*
X1286429Y-1291714D01*
X1286429Y-1320286D02*
X1300714Y-1306000D01*
X1329286Y-1291714D01*
X1372143Y-1291714D01*
X1400714Y-1306000D01*
X1415000Y-1334571D01*
X1415000Y-1491714D01*
X1415000Y-1334571D02*
X1429286Y-1306000D01*
X1457857Y-1291714D01*
X1500714Y-1291714D01*
X1529286Y-1306000D01*
X1543571Y-1334571D01*
X1543571Y-1491714D01*
X1686428Y-1491714D02*
X1686428Y-1291714D01*
X1686428Y-1320286D02*
X1700714Y-1306000D01*
X1729286Y-1291714D01*
X1772143Y-1291714D01*
X1800714Y-1306000D01*
X1815000Y-1334571D01*
X1815000Y-1491714D01*
X1815000Y-1334571D02*
X1829286Y-1306000D01*
X1857857Y-1291714D01*
X1900714Y-1291714D01*
X1929286Y-1306000D01*
X1943571Y-1334571D01*
X1943571Y-1491714D01*
X2529286Y-1177429D02*
X2272143Y-1563143D01*
X2915000Y-1191714D02*
X2943571Y-1191714D01*
X2972143Y-1206000D01*
X2986428Y-1220286D01*
X3000714Y-1248857D01*
X3015000Y-1306000D01*
X3015000Y-1377429D01*
X3000714Y-1434571D01*
X2986428Y-1463143D01*
X2972143Y-1477428D01*
X2943571Y-1491714D01*
X2915000Y-1491714D01*
X2886428Y-1477428D01*
X2872143Y-1463143D01*
X2857857Y-1434571D01*
X2843571Y-1377429D01*
X2843571Y-1306000D01*
X2857857Y-1248857D01*
X2872143Y-1220286D01*
X2886428Y-1206000D01*
X2915000Y-1191714D01*
X3143571Y-1463143D02*
X3157857Y-1477428D01*
X3143571Y-1491714D01*
X3129286Y-1477428D01*
X3143571Y-1463143D01*
X3143571Y-1491714D01*
X3343571Y-1191714D02*
X3372143Y-1191714D01*
X3400714Y-1206000D01*
X3415000Y-1220286D01*
X3429286Y-1248857D01*
X3443571Y-1306000D01*
X3443571Y-1377429D01*
X3429286Y-1434571D01*
X3415000Y-1463143D01*
X3400714Y-1477428D01*
X3372143Y-1491714D01*
X3343571Y-1491714D01*
X3315000Y-1477428D01*
X3300714Y-1463143D01*
X3286428Y-1434571D01*
X3272143Y-1377429D01*
X3272143Y-1306000D01*
X3286428Y-1248857D01*
X3300714Y-1220286D01*
X3315000Y-1206000D01*
X3343571Y-1191714D01*
X3543571Y-1191714D02*
X3729286Y-1191714D01*
X3629286Y-1306000D01*
X3672143Y-1306000D01*
X3700714Y-1320286D01*
X3715000Y-1334571D01*
X3729286Y-1363143D01*
X3729286Y-1434571D01*
X3715000Y-1463143D01*
X3700714Y-1477428D01*
X3672143Y-1491714D01*
X3586428Y-1491714D01*
X3557857Y-1477428D01*
X3543571Y-1463143D01*
X3872143Y-1491714D02*
X3929286Y-1491714D01*
X3957857Y-1477428D01*
X3972143Y-1463143D01*
X4000714Y-1420286D01*
X4015000Y-1363143D01*
X4015000Y-1248857D01*
X4000714Y-1220286D01*
X3986428Y-1206000D01*
X3957857Y-1191714D01*
X3900714Y-1191714D01*
X3872143Y-1206000D01*
X3857857Y-1220286D01*
X3843571Y-1248857D01*
X3843571Y-1320286D01*
X3857857Y-1348857D01*
X3872143Y-1363143D01*
X3900714Y-1377429D01*
X3957857Y-1377429D01*
X3986428Y-1363143D01*
X4000714Y-1348857D01*
X4015000Y-1320286D01*
X4129286Y-1191714D02*
X4129286Y-1248857D01*
X4243571Y-1191714D02*
X4243571Y-1248857D01*
X4686429Y-1606000D02*
X4672143Y-1591714D01*
X4643571Y-1548857D01*
X4629286Y-1520286D01*
X4615000Y-1477428D01*
X4600714Y-1406000D01*
X4600714Y-1348857D01*
X4615000Y-1277429D01*
X4629286Y-1234571D01*
X4643571Y-1206000D01*
X4672143Y-1163143D01*
X4686429Y-1148857D01*
X4929286Y-1191714D02*
X4872143Y-1191714D01*
X4843571Y-1206000D01*
X4829286Y-1220286D01*
X4800714Y-1263143D01*
X4786429Y-1320286D01*
X4786429Y-1434571D01*
X4800714Y-1463143D01*
X4815000Y-1477428D01*
X4843571Y-1491714D01*
X4900714Y-1491714D01*
X4929286Y-1477428D01*
X4943571Y-1463143D01*
X4957857Y-1434571D01*
X4957857Y-1363143D01*
X4943571Y-1334571D01*
X4929286Y-1320286D01*
X4900714Y-1306000D01*
X4843571Y-1306000D01*
X4815000Y-1320286D01*
X4800714Y-1334571D01*
X4786429Y-1363143D01*
X5057857Y-1191714D02*
X5243571Y-1191714D01*
X5143571Y-1306000D01*
X5186429Y-1306000D01*
X5215000Y-1320286D01*
X5229286Y-1334571D01*
X5243571Y-1363143D01*
X5243571Y-1434571D01*
X5229286Y-1463143D01*
X5215000Y-1477428D01*
X5186429Y-1491714D01*
X5100714Y-1491714D01*
X5072143Y-1477428D01*
X5057857Y-1463143D01*
X5600714Y-1491714D02*
X5600714Y-1191714D01*
X5729286Y-1491714D02*
X5729286Y-1334571D01*
X5715000Y-1306000D01*
X5686428Y-1291714D01*
X5643571Y-1291714D01*
X5615000Y-1306000D01*
X5600714Y-1320286D01*
X5915000Y-1491714D02*
X5886428Y-1477428D01*
X5872143Y-1463143D01*
X5857857Y-1434571D01*
X5857857Y-1348857D01*
X5872143Y-1320286D01*
X5886428Y-1306000D01*
X5915000Y-1291714D01*
X5957857Y-1291714D01*
X5986428Y-1306000D01*
X6000714Y-1320286D01*
X6015000Y-1348857D01*
X6015000Y-1434571D01*
X6000714Y-1463143D01*
X5986428Y-1477428D01*
X5957857Y-1491714D01*
X5915000Y-1491714D01*
X6186428Y-1491714D02*
X6157857Y-1477428D01*
X6143571Y-1448857D01*
X6143571Y-1191714D01*
X6415000Y-1477428D02*
X6386428Y-1491714D01*
X6329286Y-1491714D01*
X6300714Y-1477428D01*
X6286428Y-1448857D01*
X6286428Y-1334571D01*
X6300714Y-1306000D01*
X6329286Y-1291714D01*
X6386428Y-1291714D01*
X6415000Y-1306000D01*
X6429286Y-1334571D01*
X6429286Y-1363143D01*
X6286428Y-1391714D01*
X6543571Y-1477428D02*
X6572143Y-1491714D01*
X6629286Y-1491714D01*
X6657857Y-1477428D01*
X6672143Y-1448857D01*
X6672143Y-1434571D01*
X6657857Y-1406000D01*
X6629286Y-1391714D01*
X6586428Y-1391714D01*
X6557857Y-1377429D01*
X6543571Y-1348857D01*
X6543571Y-1334571D01*
X6557857Y-1306000D01*
X6586428Y-1291714D01*
X6629286Y-1291714D01*
X6657857Y-1306000D01*
X6772143Y-1606000D02*
X6786428Y-1591714D01*
X6815000Y-1548857D01*
X6829286Y-1520286D01*
X6843571Y-1477428D01*
X6857857Y-1406000D01*
X6857857Y-1348857D01*
X6843571Y-1277429D01*
X6829286Y-1234571D01*
X6815000Y-1206000D01*
X6786428Y-1163143D01*
X6772143Y-1148857D01*
X-75057Y-1676943D02*
X-75057Y-1827057D01*
X-150114Y-1752000D02*
X0Y-1752000D01*
X443571Y-1887714D02*
X272143Y-1887714D01*
X357857Y-1887714D02*
X357857Y-1587714D01*
X329286Y-1630571D01*
X300714Y-1659143D01*
X272143Y-1673428D01*
X572143Y-1859143D02*
X586429Y-1873428D01*
X572143Y-1887714D01*
X557857Y-1873428D01*
X572143Y-1859143D01*
X572143Y-1887714D01*
X857857Y-1587714D02*
X715000Y-1587714D01*
X700714Y-1730571D01*
X715000Y-1716286D01*
X743571Y-1702000D01*
X815000Y-1702000D01*
X843571Y-1716286D01*
X857857Y-1730571D01*
X872143Y-1759143D01*
X872143Y-1830571D01*
X857857Y-1859143D01*
X843571Y-1873428D01*
X815000Y-1887714D01*
X743571Y-1887714D01*
X715000Y-1873428D01*
X700714Y-1859143D01*
X1057857Y-1587714D02*
X1086429Y-1587714D01*
X1115000Y-1602000D01*
X1129286Y-1616286D01*
X1143571Y-1644857D01*
X1157857Y-1702000D01*
X1157857Y-1773428D01*
X1143571Y-1830571D01*
X1129286Y-1859143D01*
X1115000Y-1873428D01*
X1086429Y-1887714D01*
X1057857Y-1887714D01*
X1029286Y-1873428D01*
X1015000Y-1859143D01*
X1000714Y-1830571D01*
X986428Y-1773428D01*
X986428Y-1702000D01*
X1000714Y-1644857D01*
X1015000Y-1616286D01*
X1029286Y-1602000D01*
X1057857Y-1587714D01*
X1286429Y-1887714D02*
X1286429Y-1687714D01*
X1286429Y-1716286D02*
X1300714Y-1702000D01*
X1329286Y-1687714D01*
X1372143Y-1687714D01*
X1400714Y-1702000D01*
X1415000Y-1730571D01*
X1415000Y-1887714D01*
X1415000Y-1730571D02*
X1429286Y-1702000D01*
X1457857Y-1687714D01*
X1500714Y-1687714D01*
X1529286Y-1702000D01*
X1543571Y-1730571D01*
X1543571Y-1887714D01*
X1686428Y-1887714D02*
X1686428Y-1687714D01*
X1686428Y-1716286D02*
X1700714Y-1702000D01*
X1729286Y-1687714D01*
X1772143Y-1687714D01*
X1800714Y-1702000D01*
X1815000Y-1730571D01*
X1815000Y-1887714D01*
X1815000Y-1730571D02*
X1829286Y-1702000D01*
X1857857Y-1687714D01*
X1900714Y-1687714D01*
X1929286Y-1702000D01*
X1943571Y-1730571D01*
X1943571Y-1887714D01*
X2529286Y-1573428D02*
X2272143Y-1959143D01*
X2915000Y-1587714D02*
X2943571Y-1587714D01*
X2972143Y-1602000D01*
X2986428Y-1616286D01*
X3000714Y-1644857D01*
X3015000Y-1702000D01*
X3015000Y-1773428D01*
X3000714Y-1830571D01*
X2986428Y-1859143D01*
X2972143Y-1873428D01*
X2943571Y-1887714D01*
X2915000Y-1887714D01*
X2886428Y-1873428D01*
X2872143Y-1859143D01*
X2857857Y-1830571D01*
X2843571Y-1773428D01*
X2843571Y-1702000D01*
X2857857Y-1644857D01*
X2872143Y-1616286D01*
X2886428Y-1602000D01*
X2915000Y-1587714D01*
X3143571Y-1859143D02*
X3157857Y-1873428D01*
X3143571Y-1887714D01*
X3129286Y-1873428D01*
X3143571Y-1859143D01*
X3143571Y-1887714D01*
X3343571Y-1587714D02*
X3372143Y-1587714D01*
X3400714Y-1602000D01*
X3415000Y-1616286D01*
X3429286Y-1644857D01*
X3443571Y-1702000D01*
X3443571Y-1773428D01*
X3429286Y-1830571D01*
X3415000Y-1859143D01*
X3400714Y-1873428D01*
X3372143Y-1887714D01*
X3343571Y-1887714D01*
X3315000Y-1873428D01*
X3300714Y-1859143D01*
X3286428Y-1830571D01*
X3272143Y-1773428D01*
X3272143Y-1702000D01*
X3286428Y-1644857D01*
X3300714Y-1616286D01*
X3315000Y-1602000D01*
X3343571Y-1587714D01*
X3715000Y-1587714D02*
X3572143Y-1587714D01*
X3557857Y-1730571D01*
X3572143Y-1716286D01*
X3600714Y-1702000D01*
X3672143Y-1702000D01*
X3700714Y-1716286D01*
X3715000Y-1730571D01*
X3729286Y-1759143D01*
X3729286Y-1830571D01*
X3715000Y-1859143D01*
X3700714Y-1873428D01*
X3672143Y-1887714D01*
X3600714Y-1887714D01*
X3572143Y-1873428D01*
X3557857Y-1859143D01*
X3872143Y-1887714D02*
X3929286Y-1887714D01*
X3957857Y-1873428D01*
X3972143Y-1859143D01*
X4000714Y-1816286D01*
X4015000Y-1759143D01*
X4015000Y-1644857D01*
X4000714Y-1616286D01*
X3986428Y-1602000D01*
X3957857Y-1587714D01*
X3900714Y-1587714D01*
X3872143Y-1602000D01*
X3857857Y-1616286D01*
X3843571Y-1644857D01*
X3843571Y-1716286D01*
X3857857Y-1744857D01*
X3872143Y-1759143D01*
X3900714Y-1773428D01*
X3957857Y-1773428D01*
X3986428Y-1759143D01*
X4000714Y-1744857D01*
X4015000Y-1716286D01*
X4129286Y-1587714D02*
X4129286Y-1644857D01*
X4243571Y-1587714D02*
X4243571Y-1644857D01*
X4686429Y-2002000D02*
X4672143Y-1987714D01*
X4643571Y-1944857D01*
X4629286Y-1916286D01*
X4615000Y-1873428D01*
X4600714Y-1802000D01*
X4600714Y-1744857D01*
X4615000Y-1673428D01*
X4629286Y-1630571D01*
X4643571Y-1602000D01*
X4672143Y-1559143D01*
X4686429Y-1544857D01*
X4786429Y-1616286D02*
X4800714Y-1602000D01*
X4829286Y-1587714D01*
X4900714Y-1587714D01*
X4929286Y-1602000D01*
X4943571Y-1616286D01*
X4957857Y-1644857D01*
X4957857Y-1673428D01*
X4943571Y-1716286D01*
X4772143Y-1887714D01*
X4957857Y-1887714D01*
X5315000Y-1887714D02*
X5315000Y-1587714D01*
X5443571Y-1887714D02*
X5443571Y-1730571D01*
X5429286Y-1702000D01*
X5400714Y-1687714D01*
X5357857Y-1687714D01*
X5329286Y-1702000D01*
X5315000Y-1716286D01*
X5629286Y-1887714D02*
X5600714Y-1873428D01*
X5586429Y-1859143D01*
X5572143Y-1830571D01*
X5572143Y-1744857D01*
X5586429Y-1716286D01*
X5600714Y-1702000D01*
X5629286Y-1687714D01*
X5672143Y-1687714D01*
X5700714Y-1702000D01*
X5715000Y-1716286D01*
X5729286Y-1744857D01*
X5729286Y-1830571D01*
X5715000Y-1859143D01*
X5700714Y-1873428D01*
X5672143Y-1887714D01*
X5629286Y-1887714D01*
X5900714Y-1887714D02*
X5872143Y-1873428D01*
X5857857Y-1844857D01*
X5857857Y-1587714D01*
X6129286Y-1873428D02*
X6100714Y-1887714D01*
X6043571Y-1887714D01*
X6015000Y-1873428D01*
X6000714Y-1844857D01*
X6000714Y-1730571D01*
X6015000Y-1702000D01*
X6043571Y-1687714D01*
X6100714Y-1687714D01*
X6129286Y-1702000D01*
X6143571Y-1730571D01*
X6143571Y-1759143D01*
X6000714Y-1787714D01*
X6257857Y-1873428D02*
X6286428Y-1887714D01*
X6343571Y-1887714D01*
X6372143Y-1873428D01*
X6386428Y-1844857D01*
X6386428Y-1830571D01*
X6372143Y-1802000D01*
X6343571Y-1787714D01*
X6300714Y-1787714D01*
X6272143Y-1773428D01*
X6257857Y-1744857D01*
X6257857Y-1730571D01*
X6272143Y-1702000D01*
X6300714Y-1687714D01*
X6343571Y-1687714D01*
X6372143Y-1702000D01*
X6486428Y-2002000D02*
X6500714Y-1987714D01*
X6529286Y-1944857D01*
X6543571Y-1916286D01*
X6557857Y-1873428D01*
X6572143Y-1802000D01*
X6572143Y-1744857D01*
X6557857Y-1673428D01*
X6543571Y-1630571D01*
X6529286Y-1602000D01*
X6500714Y-1559143D01*
X6486428Y-1544857D01*
X-43933Y-2254067D02*
X-43933Y-2041933D01*
X-256067Y-2041933D01*
X-256067Y-2254067D01*
X-43933Y-2254067D01*
X257857Y-1983714D02*
X443571Y-1983714D01*
X343571Y-2098000D01*
X386428Y-2098000D01*
X415000Y-2112286D01*
X429286Y-2126571D01*
X443571Y-2155143D01*
X443571Y-2226571D01*
X429286Y-2255143D01*
X415000Y-2269429D01*
X386428Y-2283714D01*
X300714Y-2283714D01*
X272143Y-2269429D01*
X257857Y-2255143D01*
X572143Y-2255143D02*
X586429Y-2269429D01*
X572143Y-2283714D01*
X557857Y-2269429D01*
X572143Y-2255143D01*
X572143Y-2283714D01*
X772143Y-1983714D02*
X800714Y-1983714D01*
X829286Y-1998000D01*
X843571Y-2012286D01*
X857857Y-2040857D01*
X872143Y-2098000D01*
X872143Y-2169429D01*
X857857Y-2226571D01*
X843571Y-2255143D01*
X829286Y-2269429D01*
X800714Y-2283714D01*
X772143Y-2283714D01*
X743571Y-2269429D01*
X729286Y-2255143D01*
X715000Y-2226571D01*
X700714Y-2169429D01*
X700714Y-2098000D01*
X715000Y-2040857D01*
X729286Y-2012286D01*
X743571Y-1998000D01*
X772143Y-1983714D01*
X1057857Y-1983714D02*
X1086429Y-1983714D01*
X1115000Y-1998000D01*
X1129286Y-2012286D01*
X1143571Y-2040857D01*
X1157857Y-2098000D01*
X1157857Y-2169429D01*
X1143571Y-2226571D01*
X1129286Y-2255143D01*
X1115000Y-2269429D01*
X1086429Y-2283714D01*
X1057857Y-2283714D01*
X1029286Y-2269429D01*
X1015000Y-2255143D01*
X1000714Y-2226571D01*
X986428Y-2169429D01*
X986428Y-2098000D01*
X1000714Y-2040857D01*
X1015000Y-2012286D01*
X1029286Y-1998000D01*
X1057857Y-1983714D01*
X1286429Y-2283714D02*
X1286429Y-2083714D01*
X1286429Y-2112286D02*
X1300714Y-2098000D01*
X1329286Y-2083714D01*
X1372143Y-2083714D01*
X1400714Y-2098000D01*
X1415000Y-2126571D01*
X1415000Y-2283714D01*
X1415000Y-2126571D02*
X1429286Y-2098000D01*
X1457857Y-2083714D01*
X1500714Y-2083714D01*
X1529286Y-2098000D01*
X1543571Y-2126571D01*
X1543571Y-2283714D01*
X1686428Y-2283714D02*
X1686428Y-2083714D01*
X1686428Y-2112286D02*
X1700714Y-2098000D01*
X1729286Y-2083714D01*
X1772143Y-2083714D01*
X1800714Y-2098000D01*
X1815000Y-2126571D01*
X1815000Y-2283714D01*
X1815000Y-2126571D02*
X1829286Y-2098000D01*
X1857857Y-2083714D01*
X1900714Y-2083714D01*
X1929286Y-2098000D01*
X1943571Y-2126571D01*
X1943571Y-2283714D01*
X2529286Y-1969428D02*
X2272143Y-2355143D01*
X2915000Y-1983714D02*
X2943571Y-1983714D01*
X2972143Y-1998000D01*
X2986428Y-2012286D01*
X3000714Y-2040857D01*
X3015000Y-2098000D01*
X3015000Y-2169429D01*
X3000714Y-2226571D01*
X2986428Y-2255143D01*
X2972143Y-2269429D01*
X2943571Y-2283714D01*
X2915000Y-2283714D01*
X2886428Y-2269429D01*
X2872143Y-2255143D01*
X2857857Y-2226571D01*
X2843571Y-2169429D01*
X2843571Y-2098000D01*
X2857857Y-2040857D01*
X2872143Y-2012286D01*
X2886428Y-1998000D01*
X2915000Y-1983714D01*
X3143571Y-2255143D02*
X3157857Y-2269429D01*
X3143571Y-2283714D01*
X3129286Y-2269429D01*
X3143571Y-2255143D01*
X3143571Y-2283714D01*
X3443571Y-2283714D02*
X3272143Y-2283714D01*
X3357857Y-2283714D02*
X3357857Y-1983714D01*
X3329286Y-2026571D01*
X3300714Y-2055143D01*
X3272143Y-2069428D01*
X3729286Y-2283714D02*
X3557857Y-2283714D01*
X3643571Y-2283714D02*
X3643571Y-1983714D01*
X3615000Y-2026571D01*
X3586428Y-2055143D01*
X3557857Y-2069428D01*
X3900714Y-2112286D02*
X3872143Y-2098000D01*
X3857857Y-2083714D01*
X3843571Y-2055143D01*
X3843571Y-2040857D01*
X3857857Y-2012286D01*
X3872143Y-1998000D01*
X3900714Y-1983714D01*
X3957857Y-1983714D01*
X3986428Y-1998000D01*
X4000714Y-2012286D01*
X4015000Y-2040857D01*
X4015000Y-2055143D01*
X4000714Y-2083714D01*
X3986428Y-2098000D01*
X3957857Y-2112286D01*
X3900714Y-2112286D01*
X3872143Y-2126571D01*
X3857857Y-2140857D01*
X3843571Y-2169429D01*
X3843571Y-2226571D01*
X3857857Y-2255143D01*
X3872143Y-2269429D01*
X3900714Y-2283714D01*
X3957857Y-2283714D01*
X3986428Y-2269429D01*
X4000714Y-2255143D01*
X4015000Y-2226571D01*
X4015000Y-2169429D01*
X4000714Y-2140857D01*
X3986428Y-2126571D01*
X3957857Y-2112286D01*
X4129286Y-1983714D02*
X4129286Y-2040857D01*
X4243571Y-1983714D02*
X4243571Y-2040857D01*
X4686429Y-2398000D02*
X4672143Y-2383714D01*
X4643571Y-2340857D01*
X4629286Y-2312286D01*
X4615000Y-2269429D01*
X4600714Y-2198000D01*
X4600714Y-2140857D01*
X4615000Y-2069428D01*
X4629286Y-2026571D01*
X4643571Y-1998000D01*
X4672143Y-1955143D01*
X4686429Y-1940857D01*
X4929286Y-2083714D02*
X4929286Y-2283714D01*
X4857857Y-1969428D02*
X4786429Y-2183714D01*
X4972143Y-2183714D01*
X5315000Y-2283714D02*
X5315000Y-1983714D01*
X5443571Y-2283714D02*
X5443571Y-2126571D01*
X5429286Y-2098000D01*
X5400714Y-2083714D01*
X5357857Y-2083714D01*
X5329286Y-2098000D01*
X5315000Y-2112286D01*
X5629286Y-2283714D02*
X5600714Y-2269429D01*
X5586429Y-2255143D01*
X5572143Y-2226571D01*
X5572143Y-2140857D01*
X5586429Y-2112286D01*
X5600714Y-2098000D01*
X5629286Y-2083714D01*
X5672143Y-2083714D01*
X5700714Y-2098000D01*
X5715000Y-2112286D01*
X5729286Y-2140857D01*
X5729286Y-2226571D01*
X5715000Y-2255143D01*
X5700714Y-2269429D01*
X5672143Y-2283714D01*
X5629286Y-2283714D01*
X5900714Y-2283714D02*
X5872143Y-2269429D01*
X5857857Y-2240857D01*
X5857857Y-1983714D01*
X6129286Y-2269429D02*
X6100714Y-2283714D01*
X6043571Y-2283714D01*
X6015000Y-2269429D01*
X6000714Y-2240857D01*
X6000714Y-2126571D01*
X6015000Y-2098000D01*
X6043571Y-2083714D01*
X6100714Y-2083714D01*
X6129286Y-2098000D01*
X6143571Y-2126571D01*
X6143571Y-2155143D01*
X6000714Y-2183714D01*
X6257857Y-2269429D02*
X6286428Y-2283714D01*
X6343571Y-2283714D01*
X6372143Y-2269429D01*
X6386428Y-2240857D01*
X6386428Y-2226571D01*
X6372143Y-2198000D01*
X6343571Y-2183714D01*
X6300714Y-2183714D01*
X6272143Y-2169429D01*
X6257857Y-2140857D01*
X6257857Y-2126571D01*
X6272143Y-2098000D01*
X6300714Y-2083714D01*
X6343571Y-2083714D01*
X6372143Y-2098000D01*
X6486428Y-2398000D02*
X6500714Y-2383714D01*
X6529286Y-2340857D01*
X6543571Y-2312286D01*
X6557857Y-2269429D01*
X6572143Y-2198000D01*
X6572143Y-2140857D01*
X6557857Y-2069428D01*
X6543571Y-2026571D01*
X6529286Y-1998000D01*
X6500714Y-1955143D01*
X6486428Y-1940857D01*
X7029286Y-2398000D02*
X7015000Y-2383714D01*
X6986428Y-2340857D01*
X6972143Y-2312286D01*
X6957857Y-2269429D01*
X6943571Y-2198000D01*
X6943571Y-2140857D01*
X6957857Y-2069428D01*
X6972143Y-2026571D01*
X6986428Y-1998000D01*
X7015000Y-1955143D01*
X7029286Y-1940857D01*
X7143571Y-2083714D02*
X7143571Y-2283714D01*
X7143571Y-2112286D02*
X7157857Y-2098000D01*
X7186428Y-2083714D01*
X7229286Y-2083714D01*
X7257857Y-2098000D01*
X7272143Y-2126571D01*
X7272143Y-2283714D01*
X7457857Y-2283714D02*
X7429286Y-2269429D01*
X7415000Y-2255143D01*
X7400714Y-2226571D01*
X7400714Y-2140857D01*
X7415000Y-2112286D01*
X7429286Y-2098000D01*
X7457857Y-2083714D01*
X7500714Y-2083714D01*
X7529286Y-2098000D01*
X7543571Y-2112286D01*
X7557857Y-2140857D01*
X7557857Y-2226571D01*
X7543571Y-2255143D01*
X7529286Y-2269429D01*
X7500714Y-2283714D01*
X7457857Y-2283714D01*
X7643571Y-2083714D02*
X7757857Y-2083714D01*
X7686428Y-1983714D02*
X7686428Y-2240857D01*
X7700714Y-2269429D01*
X7729286Y-2283714D01*
X7757857Y-2283714D01*
X8086428Y-2083714D02*
X8086428Y-2383714D01*
X8086428Y-2098000D02*
X8115000Y-2083714D01*
X8172143Y-2083714D01*
X8200714Y-2098000D01*
X8215000Y-2112286D01*
X8229286Y-2140857D01*
X8229286Y-2226571D01*
X8215000Y-2255143D01*
X8200714Y-2269429D01*
X8172143Y-2283714D01*
X8115000Y-2283714D01*
X8086428Y-2269429D01*
X8400714Y-2283714D02*
X8372143Y-2269429D01*
X8357857Y-2240857D01*
X8357857Y-1983714D01*
X8643571Y-2283714D02*
X8643571Y-2126571D01*
X8629286Y-2098000D01*
X8600714Y-2083714D01*
X8543571Y-2083714D01*
X8515000Y-2098000D01*
X8643571Y-2269429D02*
X8615000Y-2283714D01*
X8543571Y-2283714D01*
X8515000Y-2269429D01*
X8500714Y-2240857D01*
X8500714Y-2212286D01*
X8515000Y-2183714D01*
X8543571Y-2169429D01*
X8615000Y-2169429D01*
X8643571Y-2155143D01*
X8743571Y-2083714D02*
X8857857Y-2083714D01*
X8786429Y-1983714D02*
X8786429Y-2240857D01*
X8800714Y-2269429D01*
X8829286Y-2283714D01*
X8857857Y-2283714D01*
X9072143Y-2269429D02*
X9043571Y-2283714D01*
X8986429Y-2283714D01*
X8957857Y-2269429D01*
X8943571Y-2240857D01*
X8943571Y-2126571D01*
X8957857Y-2098000D01*
X8986429Y-2083714D01*
X9043571Y-2083714D01*
X9072143Y-2098000D01*
X9086429Y-2126571D01*
X9086429Y-2155143D01*
X8943571Y-2183714D01*
X9343571Y-2283714D02*
X9343571Y-1983714D01*
X9343571Y-2269429D02*
X9315000Y-2283714D01*
X9257857Y-2283714D01*
X9229286Y-2269429D01*
X9215000Y-2255143D01*
X9200714Y-2226571D01*
X9200714Y-2140857D01*
X9215000Y-2112286D01*
X9229286Y-2098000D01*
X9257857Y-2083714D01*
X9315000Y-2083714D01*
X9343571Y-2098000D01*
X9457857Y-2398000D02*
X9472143Y-2383714D01*
X9500714Y-2340857D01*
X9515000Y-2312286D01*
X9529286Y-2269429D01*
X9543571Y-2198000D01*
X9543571Y-2140857D01*
X9529286Y-2069428D01*
X9515000Y-2026571D01*
X9500714Y-1998000D01*
X9472143Y-1955143D01*
X9457857Y-1940857D01*
M02*
