%TF.GenerationSoftware,KiCad,Pcbnew,(5.1.2)-1*%
%TF.CreationDate,2019-05-13T01:00:18+02:00*%
%TF.ProjectId,main,6d61696e-2e6b-4696-9361-645f70636258,rev?*%
%TF.SameCoordinates,Original*%
%TF.FileFunction,Copper,L2,Bot*%
%TF.FilePolarity,Positive*%
%FSLAX46Y46*%
G04 Gerber Fmt 4.6, Leading zero omitted, Abs format (unit mm)*
G04 Created by KiCad (PCBNEW (5.1.2)-1) date 2019-05-13 01:00:18*
%MOMM*%
%LPD*%
G04 APERTURE LIST*
%ADD10C,0.750000*%
%ADD11C,1.750000*%
%ADD12O,2.600000X2.600000*%
%ADD13C,2.600000*%
%ADD14C,5.600000*%
%ADD15C,0.100000*%
%ADD16C,2.000000*%
%ADD17C,3.500000*%
%ADD18C,3.500120*%
%ADD19C,2.000000*%
%ADD20C,1.200000*%
G04 APERTURE END LIST*
D10*
X183751428Y-49072142D02*
X182037142Y-49072142D01*
X182894285Y-52072142D02*
X182894285Y-49072142D01*
X179894285Y-51929285D02*
X180180000Y-52072142D01*
X180751428Y-52072142D01*
X181037142Y-51929285D01*
X181180000Y-51643571D01*
X181180000Y-50500714D01*
X181037142Y-50215000D01*
X180751428Y-50072142D01*
X180180000Y-50072142D01*
X179894285Y-50215000D01*
X179751428Y-50500714D01*
X179751428Y-50786428D01*
X181180000Y-51072142D01*
X178608571Y-51929285D02*
X178322857Y-52072142D01*
X177751428Y-52072142D01*
X177465714Y-51929285D01*
X177322857Y-51643571D01*
X177322857Y-51500714D01*
X177465714Y-51215000D01*
X177751428Y-51072142D01*
X178180000Y-51072142D01*
X178465714Y-50929285D01*
X178608571Y-50643571D01*
X178608571Y-50500714D01*
X178465714Y-50215000D01*
X178180000Y-50072142D01*
X177751428Y-50072142D01*
X177465714Y-50215000D01*
X176465714Y-50072142D02*
X175322857Y-50072142D01*
X176037142Y-49072142D02*
X176037142Y-51643571D01*
X175894285Y-51929285D01*
X175608571Y-52072142D01*
X175322857Y-52072142D01*
X173037142Y-52072142D02*
X173037142Y-50500714D01*
X173180000Y-50215000D01*
X173465714Y-50072142D01*
X174037142Y-50072142D01*
X174322857Y-50215000D01*
X173037142Y-51929285D02*
X173322857Y-52072142D01*
X174037142Y-52072142D01*
X174322857Y-51929285D01*
X174465714Y-51643571D01*
X174465714Y-51357857D01*
X174322857Y-51072142D01*
X174037142Y-50929285D01*
X173322857Y-50929285D01*
X173037142Y-50786428D01*
X169322857Y-52072142D02*
X169322857Y-49072142D01*
X168322857Y-51215000D01*
X167322857Y-49072142D01*
X167322857Y-52072142D01*
X164608571Y-52072142D02*
X164608571Y-50500714D01*
X164751428Y-50215000D01*
X165037142Y-50072142D01*
X165608571Y-50072142D01*
X165894285Y-50215000D01*
X164608571Y-51929285D02*
X164894285Y-52072142D01*
X165608571Y-52072142D01*
X165894285Y-51929285D01*
X166037142Y-51643571D01*
X166037142Y-51357857D01*
X165894285Y-51072142D01*
X165608571Y-50929285D01*
X164894285Y-50929285D01*
X164608571Y-50786428D01*
X163608571Y-50072142D02*
X162465714Y-50072142D01*
X163180000Y-49072142D02*
X163180000Y-51643571D01*
X163037142Y-51929285D01*
X162751428Y-52072142D01*
X162465714Y-52072142D01*
X161894285Y-50072142D02*
X160751428Y-50072142D01*
X161465714Y-49072142D02*
X161465714Y-51643571D01*
X161322857Y-51929285D01*
X161037142Y-52072142D01*
X160751428Y-52072142D01*
X159751428Y-52072142D02*
X159751428Y-50072142D01*
X159751428Y-49072142D02*
X159894285Y-49215000D01*
X159751428Y-49357857D01*
X159608571Y-49215000D01*
X159751428Y-49072142D01*
X159751428Y-49357857D01*
X157037142Y-52072142D02*
X157037142Y-50500714D01*
X157180000Y-50215000D01*
X157465714Y-50072142D01*
X158037142Y-50072142D01*
X158322857Y-50215000D01*
X157037142Y-51929285D02*
X157322857Y-52072142D01*
X158037142Y-52072142D01*
X158322857Y-51929285D01*
X158465714Y-51643571D01*
X158465714Y-51357857D01*
X158322857Y-51072142D01*
X158037142Y-50929285D01*
X157322857Y-50929285D01*
X157037142Y-50786428D01*
X185322857Y-54465000D02*
X185608571Y-54322142D01*
X186037142Y-54322142D01*
X186465714Y-54465000D01*
X186751428Y-54750714D01*
X186894285Y-55036428D01*
X187037142Y-55607857D01*
X187037142Y-56036428D01*
X186894285Y-56607857D01*
X186751428Y-56893571D01*
X186465714Y-57179285D01*
X186037142Y-57322142D01*
X185751428Y-57322142D01*
X185322857Y-57179285D01*
X185180000Y-57036428D01*
X185180000Y-56036428D01*
X185751428Y-56036428D01*
X182751428Y-57179285D02*
X183037142Y-57322142D01*
X183608571Y-57322142D01*
X183894285Y-57179285D01*
X184037142Y-56893571D01*
X184037142Y-55750714D01*
X183894285Y-55465000D01*
X183608571Y-55322142D01*
X183037142Y-55322142D01*
X182751428Y-55465000D01*
X182608571Y-55750714D01*
X182608571Y-56036428D01*
X184037142Y-56322142D01*
X181322857Y-55322142D02*
X181322857Y-57322142D01*
X181322857Y-55607857D02*
X181180000Y-55465000D01*
X180894285Y-55322142D01*
X180465714Y-55322142D01*
X180180000Y-55465000D01*
X180037142Y-55750714D01*
X180037142Y-57322142D01*
X179037142Y-55322142D02*
X177894285Y-55322142D01*
X178608571Y-54322142D02*
X178608571Y-56893571D01*
X178465714Y-57179285D01*
X178180000Y-57322142D01*
X177894285Y-57322142D01*
X176894285Y-57322142D02*
X176894285Y-55322142D01*
X176894285Y-54322142D02*
X177037142Y-54465000D01*
X176894285Y-54607857D01*
X176751428Y-54465000D01*
X176894285Y-54322142D01*
X176894285Y-54607857D01*
X175037142Y-57322142D02*
X175322857Y-57179285D01*
X175465714Y-56893571D01*
X175465714Y-54322142D01*
X172751428Y-57179285D02*
X173037142Y-57322142D01*
X173608571Y-57322142D01*
X173894285Y-57179285D01*
X174037142Y-56893571D01*
X174037142Y-55750714D01*
X173894285Y-55465000D01*
X173608571Y-55322142D01*
X173037142Y-55322142D01*
X172751428Y-55465000D01*
X172608571Y-55750714D01*
X172608571Y-56036428D01*
X174037142Y-56322142D01*
X169037142Y-57322142D02*
X169037142Y-54322142D01*
X168037142Y-56465000D01*
X167037142Y-54322142D01*
X167037142Y-57322142D01*
X165608571Y-57322142D02*
X165608571Y-55322142D01*
X165608571Y-54322142D02*
X165751428Y-54465000D01*
X165608571Y-54607857D01*
X165465714Y-54465000D01*
X165608571Y-54322142D01*
X165608571Y-54607857D01*
X162894285Y-57179285D02*
X163180000Y-57322142D01*
X163751428Y-57322142D01*
X164037142Y-57179285D01*
X164180000Y-57036428D01*
X164322857Y-56750714D01*
X164322857Y-55893571D01*
X164180000Y-55607857D01*
X164037142Y-55465000D01*
X163751428Y-55322142D01*
X163180000Y-55322142D01*
X162894285Y-55465000D01*
X161608571Y-57322142D02*
X161608571Y-54322142D01*
X160322857Y-57322142D02*
X160322857Y-55750714D01*
X160465714Y-55465000D01*
X160751428Y-55322142D01*
X161180000Y-55322142D01*
X161465714Y-55465000D01*
X161608571Y-55607857D01*
X157608571Y-57322142D02*
X157608571Y-55750714D01*
X157751428Y-55465000D01*
X158037142Y-55322142D01*
X158608571Y-55322142D01*
X158894285Y-55465000D01*
X157608571Y-57179285D02*
X157894285Y-57322142D01*
X158608571Y-57322142D01*
X158894285Y-57179285D01*
X159037142Y-56893571D01*
X159037142Y-56607857D01*
X158894285Y-56322142D01*
X158608571Y-56179285D01*
X157894285Y-56179285D01*
X157608571Y-56036428D01*
X155037142Y-57179285D02*
X155322857Y-57322142D01*
X155894285Y-57322142D01*
X156180000Y-57179285D01*
X156322857Y-56893571D01*
X156322857Y-55750714D01*
X156180000Y-55465000D01*
X155894285Y-55322142D01*
X155322857Y-55322142D01*
X155037142Y-55465000D01*
X154894285Y-55750714D01*
X154894285Y-56036428D01*
X156322857Y-56322142D01*
X153180000Y-57322142D02*
X153465714Y-57179285D01*
X153608571Y-56893571D01*
X153608571Y-54322142D01*
D11*
X243162723Y-102846666D02*
X237448437Y-102846666D01*
X241180580Y-109846666D02*
X240305580Y-102846666D01*
X234531770Y-106180000D02*
X231198437Y-106180000D01*
X230228199Y-109846666D02*
X234990104Y-109846666D01*
X234115104Y-102846666D01*
X229353199Y-102846666D01*
X220144866Y-109180000D02*
X220662723Y-109513333D01*
X222132961Y-109846666D01*
X223085342Y-109846666D01*
X224472247Y-109513333D01*
X225341294Y-108846666D01*
X225734151Y-108180000D01*
X226043675Y-106846666D01*
X225918675Y-105846666D01*
X225275818Y-104513333D01*
X224716294Y-103846666D01*
X223680580Y-103180000D01*
X222210342Y-102846666D01*
X221257961Y-102846666D01*
X219871056Y-103180000D01*
X219436532Y-103513333D01*
X215942485Y-109846666D02*
X215067485Y-102846666D01*
X215484151Y-106180000D02*
X209769866Y-106180000D01*
X210228199Y-109846666D02*
X209353199Y-102846666D01*
X205466294Y-109846666D02*
X204591294Y-102846666D01*
X199752008Y-109846666D01*
X198877008Y-102846666D01*
X194531770Y-106180000D02*
X191198437Y-106180000D01*
X190228199Y-109846666D02*
X194990104Y-109846666D01*
X194115104Y-102846666D01*
X189353199Y-102846666D01*
D12*
X180340000Y-104140000D03*
X180340000Y-99060000D03*
X175260000Y-104140000D03*
X175260000Y-99060000D03*
X170180000Y-104140000D03*
D13*
X170180000Y-99060000D03*
D14*
X250190000Y-106680000D03*
X250190000Y-45720000D03*
X149860000Y-106680000D03*
X149860000Y-45720000D03*
D15*
G36*
X252182009Y-62629408D02*
G01*
X252230545Y-62636607D01*
X252278142Y-62648530D01*
X252324342Y-62665060D01*
X252368698Y-62686039D01*
X252410785Y-62711265D01*
X252450197Y-62740495D01*
X252486553Y-62773447D01*
X252519505Y-62809803D01*
X252548735Y-62849215D01*
X252573961Y-62891302D01*
X252594940Y-62935658D01*
X252611470Y-62981858D01*
X252623393Y-63029455D01*
X252630592Y-63077991D01*
X252633000Y-63127000D01*
X252633000Y-64127000D01*
X252630592Y-64176009D01*
X252623393Y-64224545D01*
X252611470Y-64272142D01*
X252594940Y-64318342D01*
X252573961Y-64362698D01*
X252548735Y-64404785D01*
X252519505Y-64444197D01*
X252486553Y-64480553D01*
X252450197Y-64513505D01*
X252410785Y-64542735D01*
X252368698Y-64567961D01*
X252324342Y-64588940D01*
X252278142Y-64605470D01*
X252230545Y-64617393D01*
X252182009Y-64624592D01*
X252133000Y-64627000D01*
X250533000Y-64627000D01*
X250483991Y-64624592D01*
X250435455Y-64617393D01*
X250387858Y-64605470D01*
X250341658Y-64588940D01*
X250297302Y-64567961D01*
X250255215Y-64542735D01*
X250215803Y-64513505D01*
X250179447Y-64480553D01*
X250146495Y-64444197D01*
X250117265Y-64404785D01*
X250092039Y-64362698D01*
X250071060Y-64318342D01*
X250054530Y-64272142D01*
X250042607Y-64224545D01*
X250035408Y-64176009D01*
X250033000Y-64127000D01*
X250033000Y-63127000D01*
X250035408Y-63077991D01*
X250042607Y-63029455D01*
X250054530Y-62981858D01*
X250071060Y-62935658D01*
X250092039Y-62891302D01*
X250117265Y-62849215D01*
X250146495Y-62809803D01*
X250179447Y-62773447D01*
X250215803Y-62740495D01*
X250255215Y-62711265D01*
X250297302Y-62686039D01*
X250341658Y-62665060D01*
X250387858Y-62648530D01*
X250435455Y-62636607D01*
X250483991Y-62629408D01*
X250533000Y-62627000D01*
X252133000Y-62627000D01*
X252182009Y-62629408D01*
X252182009Y-62629408D01*
G37*
D16*
X251333000Y-63627000D03*
D15*
G36*
X252182009Y-60089408D02*
G01*
X252230545Y-60096607D01*
X252278142Y-60108530D01*
X252324342Y-60125060D01*
X252368698Y-60146039D01*
X252410785Y-60171265D01*
X252450197Y-60200495D01*
X252486553Y-60233447D01*
X252519505Y-60269803D01*
X252548735Y-60309215D01*
X252573961Y-60351302D01*
X252594940Y-60395658D01*
X252611470Y-60441858D01*
X252623393Y-60489455D01*
X252630592Y-60537991D01*
X252633000Y-60587000D01*
X252633000Y-61587000D01*
X252630592Y-61636009D01*
X252623393Y-61684545D01*
X252611470Y-61732142D01*
X252594940Y-61778342D01*
X252573961Y-61822698D01*
X252548735Y-61864785D01*
X252519505Y-61904197D01*
X252486553Y-61940553D01*
X252450197Y-61973505D01*
X252410785Y-62002735D01*
X252368698Y-62027961D01*
X252324342Y-62048940D01*
X252278142Y-62065470D01*
X252230545Y-62077393D01*
X252182009Y-62084592D01*
X252133000Y-62087000D01*
X250533000Y-62087000D01*
X250483991Y-62084592D01*
X250435455Y-62077393D01*
X250387858Y-62065470D01*
X250341658Y-62048940D01*
X250297302Y-62027961D01*
X250255215Y-62002735D01*
X250215803Y-61973505D01*
X250179447Y-61940553D01*
X250146495Y-61904197D01*
X250117265Y-61864785D01*
X250092039Y-61822698D01*
X250071060Y-61778342D01*
X250054530Y-61732142D01*
X250042607Y-61684545D01*
X250035408Y-61636009D01*
X250033000Y-61587000D01*
X250033000Y-60587000D01*
X250035408Y-60537991D01*
X250042607Y-60489455D01*
X250054530Y-60441858D01*
X250071060Y-60395658D01*
X250092039Y-60351302D01*
X250117265Y-60309215D01*
X250146495Y-60269803D01*
X250179447Y-60233447D01*
X250215803Y-60200495D01*
X250255215Y-60171265D01*
X250297302Y-60146039D01*
X250341658Y-60125060D01*
X250387858Y-60108530D01*
X250435455Y-60096607D01*
X250483991Y-60089408D01*
X250533000Y-60087000D01*
X252133000Y-60087000D01*
X252182009Y-60089408D01*
X252182009Y-60089408D01*
G37*
D16*
X251333000Y-61087000D03*
D15*
G36*
X252182009Y-57549408D02*
G01*
X252230545Y-57556607D01*
X252278142Y-57568530D01*
X252324342Y-57585060D01*
X252368698Y-57606039D01*
X252410785Y-57631265D01*
X252450197Y-57660495D01*
X252486553Y-57693447D01*
X252519505Y-57729803D01*
X252548735Y-57769215D01*
X252573961Y-57811302D01*
X252594940Y-57855658D01*
X252611470Y-57901858D01*
X252623393Y-57949455D01*
X252630592Y-57997991D01*
X252633000Y-58047000D01*
X252633000Y-59047000D01*
X252630592Y-59096009D01*
X252623393Y-59144545D01*
X252611470Y-59192142D01*
X252594940Y-59238342D01*
X252573961Y-59282698D01*
X252548735Y-59324785D01*
X252519505Y-59364197D01*
X252486553Y-59400553D01*
X252450197Y-59433505D01*
X252410785Y-59462735D01*
X252368698Y-59487961D01*
X252324342Y-59508940D01*
X252278142Y-59525470D01*
X252230545Y-59537393D01*
X252182009Y-59544592D01*
X252133000Y-59547000D01*
X250533000Y-59547000D01*
X250483991Y-59544592D01*
X250435455Y-59537393D01*
X250387858Y-59525470D01*
X250341658Y-59508940D01*
X250297302Y-59487961D01*
X250255215Y-59462735D01*
X250215803Y-59433505D01*
X250179447Y-59400553D01*
X250146495Y-59364197D01*
X250117265Y-59324785D01*
X250092039Y-59282698D01*
X250071060Y-59238342D01*
X250054530Y-59192142D01*
X250042607Y-59144545D01*
X250035408Y-59096009D01*
X250033000Y-59047000D01*
X250033000Y-58047000D01*
X250035408Y-57997991D01*
X250042607Y-57949455D01*
X250054530Y-57901858D01*
X250071060Y-57855658D01*
X250092039Y-57811302D01*
X250117265Y-57769215D01*
X250146495Y-57729803D01*
X250179447Y-57693447D01*
X250215803Y-57660495D01*
X250255215Y-57631265D01*
X250297302Y-57606039D01*
X250341658Y-57585060D01*
X250387858Y-57568530D01*
X250435455Y-57556607D01*
X250483991Y-57549408D01*
X250533000Y-57547000D01*
X252133000Y-57547000D01*
X252182009Y-57549408D01*
X252182009Y-57549408D01*
G37*
D16*
X251333000Y-58547000D03*
D15*
G36*
X252182009Y-55009408D02*
G01*
X252230545Y-55016607D01*
X252278142Y-55028530D01*
X252324342Y-55045060D01*
X252368698Y-55066039D01*
X252410785Y-55091265D01*
X252450197Y-55120495D01*
X252486553Y-55153447D01*
X252519505Y-55189803D01*
X252548735Y-55229215D01*
X252573961Y-55271302D01*
X252594940Y-55315658D01*
X252611470Y-55361858D01*
X252623393Y-55409455D01*
X252630592Y-55457991D01*
X252633000Y-55507000D01*
X252633000Y-56507000D01*
X252630592Y-56556009D01*
X252623393Y-56604545D01*
X252611470Y-56652142D01*
X252594940Y-56698342D01*
X252573961Y-56742698D01*
X252548735Y-56784785D01*
X252519505Y-56824197D01*
X252486553Y-56860553D01*
X252450197Y-56893505D01*
X252410785Y-56922735D01*
X252368698Y-56947961D01*
X252324342Y-56968940D01*
X252278142Y-56985470D01*
X252230545Y-56997393D01*
X252182009Y-57004592D01*
X252133000Y-57007000D01*
X250533000Y-57007000D01*
X250483991Y-57004592D01*
X250435455Y-56997393D01*
X250387858Y-56985470D01*
X250341658Y-56968940D01*
X250297302Y-56947961D01*
X250255215Y-56922735D01*
X250215803Y-56893505D01*
X250179447Y-56860553D01*
X250146495Y-56824197D01*
X250117265Y-56784785D01*
X250092039Y-56742698D01*
X250071060Y-56698342D01*
X250054530Y-56652142D01*
X250042607Y-56604545D01*
X250035408Y-56556009D01*
X250033000Y-56507000D01*
X250033000Y-55507000D01*
X250035408Y-55457991D01*
X250042607Y-55409455D01*
X250054530Y-55361858D01*
X250071060Y-55315658D01*
X250092039Y-55271302D01*
X250117265Y-55229215D01*
X250146495Y-55189803D01*
X250179447Y-55153447D01*
X250215803Y-55120495D01*
X250255215Y-55091265D01*
X250297302Y-55066039D01*
X250341658Y-55045060D01*
X250387858Y-55028530D01*
X250435455Y-55016607D01*
X250483991Y-55009408D01*
X250533000Y-55007000D01*
X252133000Y-55007000D01*
X252182009Y-55009408D01*
X252182009Y-55009408D01*
G37*
D16*
X251333000Y-56007000D03*
D15*
G36*
X256782009Y-62629408D02*
G01*
X256830545Y-62636607D01*
X256878142Y-62648530D01*
X256924342Y-62665060D01*
X256968698Y-62686039D01*
X257010785Y-62711265D01*
X257050197Y-62740495D01*
X257086553Y-62773447D01*
X257119505Y-62809803D01*
X257148735Y-62849215D01*
X257173961Y-62891302D01*
X257194940Y-62935658D01*
X257211470Y-62981858D01*
X257223393Y-63029455D01*
X257230592Y-63077991D01*
X257233000Y-63127000D01*
X257233000Y-64127000D01*
X257230592Y-64176009D01*
X257223393Y-64224545D01*
X257211470Y-64272142D01*
X257194940Y-64318342D01*
X257173961Y-64362698D01*
X257148735Y-64404785D01*
X257119505Y-64444197D01*
X257086553Y-64480553D01*
X257050197Y-64513505D01*
X257010785Y-64542735D01*
X256968698Y-64567961D01*
X256924342Y-64588940D01*
X256878142Y-64605470D01*
X256830545Y-64617393D01*
X256782009Y-64624592D01*
X256733000Y-64627000D01*
X255133000Y-64627000D01*
X255083991Y-64624592D01*
X255035455Y-64617393D01*
X254987858Y-64605470D01*
X254941658Y-64588940D01*
X254897302Y-64567961D01*
X254855215Y-64542735D01*
X254815803Y-64513505D01*
X254779447Y-64480553D01*
X254746495Y-64444197D01*
X254717265Y-64404785D01*
X254692039Y-64362698D01*
X254671060Y-64318342D01*
X254654530Y-64272142D01*
X254642607Y-64224545D01*
X254635408Y-64176009D01*
X254633000Y-64127000D01*
X254633000Y-63127000D01*
X254635408Y-63077991D01*
X254642607Y-63029455D01*
X254654530Y-62981858D01*
X254671060Y-62935658D01*
X254692039Y-62891302D01*
X254717265Y-62849215D01*
X254746495Y-62809803D01*
X254779447Y-62773447D01*
X254815803Y-62740495D01*
X254855215Y-62711265D01*
X254897302Y-62686039D01*
X254941658Y-62665060D01*
X254987858Y-62648530D01*
X255035455Y-62636607D01*
X255083991Y-62629408D01*
X255133000Y-62627000D01*
X256733000Y-62627000D01*
X256782009Y-62629408D01*
X256782009Y-62629408D01*
G37*
D16*
X255933000Y-63627000D03*
D15*
G36*
X256782009Y-60089408D02*
G01*
X256830545Y-60096607D01*
X256878142Y-60108530D01*
X256924342Y-60125060D01*
X256968698Y-60146039D01*
X257010785Y-60171265D01*
X257050197Y-60200495D01*
X257086553Y-60233447D01*
X257119505Y-60269803D01*
X257148735Y-60309215D01*
X257173961Y-60351302D01*
X257194940Y-60395658D01*
X257211470Y-60441858D01*
X257223393Y-60489455D01*
X257230592Y-60537991D01*
X257233000Y-60587000D01*
X257233000Y-61587000D01*
X257230592Y-61636009D01*
X257223393Y-61684545D01*
X257211470Y-61732142D01*
X257194940Y-61778342D01*
X257173961Y-61822698D01*
X257148735Y-61864785D01*
X257119505Y-61904197D01*
X257086553Y-61940553D01*
X257050197Y-61973505D01*
X257010785Y-62002735D01*
X256968698Y-62027961D01*
X256924342Y-62048940D01*
X256878142Y-62065470D01*
X256830545Y-62077393D01*
X256782009Y-62084592D01*
X256733000Y-62087000D01*
X255133000Y-62087000D01*
X255083991Y-62084592D01*
X255035455Y-62077393D01*
X254987858Y-62065470D01*
X254941658Y-62048940D01*
X254897302Y-62027961D01*
X254855215Y-62002735D01*
X254815803Y-61973505D01*
X254779447Y-61940553D01*
X254746495Y-61904197D01*
X254717265Y-61864785D01*
X254692039Y-61822698D01*
X254671060Y-61778342D01*
X254654530Y-61732142D01*
X254642607Y-61684545D01*
X254635408Y-61636009D01*
X254633000Y-61587000D01*
X254633000Y-60587000D01*
X254635408Y-60537991D01*
X254642607Y-60489455D01*
X254654530Y-60441858D01*
X254671060Y-60395658D01*
X254692039Y-60351302D01*
X254717265Y-60309215D01*
X254746495Y-60269803D01*
X254779447Y-60233447D01*
X254815803Y-60200495D01*
X254855215Y-60171265D01*
X254897302Y-60146039D01*
X254941658Y-60125060D01*
X254987858Y-60108530D01*
X255035455Y-60096607D01*
X255083991Y-60089408D01*
X255133000Y-60087000D01*
X256733000Y-60087000D01*
X256782009Y-60089408D01*
X256782009Y-60089408D01*
G37*
D16*
X255933000Y-61087000D03*
D15*
G36*
X256782009Y-57549408D02*
G01*
X256830545Y-57556607D01*
X256878142Y-57568530D01*
X256924342Y-57585060D01*
X256968698Y-57606039D01*
X257010785Y-57631265D01*
X257050197Y-57660495D01*
X257086553Y-57693447D01*
X257119505Y-57729803D01*
X257148735Y-57769215D01*
X257173961Y-57811302D01*
X257194940Y-57855658D01*
X257211470Y-57901858D01*
X257223393Y-57949455D01*
X257230592Y-57997991D01*
X257233000Y-58047000D01*
X257233000Y-59047000D01*
X257230592Y-59096009D01*
X257223393Y-59144545D01*
X257211470Y-59192142D01*
X257194940Y-59238342D01*
X257173961Y-59282698D01*
X257148735Y-59324785D01*
X257119505Y-59364197D01*
X257086553Y-59400553D01*
X257050197Y-59433505D01*
X257010785Y-59462735D01*
X256968698Y-59487961D01*
X256924342Y-59508940D01*
X256878142Y-59525470D01*
X256830545Y-59537393D01*
X256782009Y-59544592D01*
X256733000Y-59547000D01*
X255133000Y-59547000D01*
X255083991Y-59544592D01*
X255035455Y-59537393D01*
X254987858Y-59525470D01*
X254941658Y-59508940D01*
X254897302Y-59487961D01*
X254855215Y-59462735D01*
X254815803Y-59433505D01*
X254779447Y-59400553D01*
X254746495Y-59364197D01*
X254717265Y-59324785D01*
X254692039Y-59282698D01*
X254671060Y-59238342D01*
X254654530Y-59192142D01*
X254642607Y-59144545D01*
X254635408Y-59096009D01*
X254633000Y-59047000D01*
X254633000Y-58047000D01*
X254635408Y-57997991D01*
X254642607Y-57949455D01*
X254654530Y-57901858D01*
X254671060Y-57855658D01*
X254692039Y-57811302D01*
X254717265Y-57769215D01*
X254746495Y-57729803D01*
X254779447Y-57693447D01*
X254815803Y-57660495D01*
X254855215Y-57631265D01*
X254897302Y-57606039D01*
X254941658Y-57585060D01*
X254987858Y-57568530D01*
X255035455Y-57556607D01*
X255083991Y-57549408D01*
X255133000Y-57547000D01*
X256733000Y-57547000D01*
X256782009Y-57549408D01*
X256782009Y-57549408D01*
G37*
D16*
X255933000Y-58547000D03*
D15*
G36*
X256782009Y-55009408D02*
G01*
X256830545Y-55016607D01*
X256878142Y-55028530D01*
X256924342Y-55045060D01*
X256968698Y-55066039D01*
X257010785Y-55091265D01*
X257050197Y-55120495D01*
X257086553Y-55153447D01*
X257119505Y-55189803D01*
X257148735Y-55229215D01*
X257173961Y-55271302D01*
X257194940Y-55315658D01*
X257211470Y-55361858D01*
X257223393Y-55409455D01*
X257230592Y-55457991D01*
X257233000Y-55507000D01*
X257233000Y-56507000D01*
X257230592Y-56556009D01*
X257223393Y-56604545D01*
X257211470Y-56652142D01*
X257194940Y-56698342D01*
X257173961Y-56742698D01*
X257148735Y-56784785D01*
X257119505Y-56824197D01*
X257086553Y-56860553D01*
X257050197Y-56893505D01*
X257010785Y-56922735D01*
X256968698Y-56947961D01*
X256924342Y-56968940D01*
X256878142Y-56985470D01*
X256830545Y-56997393D01*
X256782009Y-57004592D01*
X256733000Y-57007000D01*
X255133000Y-57007000D01*
X255083991Y-57004592D01*
X255035455Y-56997393D01*
X254987858Y-56985470D01*
X254941658Y-56968940D01*
X254897302Y-56947961D01*
X254855215Y-56922735D01*
X254815803Y-56893505D01*
X254779447Y-56860553D01*
X254746495Y-56824197D01*
X254717265Y-56784785D01*
X254692039Y-56742698D01*
X254671060Y-56698342D01*
X254654530Y-56652142D01*
X254642607Y-56604545D01*
X254635408Y-56556009D01*
X254633000Y-56507000D01*
X254633000Y-55507000D01*
X254635408Y-55457991D01*
X254642607Y-55409455D01*
X254654530Y-55361858D01*
X254671060Y-55315658D01*
X254692039Y-55271302D01*
X254717265Y-55229215D01*
X254746495Y-55189803D01*
X254779447Y-55153447D01*
X254815803Y-55120495D01*
X254855215Y-55091265D01*
X254897302Y-55066039D01*
X254941658Y-55045060D01*
X254987858Y-55028530D01*
X255035455Y-55016607D01*
X255083991Y-55009408D01*
X255133000Y-55007000D01*
X256733000Y-55007000D01*
X256782009Y-55009408D01*
X256782009Y-55009408D01*
G37*
D16*
X255933000Y-56007000D03*
D15*
G36*
X193889009Y-85362408D02*
G01*
X193937545Y-85369607D01*
X193985142Y-85381530D01*
X194031342Y-85398060D01*
X194075698Y-85419039D01*
X194117785Y-85444265D01*
X194157197Y-85473495D01*
X194193553Y-85506447D01*
X194226505Y-85542803D01*
X194255735Y-85582215D01*
X194280961Y-85624302D01*
X194301940Y-85668658D01*
X194318470Y-85714858D01*
X194330393Y-85762455D01*
X194337592Y-85810991D01*
X194340000Y-85860000D01*
X194340000Y-86860000D01*
X194337592Y-86909009D01*
X194330393Y-86957545D01*
X194318470Y-87005142D01*
X194301940Y-87051342D01*
X194280961Y-87095698D01*
X194255735Y-87137785D01*
X194226505Y-87177197D01*
X194193553Y-87213553D01*
X194157197Y-87246505D01*
X194117785Y-87275735D01*
X194075698Y-87300961D01*
X194031342Y-87321940D01*
X193985142Y-87338470D01*
X193937545Y-87350393D01*
X193889009Y-87357592D01*
X193840000Y-87360000D01*
X192240000Y-87360000D01*
X192190991Y-87357592D01*
X192142455Y-87350393D01*
X192094858Y-87338470D01*
X192048658Y-87321940D01*
X192004302Y-87300961D01*
X191962215Y-87275735D01*
X191922803Y-87246505D01*
X191886447Y-87213553D01*
X191853495Y-87177197D01*
X191824265Y-87137785D01*
X191799039Y-87095698D01*
X191778060Y-87051342D01*
X191761530Y-87005142D01*
X191749607Y-86957545D01*
X191742408Y-86909009D01*
X191740000Y-86860000D01*
X191740000Y-85860000D01*
X191742408Y-85810991D01*
X191749607Y-85762455D01*
X191761530Y-85714858D01*
X191778060Y-85668658D01*
X191799039Y-85624302D01*
X191824265Y-85582215D01*
X191853495Y-85542803D01*
X191886447Y-85506447D01*
X191922803Y-85473495D01*
X191962215Y-85444265D01*
X192004302Y-85419039D01*
X192048658Y-85398060D01*
X192094858Y-85381530D01*
X192142455Y-85369607D01*
X192190991Y-85362408D01*
X192240000Y-85360000D01*
X193840000Y-85360000D01*
X193889009Y-85362408D01*
X193889009Y-85362408D01*
G37*
D16*
X193040000Y-86360000D03*
D15*
G36*
X193889009Y-82822408D02*
G01*
X193937545Y-82829607D01*
X193985142Y-82841530D01*
X194031342Y-82858060D01*
X194075698Y-82879039D01*
X194117785Y-82904265D01*
X194157197Y-82933495D01*
X194193553Y-82966447D01*
X194226505Y-83002803D01*
X194255735Y-83042215D01*
X194280961Y-83084302D01*
X194301940Y-83128658D01*
X194318470Y-83174858D01*
X194330393Y-83222455D01*
X194337592Y-83270991D01*
X194340000Y-83320000D01*
X194340000Y-84320000D01*
X194337592Y-84369009D01*
X194330393Y-84417545D01*
X194318470Y-84465142D01*
X194301940Y-84511342D01*
X194280961Y-84555698D01*
X194255735Y-84597785D01*
X194226505Y-84637197D01*
X194193553Y-84673553D01*
X194157197Y-84706505D01*
X194117785Y-84735735D01*
X194075698Y-84760961D01*
X194031342Y-84781940D01*
X193985142Y-84798470D01*
X193937545Y-84810393D01*
X193889009Y-84817592D01*
X193840000Y-84820000D01*
X192240000Y-84820000D01*
X192190991Y-84817592D01*
X192142455Y-84810393D01*
X192094858Y-84798470D01*
X192048658Y-84781940D01*
X192004302Y-84760961D01*
X191962215Y-84735735D01*
X191922803Y-84706505D01*
X191886447Y-84673553D01*
X191853495Y-84637197D01*
X191824265Y-84597785D01*
X191799039Y-84555698D01*
X191778060Y-84511342D01*
X191761530Y-84465142D01*
X191749607Y-84417545D01*
X191742408Y-84369009D01*
X191740000Y-84320000D01*
X191740000Y-83320000D01*
X191742408Y-83270991D01*
X191749607Y-83222455D01*
X191761530Y-83174858D01*
X191778060Y-83128658D01*
X191799039Y-83084302D01*
X191824265Y-83042215D01*
X191853495Y-83002803D01*
X191886447Y-82966447D01*
X191922803Y-82933495D01*
X191962215Y-82904265D01*
X192004302Y-82879039D01*
X192048658Y-82858060D01*
X192094858Y-82841530D01*
X192142455Y-82829607D01*
X192190991Y-82822408D01*
X192240000Y-82820000D01*
X193840000Y-82820000D01*
X193889009Y-82822408D01*
X193889009Y-82822408D01*
G37*
D16*
X193040000Y-83820000D03*
D15*
G36*
X193889009Y-80282408D02*
G01*
X193937545Y-80289607D01*
X193985142Y-80301530D01*
X194031342Y-80318060D01*
X194075698Y-80339039D01*
X194117785Y-80364265D01*
X194157197Y-80393495D01*
X194193553Y-80426447D01*
X194226505Y-80462803D01*
X194255735Y-80502215D01*
X194280961Y-80544302D01*
X194301940Y-80588658D01*
X194318470Y-80634858D01*
X194330393Y-80682455D01*
X194337592Y-80730991D01*
X194340000Y-80780000D01*
X194340000Y-81780000D01*
X194337592Y-81829009D01*
X194330393Y-81877545D01*
X194318470Y-81925142D01*
X194301940Y-81971342D01*
X194280961Y-82015698D01*
X194255735Y-82057785D01*
X194226505Y-82097197D01*
X194193553Y-82133553D01*
X194157197Y-82166505D01*
X194117785Y-82195735D01*
X194075698Y-82220961D01*
X194031342Y-82241940D01*
X193985142Y-82258470D01*
X193937545Y-82270393D01*
X193889009Y-82277592D01*
X193840000Y-82280000D01*
X192240000Y-82280000D01*
X192190991Y-82277592D01*
X192142455Y-82270393D01*
X192094858Y-82258470D01*
X192048658Y-82241940D01*
X192004302Y-82220961D01*
X191962215Y-82195735D01*
X191922803Y-82166505D01*
X191886447Y-82133553D01*
X191853495Y-82097197D01*
X191824265Y-82057785D01*
X191799039Y-82015698D01*
X191778060Y-81971342D01*
X191761530Y-81925142D01*
X191749607Y-81877545D01*
X191742408Y-81829009D01*
X191740000Y-81780000D01*
X191740000Y-80780000D01*
X191742408Y-80730991D01*
X191749607Y-80682455D01*
X191761530Y-80634858D01*
X191778060Y-80588658D01*
X191799039Y-80544302D01*
X191824265Y-80502215D01*
X191853495Y-80462803D01*
X191886447Y-80426447D01*
X191922803Y-80393495D01*
X191962215Y-80364265D01*
X192004302Y-80339039D01*
X192048658Y-80318060D01*
X192094858Y-80301530D01*
X192142455Y-80289607D01*
X192190991Y-80282408D01*
X192240000Y-80280000D01*
X193840000Y-80280000D01*
X193889009Y-80282408D01*
X193889009Y-80282408D01*
G37*
D16*
X193040000Y-81280000D03*
D15*
G36*
X193889009Y-77742408D02*
G01*
X193937545Y-77749607D01*
X193985142Y-77761530D01*
X194031342Y-77778060D01*
X194075698Y-77799039D01*
X194117785Y-77824265D01*
X194157197Y-77853495D01*
X194193553Y-77886447D01*
X194226505Y-77922803D01*
X194255735Y-77962215D01*
X194280961Y-78004302D01*
X194301940Y-78048658D01*
X194318470Y-78094858D01*
X194330393Y-78142455D01*
X194337592Y-78190991D01*
X194340000Y-78240000D01*
X194340000Y-79240000D01*
X194337592Y-79289009D01*
X194330393Y-79337545D01*
X194318470Y-79385142D01*
X194301940Y-79431342D01*
X194280961Y-79475698D01*
X194255735Y-79517785D01*
X194226505Y-79557197D01*
X194193553Y-79593553D01*
X194157197Y-79626505D01*
X194117785Y-79655735D01*
X194075698Y-79680961D01*
X194031342Y-79701940D01*
X193985142Y-79718470D01*
X193937545Y-79730393D01*
X193889009Y-79737592D01*
X193840000Y-79740000D01*
X192240000Y-79740000D01*
X192190991Y-79737592D01*
X192142455Y-79730393D01*
X192094858Y-79718470D01*
X192048658Y-79701940D01*
X192004302Y-79680961D01*
X191962215Y-79655735D01*
X191922803Y-79626505D01*
X191886447Y-79593553D01*
X191853495Y-79557197D01*
X191824265Y-79517785D01*
X191799039Y-79475698D01*
X191778060Y-79431342D01*
X191761530Y-79385142D01*
X191749607Y-79337545D01*
X191742408Y-79289009D01*
X191740000Y-79240000D01*
X191740000Y-78240000D01*
X191742408Y-78190991D01*
X191749607Y-78142455D01*
X191761530Y-78094858D01*
X191778060Y-78048658D01*
X191799039Y-78004302D01*
X191824265Y-77962215D01*
X191853495Y-77922803D01*
X191886447Y-77886447D01*
X191922803Y-77853495D01*
X191962215Y-77824265D01*
X192004302Y-77799039D01*
X192048658Y-77778060D01*
X192094858Y-77761530D01*
X192142455Y-77749607D01*
X192190991Y-77742408D01*
X192240000Y-77740000D01*
X193840000Y-77740000D01*
X193889009Y-77742408D01*
X193889009Y-77742408D01*
G37*
D16*
X193040000Y-78740000D03*
D15*
G36*
X193889009Y-75202408D02*
G01*
X193937545Y-75209607D01*
X193985142Y-75221530D01*
X194031342Y-75238060D01*
X194075698Y-75259039D01*
X194117785Y-75284265D01*
X194157197Y-75313495D01*
X194193553Y-75346447D01*
X194226505Y-75382803D01*
X194255735Y-75422215D01*
X194280961Y-75464302D01*
X194301940Y-75508658D01*
X194318470Y-75554858D01*
X194330393Y-75602455D01*
X194337592Y-75650991D01*
X194340000Y-75700000D01*
X194340000Y-76700000D01*
X194337592Y-76749009D01*
X194330393Y-76797545D01*
X194318470Y-76845142D01*
X194301940Y-76891342D01*
X194280961Y-76935698D01*
X194255735Y-76977785D01*
X194226505Y-77017197D01*
X194193553Y-77053553D01*
X194157197Y-77086505D01*
X194117785Y-77115735D01*
X194075698Y-77140961D01*
X194031342Y-77161940D01*
X193985142Y-77178470D01*
X193937545Y-77190393D01*
X193889009Y-77197592D01*
X193840000Y-77200000D01*
X192240000Y-77200000D01*
X192190991Y-77197592D01*
X192142455Y-77190393D01*
X192094858Y-77178470D01*
X192048658Y-77161940D01*
X192004302Y-77140961D01*
X191962215Y-77115735D01*
X191922803Y-77086505D01*
X191886447Y-77053553D01*
X191853495Y-77017197D01*
X191824265Y-76977785D01*
X191799039Y-76935698D01*
X191778060Y-76891342D01*
X191761530Y-76845142D01*
X191749607Y-76797545D01*
X191742408Y-76749009D01*
X191740000Y-76700000D01*
X191740000Y-75700000D01*
X191742408Y-75650991D01*
X191749607Y-75602455D01*
X191761530Y-75554858D01*
X191778060Y-75508658D01*
X191799039Y-75464302D01*
X191824265Y-75422215D01*
X191853495Y-75382803D01*
X191886447Y-75346447D01*
X191922803Y-75313495D01*
X191962215Y-75284265D01*
X192004302Y-75259039D01*
X192048658Y-75238060D01*
X192094858Y-75221530D01*
X192142455Y-75209607D01*
X192190991Y-75202408D01*
X192240000Y-75200000D01*
X193840000Y-75200000D01*
X193889009Y-75202408D01*
X193889009Y-75202408D01*
G37*
D16*
X193040000Y-76200000D03*
D15*
G36*
X193889009Y-72662408D02*
G01*
X193937545Y-72669607D01*
X193985142Y-72681530D01*
X194031342Y-72698060D01*
X194075698Y-72719039D01*
X194117785Y-72744265D01*
X194157197Y-72773495D01*
X194193553Y-72806447D01*
X194226505Y-72842803D01*
X194255735Y-72882215D01*
X194280961Y-72924302D01*
X194301940Y-72968658D01*
X194318470Y-73014858D01*
X194330393Y-73062455D01*
X194337592Y-73110991D01*
X194340000Y-73160000D01*
X194340000Y-74160000D01*
X194337592Y-74209009D01*
X194330393Y-74257545D01*
X194318470Y-74305142D01*
X194301940Y-74351342D01*
X194280961Y-74395698D01*
X194255735Y-74437785D01*
X194226505Y-74477197D01*
X194193553Y-74513553D01*
X194157197Y-74546505D01*
X194117785Y-74575735D01*
X194075698Y-74600961D01*
X194031342Y-74621940D01*
X193985142Y-74638470D01*
X193937545Y-74650393D01*
X193889009Y-74657592D01*
X193840000Y-74660000D01*
X192240000Y-74660000D01*
X192190991Y-74657592D01*
X192142455Y-74650393D01*
X192094858Y-74638470D01*
X192048658Y-74621940D01*
X192004302Y-74600961D01*
X191962215Y-74575735D01*
X191922803Y-74546505D01*
X191886447Y-74513553D01*
X191853495Y-74477197D01*
X191824265Y-74437785D01*
X191799039Y-74395698D01*
X191778060Y-74351342D01*
X191761530Y-74305142D01*
X191749607Y-74257545D01*
X191742408Y-74209009D01*
X191740000Y-74160000D01*
X191740000Y-73160000D01*
X191742408Y-73110991D01*
X191749607Y-73062455D01*
X191761530Y-73014858D01*
X191778060Y-72968658D01*
X191799039Y-72924302D01*
X191824265Y-72882215D01*
X191853495Y-72842803D01*
X191886447Y-72806447D01*
X191922803Y-72773495D01*
X191962215Y-72744265D01*
X192004302Y-72719039D01*
X192048658Y-72698060D01*
X192094858Y-72681530D01*
X192142455Y-72669607D01*
X192190991Y-72662408D01*
X192240000Y-72660000D01*
X193840000Y-72660000D01*
X193889009Y-72662408D01*
X193889009Y-72662408D01*
G37*
D16*
X193040000Y-73660000D03*
D15*
G36*
X193889009Y-70122408D02*
G01*
X193937545Y-70129607D01*
X193985142Y-70141530D01*
X194031342Y-70158060D01*
X194075698Y-70179039D01*
X194117785Y-70204265D01*
X194157197Y-70233495D01*
X194193553Y-70266447D01*
X194226505Y-70302803D01*
X194255735Y-70342215D01*
X194280961Y-70384302D01*
X194301940Y-70428658D01*
X194318470Y-70474858D01*
X194330393Y-70522455D01*
X194337592Y-70570991D01*
X194340000Y-70620000D01*
X194340000Y-71620000D01*
X194337592Y-71669009D01*
X194330393Y-71717545D01*
X194318470Y-71765142D01*
X194301940Y-71811342D01*
X194280961Y-71855698D01*
X194255735Y-71897785D01*
X194226505Y-71937197D01*
X194193553Y-71973553D01*
X194157197Y-72006505D01*
X194117785Y-72035735D01*
X194075698Y-72060961D01*
X194031342Y-72081940D01*
X193985142Y-72098470D01*
X193937545Y-72110393D01*
X193889009Y-72117592D01*
X193840000Y-72120000D01*
X192240000Y-72120000D01*
X192190991Y-72117592D01*
X192142455Y-72110393D01*
X192094858Y-72098470D01*
X192048658Y-72081940D01*
X192004302Y-72060961D01*
X191962215Y-72035735D01*
X191922803Y-72006505D01*
X191886447Y-71973553D01*
X191853495Y-71937197D01*
X191824265Y-71897785D01*
X191799039Y-71855698D01*
X191778060Y-71811342D01*
X191761530Y-71765142D01*
X191749607Y-71717545D01*
X191742408Y-71669009D01*
X191740000Y-71620000D01*
X191740000Y-70620000D01*
X191742408Y-70570991D01*
X191749607Y-70522455D01*
X191761530Y-70474858D01*
X191778060Y-70428658D01*
X191799039Y-70384302D01*
X191824265Y-70342215D01*
X191853495Y-70302803D01*
X191886447Y-70266447D01*
X191922803Y-70233495D01*
X191962215Y-70204265D01*
X192004302Y-70179039D01*
X192048658Y-70158060D01*
X192094858Y-70141530D01*
X192142455Y-70129607D01*
X192190991Y-70122408D01*
X192240000Y-70120000D01*
X193840000Y-70120000D01*
X193889009Y-70122408D01*
X193889009Y-70122408D01*
G37*
D16*
X193040000Y-71120000D03*
D15*
G36*
X193889009Y-67582408D02*
G01*
X193937545Y-67589607D01*
X193985142Y-67601530D01*
X194031342Y-67618060D01*
X194075698Y-67639039D01*
X194117785Y-67664265D01*
X194157197Y-67693495D01*
X194193553Y-67726447D01*
X194226505Y-67762803D01*
X194255735Y-67802215D01*
X194280961Y-67844302D01*
X194301940Y-67888658D01*
X194318470Y-67934858D01*
X194330393Y-67982455D01*
X194337592Y-68030991D01*
X194340000Y-68080000D01*
X194340000Y-69080000D01*
X194337592Y-69129009D01*
X194330393Y-69177545D01*
X194318470Y-69225142D01*
X194301940Y-69271342D01*
X194280961Y-69315698D01*
X194255735Y-69357785D01*
X194226505Y-69397197D01*
X194193553Y-69433553D01*
X194157197Y-69466505D01*
X194117785Y-69495735D01*
X194075698Y-69520961D01*
X194031342Y-69541940D01*
X193985142Y-69558470D01*
X193937545Y-69570393D01*
X193889009Y-69577592D01*
X193840000Y-69580000D01*
X192240000Y-69580000D01*
X192190991Y-69577592D01*
X192142455Y-69570393D01*
X192094858Y-69558470D01*
X192048658Y-69541940D01*
X192004302Y-69520961D01*
X191962215Y-69495735D01*
X191922803Y-69466505D01*
X191886447Y-69433553D01*
X191853495Y-69397197D01*
X191824265Y-69357785D01*
X191799039Y-69315698D01*
X191778060Y-69271342D01*
X191761530Y-69225142D01*
X191749607Y-69177545D01*
X191742408Y-69129009D01*
X191740000Y-69080000D01*
X191740000Y-68080000D01*
X191742408Y-68030991D01*
X191749607Y-67982455D01*
X191761530Y-67934858D01*
X191778060Y-67888658D01*
X191799039Y-67844302D01*
X191824265Y-67802215D01*
X191853495Y-67762803D01*
X191886447Y-67726447D01*
X191922803Y-67693495D01*
X191962215Y-67664265D01*
X192004302Y-67639039D01*
X192048658Y-67618060D01*
X192094858Y-67601530D01*
X192142455Y-67589607D01*
X192190991Y-67582408D01*
X192240000Y-67580000D01*
X193840000Y-67580000D01*
X193889009Y-67582408D01*
X193889009Y-67582408D01*
G37*
D16*
X193040000Y-68580000D03*
D15*
G36*
X193889009Y-65042408D02*
G01*
X193937545Y-65049607D01*
X193985142Y-65061530D01*
X194031342Y-65078060D01*
X194075698Y-65099039D01*
X194117785Y-65124265D01*
X194157197Y-65153495D01*
X194193553Y-65186447D01*
X194226505Y-65222803D01*
X194255735Y-65262215D01*
X194280961Y-65304302D01*
X194301940Y-65348658D01*
X194318470Y-65394858D01*
X194330393Y-65442455D01*
X194337592Y-65490991D01*
X194340000Y-65540000D01*
X194340000Y-66540000D01*
X194337592Y-66589009D01*
X194330393Y-66637545D01*
X194318470Y-66685142D01*
X194301940Y-66731342D01*
X194280961Y-66775698D01*
X194255735Y-66817785D01*
X194226505Y-66857197D01*
X194193553Y-66893553D01*
X194157197Y-66926505D01*
X194117785Y-66955735D01*
X194075698Y-66980961D01*
X194031342Y-67001940D01*
X193985142Y-67018470D01*
X193937545Y-67030393D01*
X193889009Y-67037592D01*
X193840000Y-67040000D01*
X192240000Y-67040000D01*
X192190991Y-67037592D01*
X192142455Y-67030393D01*
X192094858Y-67018470D01*
X192048658Y-67001940D01*
X192004302Y-66980961D01*
X191962215Y-66955735D01*
X191922803Y-66926505D01*
X191886447Y-66893553D01*
X191853495Y-66857197D01*
X191824265Y-66817785D01*
X191799039Y-66775698D01*
X191778060Y-66731342D01*
X191761530Y-66685142D01*
X191749607Y-66637545D01*
X191742408Y-66589009D01*
X191740000Y-66540000D01*
X191740000Y-65540000D01*
X191742408Y-65490991D01*
X191749607Y-65442455D01*
X191761530Y-65394858D01*
X191778060Y-65348658D01*
X191799039Y-65304302D01*
X191824265Y-65262215D01*
X191853495Y-65222803D01*
X191886447Y-65186447D01*
X191922803Y-65153495D01*
X191962215Y-65124265D01*
X192004302Y-65099039D01*
X192048658Y-65078060D01*
X192094858Y-65061530D01*
X192142455Y-65049607D01*
X192190991Y-65042408D01*
X192240000Y-65040000D01*
X193840000Y-65040000D01*
X193889009Y-65042408D01*
X193889009Y-65042408D01*
G37*
D16*
X193040000Y-66040000D03*
D15*
G36*
X193889009Y-62502408D02*
G01*
X193937545Y-62509607D01*
X193985142Y-62521530D01*
X194031342Y-62538060D01*
X194075698Y-62559039D01*
X194117785Y-62584265D01*
X194157197Y-62613495D01*
X194193553Y-62646447D01*
X194226505Y-62682803D01*
X194255735Y-62722215D01*
X194280961Y-62764302D01*
X194301940Y-62808658D01*
X194318470Y-62854858D01*
X194330393Y-62902455D01*
X194337592Y-62950991D01*
X194340000Y-63000000D01*
X194340000Y-64000000D01*
X194337592Y-64049009D01*
X194330393Y-64097545D01*
X194318470Y-64145142D01*
X194301940Y-64191342D01*
X194280961Y-64235698D01*
X194255735Y-64277785D01*
X194226505Y-64317197D01*
X194193553Y-64353553D01*
X194157197Y-64386505D01*
X194117785Y-64415735D01*
X194075698Y-64440961D01*
X194031342Y-64461940D01*
X193985142Y-64478470D01*
X193937545Y-64490393D01*
X193889009Y-64497592D01*
X193840000Y-64500000D01*
X192240000Y-64500000D01*
X192190991Y-64497592D01*
X192142455Y-64490393D01*
X192094858Y-64478470D01*
X192048658Y-64461940D01*
X192004302Y-64440961D01*
X191962215Y-64415735D01*
X191922803Y-64386505D01*
X191886447Y-64353553D01*
X191853495Y-64317197D01*
X191824265Y-64277785D01*
X191799039Y-64235698D01*
X191778060Y-64191342D01*
X191761530Y-64145142D01*
X191749607Y-64097545D01*
X191742408Y-64049009D01*
X191740000Y-64000000D01*
X191740000Y-63000000D01*
X191742408Y-62950991D01*
X191749607Y-62902455D01*
X191761530Y-62854858D01*
X191778060Y-62808658D01*
X191799039Y-62764302D01*
X191824265Y-62722215D01*
X191853495Y-62682803D01*
X191886447Y-62646447D01*
X191922803Y-62613495D01*
X191962215Y-62584265D01*
X192004302Y-62559039D01*
X192048658Y-62538060D01*
X192094858Y-62521530D01*
X192142455Y-62509607D01*
X192190991Y-62502408D01*
X192240000Y-62500000D01*
X193840000Y-62500000D01*
X193889009Y-62502408D01*
X193889009Y-62502408D01*
G37*
D16*
X193040000Y-63500000D03*
D15*
G36*
X193889009Y-59962408D02*
G01*
X193937545Y-59969607D01*
X193985142Y-59981530D01*
X194031342Y-59998060D01*
X194075698Y-60019039D01*
X194117785Y-60044265D01*
X194157197Y-60073495D01*
X194193553Y-60106447D01*
X194226505Y-60142803D01*
X194255735Y-60182215D01*
X194280961Y-60224302D01*
X194301940Y-60268658D01*
X194318470Y-60314858D01*
X194330393Y-60362455D01*
X194337592Y-60410991D01*
X194340000Y-60460000D01*
X194340000Y-61460000D01*
X194337592Y-61509009D01*
X194330393Y-61557545D01*
X194318470Y-61605142D01*
X194301940Y-61651342D01*
X194280961Y-61695698D01*
X194255735Y-61737785D01*
X194226505Y-61777197D01*
X194193553Y-61813553D01*
X194157197Y-61846505D01*
X194117785Y-61875735D01*
X194075698Y-61900961D01*
X194031342Y-61921940D01*
X193985142Y-61938470D01*
X193937545Y-61950393D01*
X193889009Y-61957592D01*
X193840000Y-61960000D01*
X192240000Y-61960000D01*
X192190991Y-61957592D01*
X192142455Y-61950393D01*
X192094858Y-61938470D01*
X192048658Y-61921940D01*
X192004302Y-61900961D01*
X191962215Y-61875735D01*
X191922803Y-61846505D01*
X191886447Y-61813553D01*
X191853495Y-61777197D01*
X191824265Y-61737785D01*
X191799039Y-61695698D01*
X191778060Y-61651342D01*
X191761530Y-61605142D01*
X191749607Y-61557545D01*
X191742408Y-61509009D01*
X191740000Y-61460000D01*
X191740000Y-60460000D01*
X191742408Y-60410991D01*
X191749607Y-60362455D01*
X191761530Y-60314858D01*
X191778060Y-60268658D01*
X191799039Y-60224302D01*
X191824265Y-60182215D01*
X191853495Y-60142803D01*
X191886447Y-60106447D01*
X191922803Y-60073495D01*
X191962215Y-60044265D01*
X192004302Y-60019039D01*
X192048658Y-59998060D01*
X192094858Y-59981530D01*
X192142455Y-59969607D01*
X192190991Y-59962408D01*
X192240000Y-59960000D01*
X193840000Y-59960000D01*
X193889009Y-59962408D01*
X193889009Y-59962408D01*
G37*
D16*
X193040000Y-60960000D03*
D15*
G36*
X193889009Y-57422408D02*
G01*
X193937545Y-57429607D01*
X193985142Y-57441530D01*
X194031342Y-57458060D01*
X194075698Y-57479039D01*
X194117785Y-57504265D01*
X194157197Y-57533495D01*
X194193553Y-57566447D01*
X194226505Y-57602803D01*
X194255735Y-57642215D01*
X194280961Y-57684302D01*
X194301940Y-57728658D01*
X194318470Y-57774858D01*
X194330393Y-57822455D01*
X194337592Y-57870991D01*
X194340000Y-57920000D01*
X194340000Y-58920000D01*
X194337592Y-58969009D01*
X194330393Y-59017545D01*
X194318470Y-59065142D01*
X194301940Y-59111342D01*
X194280961Y-59155698D01*
X194255735Y-59197785D01*
X194226505Y-59237197D01*
X194193553Y-59273553D01*
X194157197Y-59306505D01*
X194117785Y-59335735D01*
X194075698Y-59360961D01*
X194031342Y-59381940D01*
X193985142Y-59398470D01*
X193937545Y-59410393D01*
X193889009Y-59417592D01*
X193840000Y-59420000D01*
X192240000Y-59420000D01*
X192190991Y-59417592D01*
X192142455Y-59410393D01*
X192094858Y-59398470D01*
X192048658Y-59381940D01*
X192004302Y-59360961D01*
X191962215Y-59335735D01*
X191922803Y-59306505D01*
X191886447Y-59273553D01*
X191853495Y-59237197D01*
X191824265Y-59197785D01*
X191799039Y-59155698D01*
X191778060Y-59111342D01*
X191761530Y-59065142D01*
X191749607Y-59017545D01*
X191742408Y-58969009D01*
X191740000Y-58920000D01*
X191740000Y-57920000D01*
X191742408Y-57870991D01*
X191749607Y-57822455D01*
X191761530Y-57774858D01*
X191778060Y-57728658D01*
X191799039Y-57684302D01*
X191824265Y-57642215D01*
X191853495Y-57602803D01*
X191886447Y-57566447D01*
X191922803Y-57533495D01*
X191962215Y-57504265D01*
X192004302Y-57479039D01*
X192048658Y-57458060D01*
X192094858Y-57441530D01*
X192142455Y-57429607D01*
X192190991Y-57422408D01*
X192240000Y-57420000D01*
X193840000Y-57420000D01*
X193889009Y-57422408D01*
X193889009Y-57422408D01*
G37*
D16*
X193040000Y-58420000D03*
D15*
G36*
X193889009Y-54882408D02*
G01*
X193937545Y-54889607D01*
X193985142Y-54901530D01*
X194031342Y-54918060D01*
X194075698Y-54939039D01*
X194117785Y-54964265D01*
X194157197Y-54993495D01*
X194193553Y-55026447D01*
X194226505Y-55062803D01*
X194255735Y-55102215D01*
X194280961Y-55144302D01*
X194301940Y-55188658D01*
X194318470Y-55234858D01*
X194330393Y-55282455D01*
X194337592Y-55330991D01*
X194340000Y-55380000D01*
X194340000Y-56380000D01*
X194337592Y-56429009D01*
X194330393Y-56477545D01*
X194318470Y-56525142D01*
X194301940Y-56571342D01*
X194280961Y-56615698D01*
X194255735Y-56657785D01*
X194226505Y-56697197D01*
X194193553Y-56733553D01*
X194157197Y-56766505D01*
X194117785Y-56795735D01*
X194075698Y-56820961D01*
X194031342Y-56841940D01*
X193985142Y-56858470D01*
X193937545Y-56870393D01*
X193889009Y-56877592D01*
X193840000Y-56880000D01*
X192240000Y-56880000D01*
X192190991Y-56877592D01*
X192142455Y-56870393D01*
X192094858Y-56858470D01*
X192048658Y-56841940D01*
X192004302Y-56820961D01*
X191962215Y-56795735D01*
X191922803Y-56766505D01*
X191886447Y-56733553D01*
X191853495Y-56697197D01*
X191824265Y-56657785D01*
X191799039Y-56615698D01*
X191778060Y-56571342D01*
X191761530Y-56525142D01*
X191749607Y-56477545D01*
X191742408Y-56429009D01*
X191740000Y-56380000D01*
X191740000Y-55380000D01*
X191742408Y-55330991D01*
X191749607Y-55282455D01*
X191761530Y-55234858D01*
X191778060Y-55188658D01*
X191799039Y-55144302D01*
X191824265Y-55102215D01*
X191853495Y-55062803D01*
X191886447Y-55026447D01*
X191922803Y-54993495D01*
X191962215Y-54964265D01*
X192004302Y-54939039D01*
X192048658Y-54918060D01*
X192094858Y-54901530D01*
X192142455Y-54889607D01*
X192190991Y-54882408D01*
X192240000Y-54880000D01*
X193840000Y-54880000D01*
X193889009Y-54882408D01*
X193889009Y-54882408D01*
G37*
D16*
X193040000Y-55880000D03*
D15*
G36*
X193889009Y-52342408D02*
G01*
X193937545Y-52349607D01*
X193985142Y-52361530D01*
X194031342Y-52378060D01*
X194075698Y-52399039D01*
X194117785Y-52424265D01*
X194157197Y-52453495D01*
X194193553Y-52486447D01*
X194226505Y-52522803D01*
X194255735Y-52562215D01*
X194280961Y-52604302D01*
X194301940Y-52648658D01*
X194318470Y-52694858D01*
X194330393Y-52742455D01*
X194337592Y-52790991D01*
X194340000Y-52840000D01*
X194340000Y-53840000D01*
X194337592Y-53889009D01*
X194330393Y-53937545D01*
X194318470Y-53985142D01*
X194301940Y-54031342D01*
X194280961Y-54075698D01*
X194255735Y-54117785D01*
X194226505Y-54157197D01*
X194193553Y-54193553D01*
X194157197Y-54226505D01*
X194117785Y-54255735D01*
X194075698Y-54280961D01*
X194031342Y-54301940D01*
X193985142Y-54318470D01*
X193937545Y-54330393D01*
X193889009Y-54337592D01*
X193840000Y-54340000D01*
X192240000Y-54340000D01*
X192190991Y-54337592D01*
X192142455Y-54330393D01*
X192094858Y-54318470D01*
X192048658Y-54301940D01*
X192004302Y-54280961D01*
X191962215Y-54255735D01*
X191922803Y-54226505D01*
X191886447Y-54193553D01*
X191853495Y-54157197D01*
X191824265Y-54117785D01*
X191799039Y-54075698D01*
X191778060Y-54031342D01*
X191761530Y-53985142D01*
X191749607Y-53937545D01*
X191742408Y-53889009D01*
X191740000Y-53840000D01*
X191740000Y-52840000D01*
X191742408Y-52790991D01*
X191749607Y-52742455D01*
X191761530Y-52694858D01*
X191778060Y-52648658D01*
X191799039Y-52604302D01*
X191824265Y-52562215D01*
X191853495Y-52522803D01*
X191886447Y-52486447D01*
X191922803Y-52453495D01*
X191962215Y-52424265D01*
X192004302Y-52399039D01*
X192048658Y-52378060D01*
X192094858Y-52361530D01*
X192142455Y-52349607D01*
X192190991Y-52342408D01*
X192240000Y-52340000D01*
X193840000Y-52340000D01*
X193889009Y-52342408D01*
X193889009Y-52342408D01*
G37*
D16*
X193040000Y-53340000D03*
D15*
G36*
X193889009Y-49802408D02*
G01*
X193937545Y-49809607D01*
X193985142Y-49821530D01*
X194031342Y-49838060D01*
X194075698Y-49859039D01*
X194117785Y-49884265D01*
X194157197Y-49913495D01*
X194193553Y-49946447D01*
X194226505Y-49982803D01*
X194255735Y-50022215D01*
X194280961Y-50064302D01*
X194301940Y-50108658D01*
X194318470Y-50154858D01*
X194330393Y-50202455D01*
X194337592Y-50250991D01*
X194340000Y-50300000D01*
X194340000Y-51300000D01*
X194337592Y-51349009D01*
X194330393Y-51397545D01*
X194318470Y-51445142D01*
X194301940Y-51491342D01*
X194280961Y-51535698D01*
X194255735Y-51577785D01*
X194226505Y-51617197D01*
X194193553Y-51653553D01*
X194157197Y-51686505D01*
X194117785Y-51715735D01*
X194075698Y-51740961D01*
X194031342Y-51761940D01*
X193985142Y-51778470D01*
X193937545Y-51790393D01*
X193889009Y-51797592D01*
X193840000Y-51800000D01*
X192240000Y-51800000D01*
X192190991Y-51797592D01*
X192142455Y-51790393D01*
X192094858Y-51778470D01*
X192048658Y-51761940D01*
X192004302Y-51740961D01*
X191962215Y-51715735D01*
X191922803Y-51686505D01*
X191886447Y-51653553D01*
X191853495Y-51617197D01*
X191824265Y-51577785D01*
X191799039Y-51535698D01*
X191778060Y-51491342D01*
X191761530Y-51445142D01*
X191749607Y-51397545D01*
X191742408Y-51349009D01*
X191740000Y-51300000D01*
X191740000Y-50300000D01*
X191742408Y-50250991D01*
X191749607Y-50202455D01*
X191761530Y-50154858D01*
X191778060Y-50108658D01*
X191799039Y-50064302D01*
X191824265Y-50022215D01*
X191853495Y-49982803D01*
X191886447Y-49946447D01*
X191922803Y-49913495D01*
X191962215Y-49884265D01*
X192004302Y-49859039D01*
X192048658Y-49838060D01*
X192094858Y-49821530D01*
X192142455Y-49809607D01*
X192190991Y-49802408D01*
X192240000Y-49800000D01*
X193840000Y-49800000D01*
X193889009Y-49802408D01*
X193889009Y-49802408D01*
G37*
D16*
X193040000Y-50800000D03*
D15*
G36*
X221829009Y-85362408D02*
G01*
X221877545Y-85369607D01*
X221925142Y-85381530D01*
X221971342Y-85398060D01*
X222015698Y-85419039D01*
X222057785Y-85444265D01*
X222097197Y-85473495D01*
X222133553Y-85506447D01*
X222166505Y-85542803D01*
X222195735Y-85582215D01*
X222220961Y-85624302D01*
X222241940Y-85668658D01*
X222258470Y-85714858D01*
X222270393Y-85762455D01*
X222277592Y-85810991D01*
X222280000Y-85860000D01*
X222280000Y-86860000D01*
X222277592Y-86909009D01*
X222270393Y-86957545D01*
X222258470Y-87005142D01*
X222241940Y-87051342D01*
X222220961Y-87095698D01*
X222195735Y-87137785D01*
X222166505Y-87177197D01*
X222133553Y-87213553D01*
X222097197Y-87246505D01*
X222057785Y-87275735D01*
X222015698Y-87300961D01*
X221971342Y-87321940D01*
X221925142Y-87338470D01*
X221877545Y-87350393D01*
X221829009Y-87357592D01*
X221780000Y-87360000D01*
X220180000Y-87360000D01*
X220130991Y-87357592D01*
X220082455Y-87350393D01*
X220034858Y-87338470D01*
X219988658Y-87321940D01*
X219944302Y-87300961D01*
X219902215Y-87275735D01*
X219862803Y-87246505D01*
X219826447Y-87213553D01*
X219793495Y-87177197D01*
X219764265Y-87137785D01*
X219739039Y-87095698D01*
X219718060Y-87051342D01*
X219701530Y-87005142D01*
X219689607Y-86957545D01*
X219682408Y-86909009D01*
X219680000Y-86860000D01*
X219680000Y-85860000D01*
X219682408Y-85810991D01*
X219689607Y-85762455D01*
X219701530Y-85714858D01*
X219718060Y-85668658D01*
X219739039Y-85624302D01*
X219764265Y-85582215D01*
X219793495Y-85542803D01*
X219826447Y-85506447D01*
X219862803Y-85473495D01*
X219902215Y-85444265D01*
X219944302Y-85419039D01*
X219988658Y-85398060D01*
X220034858Y-85381530D01*
X220082455Y-85369607D01*
X220130991Y-85362408D01*
X220180000Y-85360000D01*
X221780000Y-85360000D01*
X221829009Y-85362408D01*
X221829009Y-85362408D01*
G37*
D16*
X220980000Y-86360000D03*
D15*
G36*
X221829009Y-82822408D02*
G01*
X221877545Y-82829607D01*
X221925142Y-82841530D01*
X221971342Y-82858060D01*
X222015698Y-82879039D01*
X222057785Y-82904265D01*
X222097197Y-82933495D01*
X222133553Y-82966447D01*
X222166505Y-83002803D01*
X222195735Y-83042215D01*
X222220961Y-83084302D01*
X222241940Y-83128658D01*
X222258470Y-83174858D01*
X222270393Y-83222455D01*
X222277592Y-83270991D01*
X222280000Y-83320000D01*
X222280000Y-84320000D01*
X222277592Y-84369009D01*
X222270393Y-84417545D01*
X222258470Y-84465142D01*
X222241940Y-84511342D01*
X222220961Y-84555698D01*
X222195735Y-84597785D01*
X222166505Y-84637197D01*
X222133553Y-84673553D01*
X222097197Y-84706505D01*
X222057785Y-84735735D01*
X222015698Y-84760961D01*
X221971342Y-84781940D01*
X221925142Y-84798470D01*
X221877545Y-84810393D01*
X221829009Y-84817592D01*
X221780000Y-84820000D01*
X220180000Y-84820000D01*
X220130991Y-84817592D01*
X220082455Y-84810393D01*
X220034858Y-84798470D01*
X219988658Y-84781940D01*
X219944302Y-84760961D01*
X219902215Y-84735735D01*
X219862803Y-84706505D01*
X219826447Y-84673553D01*
X219793495Y-84637197D01*
X219764265Y-84597785D01*
X219739039Y-84555698D01*
X219718060Y-84511342D01*
X219701530Y-84465142D01*
X219689607Y-84417545D01*
X219682408Y-84369009D01*
X219680000Y-84320000D01*
X219680000Y-83320000D01*
X219682408Y-83270991D01*
X219689607Y-83222455D01*
X219701530Y-83174858D01*
X219718060Y-83128658D01*
X219739039Y-83084302D01*
X219764265Y-83042215D01*
X219793495Y-83002803D01*
X219826447Y-82966447D01*
X219862803Y-82933495D01*
X219902215Y-82904265D01*
X219944302Y-82879039D01*
X219988658Y-82858060D01*
X220034858Y-82841530D01*
X220082455Y-82829607D01*
X220130991Y-82822408D01*
X220180000Y-82820000D01*
X221780000Y-82820000D01*
X221829009Y-82822408D01*
X221829009Y-82822408D01*
G37*
D16*
X220980000Y-83820000D03*
D15*
G36*
X221829009Y-80282408D02*
G01*
X221877545Y-80289607D01*
X221925142Y-80301530D01*
X221971342Y-80318060D01*
X222015698Y-80339039D01*
X222057785Y-80364265D01*
X222097197Y-80393495D01*
X222133553Y-80426447D01*
X222166505Y-80462803D01*
X222195735Y-80502215D01*
X222220961Y-80544302D01*
X222241940Y-80588658D01*
X222258470Y-80634858D01*
X222270393Y-80682455D01*
X222277592Y-80730991D01*
X222280000Y-80780000D01*
X222280000Y-81780000D01*
X222277592Y-81829009D01*
X222270393Y-81877545D01*
X222258470Y-81925142D01*
X222241940Y-81971342D01*
X222220961Y-82015698D01*
X222195735Y-82057785D01*
X222166505Y-82097197D01*
X222133553Y-82133553D01*
X222097197Y-82166505D01*
X222057785Y-82195735D01*
X222015698Y-82220961D01*
X221971342Y-82241940D01*
X221925142Y-82258470D01*
X221877545Y-82270393D01*
X221829009Y-82277592D01*
X221780000Y-82280000D01*
X220180000Y-82280000D01*
X220130991Y-82277592D01*
X220082455Y-82270393D01*
X220034858Y-82258470D01*
X219988658Y-82241940D01*
X219944302Y-82220961D01*
X219902215Y-82195735D01*
X219862803Y-82166505D01*
X219826447Y-82133553D01*
X219793495Y-82097197D01*
X219764265Y-82057785D01*
X219739039Y-82015698D01*
X219718060Y-81971342D01*
X219701530Y-81925142D01*
X219689607Y-81877545D01*
X219682408Y-81829009D01*
X219680000Y-81780000D01*
X219680000Y-80780000D01*
X219682408Y-80730991D01*
X219689607Y-80682455D01*
X219701530Y-80634858D01*
X219718060Y-80588658D01*
X219739039Y-80544302D01*
X219764265Y-80502215D01*
X219793495Y-80462803D01*
X219826447Y-80426447D01*
X219862803Y-80393495D01*
X219902215Y-80364265D01*
X219944302Y-80339039D01*
X219988658Y-80318060D01*
X220034858Y-80301530D01*
X220082455Y-80289607D01*
X220130991Y-80282408D01*
X220180000Y-80280000D01*
X221780000Y-80280000D01*
X221829009Y-80282408D01*
X221829009Y-80282408D01*
G37*
D16*
X220980000Y-81280000D03*
D15*
G36*
X221829009Y-77742408D02*
G01*
X221877545Y-77749607D01*
X221925142Y-77761530D01*
X221971342Y-77778060D01*
X222015698Y-77799039D01*
X222057785Y-77824265D01*
X222097197Y-77853495D01*
X222133553Y-77886447D01*
X222166505Y-77922803D01*
X222195735Y-77962215D01*
X222220961Y-78004302D01*
X222241940Y-78048658D01*
X222258470Y-78094858D01*
X222270393Y-78142455D01*
X222277592Y-78190991D01*
X222280000Y-78240000D01*
X222280000Y-79240000D01*
X222277592Y-79289009D01*
X222270393Y-79337545D01*
X222258470Y-79385142D01*
X222241940Y-79431342D01*
X222220961Y-79475698D01*
X222195735Y-79517785D01*
X222166505Y-79557197D01*
X222133553Y-79593553D01*
X222097197Y-79626505D01*
X222057785Y-79655735D01*
X222015698Y-79680961D01*
X221971342Y-79701940D01*
X221925142Y-79718470D01*
X221877545Y-79730393D01*
X221829009Y-79737592D01*
X221780000Y-79740000D01*
X220180000Y-79740000D01*
X220130991Y-79737592D01*
X220082455Y-79730393D01*
X220034858Y-79718470D01*
X219988658Y-79701940D01*
X219944302Y-79680961D01*
X219902215Y-79655735D01*
X219862803Y-79626505D01*
X219826447Y-79593553D01*
X219793495Y-79557197D01*
X219764265Y-79517785D01*
X219739039Y-79475698D01*
X219718060Y-79431342D01*
X219701530Y-79385142D01*
X219689607Y-79337545D01*
X219682408Y-79289009D01*
X219680000Y-79240000D01*
X219680000Y-78240000D01*
X219682408Y-78190991D01*
X219689607Y-78142455D01*
X219701530Y-78094858D01*
X219718060Y-78048658D01*
X219739039Y-78004302D01*
X219764265Y-77962215D01*
X219793495Y-77922803D01*
X219826447Y-77886447D01*
X219862803Y-77853495D01*
X219902215Y-77824265D01*
X219944302Y-77799039D01*
X219988658Y-77778060D01*
X220034858Y-77761530D01*
X220082455Y-77749607D01*
X220130991Y-77742408D01*
X220180000Y-77740000D01*
X221780000Y-77740000D01*
X221829009Y-77742408D01*
X221829009Y-77742408D01*
G37*
D16*
X220980000Y-78740000D03*
D15*
G36*
X221829009Y-75202408D02*
G01*
X221877545Y-75209607D01*
X221925142Y-75221530D01*
X221971342Y-75238060D01*
X222015698Y-75259039D01*
X222057785Y-75284265D01*
X222097197Y-75313495D01*
X222133553Y-75346447D01*
X222166505Y-75382803D01*
X222195735Y-75422215D01*
X222220961Y-75464302D01*
X222241940Y-75508658D01*
X222258470Y-75554858D01*
X222270393Y-75602455D01*
X222277592Y-75650991D01*
X222280000Y-75700000D01*
X222280000Y-76700000D01*
X222277592Y-76749009D01*
X222270393Y-76797545D01*
X222258470Y-76845142D01*
X222241940Y-76891342D01*
X222220961Y-76935698D01*
X222195735Y-76977785D01*
X222166505Y-77017197D01*
X222133553Y-77053553D01*
X222097197Y-77086505D01*
X222057785Y-77115735D01*
X222015698Y-77140961D01*
X221971342Y-77161940D01*
X221925142Y-77178470D01*
X221877545Y-77190393D01*
X221829009Y-77197592D01*
X221780000Y-77200000D01*
X220180000Y-77200000D01*
X220130991Y-77197592D01*
X220082455Y-77190393D01*
X220034858Y-77178470D01*
X219988658Y-77161940D01*
X219944302Y-77140961D01*
X219902215Y-77115735D01*
X219862803Y-77086505D01*
X219826447Y-77053553D01*
X219793495Y-77017197D01*
X219764265Y-76977785D01*
X219739039Y-76935698D01*
X219718060Y-76891342D01*
X219701530Y-76845142D01*
X219689607Y-76797545D01*
X219682408Y-76749009D01*
X219680000Y-76700000D01*
X219680000Y-75700000D01*
X219682408Y-75650991D01*
X219689607Y-75602455D01*
X219701530Y-75554858D01*
X219718060Y-75508658D01*
X219739039Y-75464302D01*
X219764265Y-75422215D01*
X219793495Y-75382803D01*
X219826447Y-75346447D01*
X219862803Y-75313495D01*
X219902215Y-75284265D01*
X219944302Y-75259039D01*
X219988658Y-75238060D01*
X220034858Y-75221530D01*
X220082455Y-75209607D01*
X220130991Y-75202408D01*
X220180000Y-75200000D01*
X221780000Y-75200000D01*
X221829009Y-75202408D01*
X221829009Y-75202408D01*
G37*
D16*
X220980000Y-76200000D03*
D15*
G36*
X221829009Y-72662408D02*
G01*
X221877545Y-72669607D01*
X221925142Y-72681530D01*
X221971342Y-72698060D01*
X222015698Y-72719039D01*
X222057785Y-72744265D01*
X222097197Y-72773495D01*
X222133553Y-72806447D01*
X222166505Y-72842803D01*
X222195735Y-72882215D01*
X222220961Y-72924302D01*
X222241940Y-72968658D01*
X222258470Y-73014858D01*
X222270393Y-73062455D01*
X222277592Y-73110991D01*
X222280000Y-73160000D01*
X222280000Y-74160000D01*
X222277592Y-74209009D01*
X222270393Y-74257545D01*
X222258470Y-74305142D01*
X222241940Y-74351342D01*
X222220961Y-74395698D01*
X222195735Y-74437785D01*
X222166505Y-74477197D01*
X222133553Y-74513553D01*
X222097197Y-74546505D01*
X222057785Y-74575735D01*
X222015698Y-74600961D01*
X221971342Y-74621940D01*
X221925142Y-74638470D01*
X221877545Y-74650393D01*
X221829009Y-74657592D01*
X221780000Y-74660000D01*
X220180000Y-74660000D01*
X220130991Y-74657592D01*
X220082455Y-74650393D01*
X220034858Y-74638470D01*
X219988658Y-74621940D01*
X219944302Y-74600961D01*
X219902215Y-74575735D01*
X219862803Y-74546505D01*
X219826447Y-74513553D01*
X219793495Y-74477197D01*
X219764265Y-74437785D01*
X219739039Y-74395698D01*
X219718060Y-74351342D01*
X219701530Y-74305142D01*
X219689607Y-74257545D01*
X219682408Y-74209009D01*
X219680000Y-74160000D01*
X219680000Y-73160000D01*
X219682408Y-73110991D01*
X219689607Y-73062455D01*
X219701530Y-73014858D01*
X219718060Y-72968658D01*
X219739039Y-72924302D01*
X219764265Y-72882215D01*
X219793495Y-72842803D01*
X219826447Y-72806447D01*
X219862803Y-72773495D01*
X219902215Y-72744265D01*
X219944302Y-72719039D01*
X219988658Y-72698060D01*
X220034858Y-72681530D01*
X220082455Y-72669607D01*
X220130991Y-72662408D01*
X220180000Y-72660000D01*
X221780000Y-72660000D01*
X221829009Y-72662408D01*
X221829009Y-72662408D01*
G37*
D16*
X220980000Y-73660000D03*
D15*
G36*
X221829009Y-70122408D02*
G01*
X221877545Y-70129607D01*
X221925142Y-70141530D01*
X221971342Y-70158060D01*
X222015698Y-70179039D01*
X222057785Y-70204265D01*
X222097197Y-70233495D01*
X222133553Y-70266447D01*
X222166505Y-70302803D01*
X222195735Y-70342215D01*
X222220961Y-70384302D01*
X222241940Y-70428658D01*
X222258470Y-70474858D01*
X222270393Y-70522455D01*
X222277592Y-70570991D01*
X222280000Y-70620000D01*
X222280000Y-71620000D01*
X222277592Y-71669009D01*
X222270393Y-71717545D01*
X222258470Y-71765142D01*
X222241940Y-71811342D01*
X222220961Y-71855698D01*
X222195735Y-71897785D01*
X222166505Y-71937197D01*
X222133553Y-71973553D01*
X222097197Y-72006505D01*
X222057785Y-72035735D01*
X222015698Y-72060961D01*
X221971342Y-72081940D01*
X221925142Y-72098470D01*
X221877545Y-72110393D01*
X221829009Y-72117592D01*
X221780000Y-72120000D01*
X220180000Y-72120000D01*
X220130991Y-72117592D01*
X220082455Y-72110393D01*
X220034858Y-72098470D01*
X219988658Y-72081940D01*
X219944302Y-72060961D01*
X219902215Y-72035735D01*
X219862803Y-72006505D01*
X219826447Y-71973553D01*
X219793495Y-71937197D01*
X219764265Y-71897785D01*
X219739039Y-71855698D01*
X219718060Y-71811342D01*
X219701530Y-71765142D01*
X219689607Y-71717545D01*
X219682408Y-71669009D01*
X219680000Y-71620000D01*
X219680000Y-70620000D01*
X219682408Y-70570991D01*
X219689607Y-70522455D01*
X219701530Y-70474858D01*
X219718060Y-70428658D01*
X219739039Y-70384302D01*
X219764265Y-70342215D01*
X219793495Y-70302803D01*
X219826447Y-70266447D01*
X219862803Y-70233495D01*
X219902215Y-70204265D01*
X219944302Y-70179039D01*
X219988658Y-70158060D01*
X220034858Y-70141530D01*
X220082455Y-70129607D01*
X220130991Y-70122408D01*
X220180000Y-70120000D01*
X221780000Y-70120000D01*
X221829009Y-70122408D01*
X221829009Y-70122408D01*
G37*
D16*
X220980000Y-71120000D03*
D15*
G36*
X221829009Y-67582408D02*
G01*
X221877545Y-67589607D01*
X221925142Y-67601530D01*
X221971342Y-67618060D01*
X222015698Y-67639039D01*
X222057785Y-67664265D01*
X222097197Y-67693495D01*
X222133553Y-67726447D01*
X222166505Y-67762803D01*
X222195735Y-67802215D01*
X222220961Y-67844302D01*
X222241940Y-67888658D01*
X222258470Y-67934858D01*
X222270393Y-67982455D01*
X222277592Y-68030991D01*
X222280000Y-68080000D01*
X222280000Y-69080000D01*
X222277592Y-69129009D01*
X222270393Y-69177545D01*
X222258470Y-69225142D01*
X222241940Y-69271342D01*
X222220961Y-69315698D01*
X222195735Y-69357785D01*
X222166505Y-69397197D01*
X222133553Y-69433553D01*
X222097197Y-69466505D01*
X222057785Y-69495735D01*
X222015698Y-69520961D01*
X221971342Y-69541940D01*
X221925142Y-69558470D01*
X221877545Y-69570393D01*
X221829009Y-69577592D01*
X221780000Y-69580000D01*
X220180000Y-69580000D01*
X220130991Y-69577592D01*
X220082455Y-69570393D01*
X220034858Y-69558470D01*
X219988658Y-69541940D01*
X219944302Y-69520961D01*
X219902215Y-69495735D01*
X219862803Y-69466505D01*
X219826447Y-69433553D01*
X219793495Y-69397197D01*
X219764265Y-69357785D01*
X219739039Y-69315698D01*
X219718060Y-69271342D01*
X219701530Y-69225142D01*
X219689607Y-69177545D01*
X219682408Y-69129009D01*
X219680000Y-69080000D01*
X219680000Y-68080000D01*
X219682408Y-68030991D01*
X219689607Y-67982455D01*
X219701530Y-67934858D01*
X219718060Y-67888658D01*
X219739039Y-67844302D01*
X219764265Y-67802215D01*
X219793495Y-67762803D01*
X219826447Y-67726447D01*
X219862803Y-67693495D01*
X219902215Y-67664265D01*
X219944302Y-67639039D01*
X219988658Y-67618060D01*
X220034858Y-67601530D01*
X220082455Y-67589607D01*
X220130991Y-67582408D01*
X220180000Y-67580000D01*
X221780000Y-67580000D01*
X221829009Y-67582408D01*
X221829009Y-67582408D01*
G37*
D16*
X220980000Y-68580000D03*
D15*
G36*
X221829009Y-65042408D02*
G01*
X221877545Y-65049607D01*
X221925142Y-65061530D01*
X221971342Y-65078060D01*
X222015698Y-65099039D01*
X222057785Y-65124265D01*
X222097197Y-65153495D01*
X222133553Y-65186447D01*
X222166505Y-65222803D01*
X222195735Y-65262215D01*
X222220961Y-65304302D01*
X222241940Y-65348658D01*
X222258470Y-65394858D01*
X222270393Y-65442455D01*
X222277592Y-65490991D01*
X222280000Y-65540000D01*
X222280000Y-66540000D01*
X222277592Y-66589009D01*
X222270393Y-66637545D01*
X222258470Y-66685142D01*
X222241940Y-66731342D01*
X222220961Y-66775698D01*
X222195735Y-66817785D01*
X222166505Y-66857197D01*
X222133553Y-66893553D01*
X222097197Y-66926505D01*
X222057785Y-66955735D01*
X222015698Y-66980961D01*
X221971342Y-67001940D01*
X221925142Y-67018470D01*
X221877545Y-67030393D01*
X221829009Y-67037592D01*
X221780000Y-67040000D01*
X220180000Y-67040000D01*
X220130991Y-67037592D01*
X220082455Y-67030393D01*
X220034858Y-67018470D01*
X219988658Y-67001940D01*
X219944302Y-66980961D01*
X219902215Y-66955735D01*
X219862803Y-66926505D01*
X219826447Y-66893553D01*
X219793495Y-66857197D01*
X219764265Y-66817785D01*
X219739039Y-66775698D01*
X219718060Y-66731342D01*
X219701530Y-66685142D01*
X219689607Y-66637545D01*
X219682408Y-66589009D01*
X219680000Y-66540000D01*
X219680000Y-65540000D01*
X219682408Y-65490991D01*
X219689607Y-65442455D01*
X219701530Y-65394858D01*
X219718060Y-65348658D01*
X219739039Y-65304302D01*
X219764265Y-65262215D01*
X219793495Y-65222803D01*
X219826447Y-65186447D01*
X219862803Y-65153495D01*
X219902215Y-65124265D01*
X219944302Y-65099039D01*
X219988658Y-65078060D01*
X220034858Y-65061530D01*
X220082455Y-65049607D01*
X220130991Y-65042408D01*
X220180000Y-65040000D01*
X221780000Y-65040000D01*
X221829009Y-65042408D01*
X221829009Y-65042408D01*
G37*
D16*
X220980000Y-66040000D03*
D15*
G36*
X221829009Y-62502408D02*
G01*
X221877545Y-62509607D01*
X221925142Y-62521530D01*
X221971342Y-62538060D01*
X222015698Y-62559039D01*
X222057785Y-62584265D01*
X222097197Y-62613495D01*
X222133553Y-62646447D01*
X222166505Y-62682803D01*
X222195735Y-62722215D01*
X222220961Y-62764302D01*
X222241940Y-62808658D01*
X222258470Y-62854858D01*
X222270393Y-62902455D01*
X222277592Y-62950991D01*
X222280000Y-63000000D01*
X222280000Y-64000000D01*
X222277592Y-64049009D01*
X222270393Y-64097545D01*
X222258470Y-64145142D01*
X222241940Y-64191342D01*
X222220961Y-64235698D01*
X222195735Y-64277785D01*
X222166505Y-64317197D01*
X222133553Y-64353553D01*
X222097197Y-64386505D01*
X222057785Y-64415735D01*
X222015698Y-64440961D01*
X221971342Y-64461940D01*
X221925142Y-64478470D01*
X221877545Y-64490393D01*
X221829009Y-64497592D01*
X221780000Y-64500000D01*
X220180000Y-64500000D01*
X220130991Y-64497592D01*
X220082455Y-64490393D01*
X220034858Y-64478470D01*
X219988658Y-64461940D01*
X219944302Y-64440961D01*
X219902215Y-64415735D01*
X219862803Y-64386505D01*
X219826447Y-64353553D01*
X219793495Y-64317197D01*
X219764265Y-64277785D01*
X219739039Y-64235698D01*
X219718060Y-64191342D01*
X219701530Y-64145142D01*
X219689607Y-64097545D01*
X219682408Y-64049009D01*
X219680000Y-64000000D01*
X219680000Y-63000000D01*
X219682408Y-62950991D01*
X219689607Y-62902455D01*
X219701530Y-62854858D01*
X219718060Y-62808658D01*
X219739039Y-62764302D01*
X219764265Y-62722215D01*
X219793495Y-62682803D01*
X219826447Y-62646447D01*
X219862803Y-62613495D01*
X219902215Y-62584265D01*
X219944302Y-62559039D01*
X219988658Y-62538060D01*
X220034858Y-62521530D01*
X220082455Y-62509607D01*
X220130991Y-62502408D01*
X220180000Y-62500000D01*
X221780000Y-62500000D01*
X221829009Y-62502408D01*
X221829009Y-62502408D01*
G37*
D16*
X220980000Y-63500000D03*
D15*
G36*
X221829009Y-59962408D02*
G01*
X221877545Y-59969607D01*
X221925142Y-59981530D01*
X221971342Y-59998060D01*
X222015698Y-60019039D01*
X222057785Y-60044265D01*
X222097197Y-60073495D01*
X222133553Y-60106447D01*
X222166505Y-60142803D01*
X222195735Y-60182215D01*
X222220961Y-60224302D01*
X222241940Y-60268658D01*
X222258470Y-60314858D01*
X222270393Y-60362455D01*
X222277592Y-60410991D01*
X222280000Y-60460000D01*
X222280000Y-61460000D01*
X222277592Y-61509009D01*
X222270393Y-61557545D01*
X222258470Y-61605142D01*
X222241940Y-61651342D01*
X222220961Y-61695698D01*
X222195735Y-61737785D01*
X222166505Y-61777197D01*
X222133553Y-61813553D01*
X222097197Y-61846505D01*
X222057785Y-61875735D01*
X222015698Y-61900961D01*
X221971342Y-61921940D01*
X221925142Y-61938470D01*
X221877545Y-61950393D01*
X221829009Y-61957592D01*
X221780000Y-61960000D01*
X220180000Y-61960000D01*
X220130991Y-61957592D01*
X220082455Y-61950393D01*
X220034858Y-61938470D01*
X219988658Y-61921940D01*
X219944302Y-61900961D01*
X219902215Y-61875735D01*
X219862803Y-61846505D01*
X219826447Y-61813553D01*
X219793495Y-61777197D01*
X219764265Y-61737785D01*
X219739039Y-61695698D01*
X219718060Y-61651342D01*
X219701530Y-61605142D01*
X219689607Y-61557545D01*
X219682408Y-61509009D01*
X219680000Y-61460000D01*
X219680000Y-60460000D01*
X219682408Y-60410991D01*
X219689607Y-60362455D01*
X219701530Y-60314858D01*
X219718060Y-60268658D01*
X219739039Y-60224302D01*
X219764265Y-60182215D01*
X219793495Y-60142803D01*
X219826447Y-60106447D01*
X219862803Y-60073495D01*
X219902215Y-60044265D01*
X219944302Y-60019039D01*
X219988658Y-59998060D01*
X220034858Y-59981530D01*
X220082455Y-59969607D01*
X220130991Y-59962408D01*
X220180000Y-59960000D01*
X221780000Y-59960000D01*
X221829009Y-59962408D01*
X221829009Y-59962408D01*
G37*
D16*
X220980000Y-60960000D03*
D15*
G36*
X221829009Y-57422408D02*
G01*
X221877545Y-57429607D01*
X221925142Y-57441530D01*
X221971342Y-57458060D01*
X222015698Y-57479039D01*
X222057785Y-57504265D01*
X222097197Y-57533495D01*
X222133553Y-57566447D01*
X222166505Y-57602803D01*
X222195735Y-57642215D01*
X222220961Y-57684302D01*
X222241940Y-57728658D01*
X222258470Y-57774858D01*
X222270393Y-57822455D01*
X222277592Y-57870991D01*
X222280000Y-57920000D01*
X222280000Y-58920000D01*
X222277592Y-58969009D01*
X222270393Y-59017545D01*
X222258470Y-59065142D01*
X222241940Y-59111342D01*
X222220961Y-59155698D01*
X222195735Y-59197785D01*
X222166505Y-59237197D01*
X222133553Y-59273553D01*
X222097197Y-59306505D01*
X222057785Y-59335735D01*
X222015698Y-59360961D01*
X221971342Y-59381940D01*
X221925142Y-59398470D01*
X221877545Y-59410393D01*
X221829009Y-59417592D01*
X221780000Y-59420000D01*
X220180000Y-59420000D01*
X220130991Y-59417592D01*
X220082455Y-59410393D01*
X220034858Y-59398470D01*
X219988658Y-59381940D01*
X219944302Y-59360961D01*
X219902215Y-59335735D01*
X219862803Y-59306505D01*
X219826447Y-59273553D01*
X219793495Y-59237197D01*
X219764265Y-59197785D01*
X219739039Y-59155698D01*
X219718060Y-59111342D01*
X219701530Y-59065142D01*
X219689607Y-59017545D01*
X219682408Y-58969009D01*
X219680000Y-58920000D01*
X219680000Y-57920000D01*
X219682408Y-57870991D01*
X219689607Y-57822455D01*
X219701530Y-57774858D01*
X219718060Y-57728658D01*
X219739039Y-57684302D01*
X219764265Y-57642215D01*
X219793495Y-57602803D01*
X219826447Y-57566447D01*
X219862803Y-57533495D01*
X219902215Y-57504265D01*
X219944302Y-57479039D01*
X219988658Y-57458060D01*
X220034858Y-57441530D01*
X220082455Y-57429607D01*
X220130991Y-57422408D01*
X220180000Y-57420000D01*
X221780000Y-57420000D01*
X221829009Y-57422408D01*
X221829009Y-57422408D01*
G37*
D16*
X220980000Y-58420000D03*
D15*
G36*
X221829009Y-54882408D02*
G01*
X221877545Y-54889607D01*
X221925142Y-54901530D01*
X221971342Y-54918060D01*
X222015698Y-54939039D01*
X222057785Y-54964265D01*
X222097197Y-54993495D01*
X222133553Y-55026447D01*
X222166505Y-55062803D01*
X222195735Y-55102215D01*
X222220961Y-55144302D01*
X222241940Y-55188658D01*
X222258470Y-55234858D01*
X222270393Y-55282455D01*
X222277592Y-55330991D01*
X222280000Y-55380000D01*
X222280000Y-56380000D01*
X222277592Y-56429009D01*
X222270393Y-56477545D01*
X222258470Y-56525142D01*
X222241940Y-56571342D01*
X222220961Y-56615698D01*
X222195735Y-56657785D01*
X222166505Y-56697197D01*
X222133553Y-56733553D01*
X222097197Y-56766505D01*
X222057785Y-56795735D01*
X222015698Y-56820961D01*
X221971342Y-56841940D01*
X221925142Y-56858470D01*
X221877545Y-56870393D01*
X221829009Y-56877592D01*
X221780000Y-56880000D01*
X220180000Y-56880000D01*
X220130991Y-56877592D01*
X220082455Y-56870393D01*
X220034858Y-56858470D01*
X219988658Y-56841940D01*
X219944302Y-56820961D01*
X219902215Y-56795735D01*
X219862803Y-56766505D01*
X219826447Y-56733553D01*
X219793495Y-56697197D01*
X219764265Y-56657785D01*
X219739039Y-56615698D01*
X219718060Y-56571342D01*
X219701530Y-56525142D01*
X219689607Y-56477545D01*
X219682408Y-56429009D01*
X219680000Y-56380000D01*
X219680000Y-55380000D01*
X219682408Y-55330991D01*
X219689607Y-55282455D01*
X219701530Y-55234858D01*
X219718060Y-55188658D01*
X219739039Y-55144302D01*
X219764265Y-55102215D01*
X219793495Y-55062803D01*
X219826447Y-55026447D01*
X219862803Y-54993495D01*
X219902215Y-54964265D01*
X219944302Y-54939039D01*
X219988658Y-54918060D01*
X220034858Y-54901530D01*
X220082455Y-54889607D01*
X220130991Y-54882408D01*
X220180000Y-54880000D01*
X221780000Y-54880000D01*
X221829009Y-54882408D01*
X221829009Y-54882408D01*
G37*
D16*
X220980000Y-55880000D03*
D15*
G36*
X221829009Y-52342408D02*
G01*
X221877545Y-52349607D01*
X221925142Y-52361530D01*
X221971342Y-52378060D01*
X222015698Y-52399039D01*
X222057785Y-52424265D01*
X222097197Y-52453495D01*
X222133553Y-52486447D01*
X222166505Y-52522803D01*
X222195735Y-52562215D01*
X222220961Y-52604302D01*
X222241940Y-52648658D01*
X222258470Y-52694858D01*
X222270393Y-52742455D01*
X222277592Y-52790991D01*
X222280000Y-52840000D01*
X222280000Y-53840000D01*
X222277592Y-53889009D01*
X222270393Y-53937545D01*
X222258470Y-53985142D01*
X222241940Y-54031342D01*
X222220961Y-54075698D01*
X222195735Y-54117785D01*
X222166505Y-54157197D01*
X222133553Y-54193553D01*
X222097197Y-54226505D01*
X222057785Y-54255735D01*
X222015698Y-54280961D01*
X221971342Y-54301940D01*
X221925142Y-54318470D01*
X221877545Y-54330393D01*
X221829009Y-54337592D01*
X221780000Y-54340000D01*
X220180000Y-54340000D01*
X220130991Y-54337592D01*
X220082455Y-54330393D01*
X220034858Y-54318470D01*
X219988658Y-54301940D01*
X219944302Y-54280961D01*
X219902215Y-54255735D01*
X219862803Y-54226505D01*
X219826447Y-54193553D01*
X219793495Y-54157197D01*
X219764265Y-54117785D01*
X219739039Y-54075698D01*
X219718060Y-54031342D01*
X219701530Y-53985142D01*
X219689607Y-53937545D01*
X219682408Y-53889009D01*
X219680000Y-53840000D01*
X219680000Y-52840000D01*
X219682408Y-52790991D01*
X219689607Y-52742455D01*
X219701530Y-52694858D01*
X219718060Y-52648658D01*
X219739039Y-52604302D01*
X219764265Y-52562215D01*
X219793495Y-52522803D01*
X219826447Y-52486447D01*
X219862803Y-52453495D01*
X219902215Y-52424265D01*
X219944302Y-52399039D01*
X219988658Y-52378060D01*
X220034858Y-52361530D01*
X220082455Y-52349607D01*
X220130991Y-52342408D01*
X220180000Y-52340000D01*
X221780000Y-52340000D01*
X221829009Y-52342408D01*
X221829009Y-52342408D01*
G37*
D16*
X220980000Y-53340000D03*
D15*
G36*
X221829009Y-49802408D02*
G01*
X221877545Y-49809607D01*
X221925142Y-49821530D01*
X221971342Y-49838060D01*
X222015698Y-49859039D01*
X222057785Y-49884265D01*
X222097197Y-49913495D01*
X222133553Y-49946447D01*
X222166505Y-49982803D01*
X222195735Y-50022215D01*
X222220961Y-50064302D01*
X222241940Y-50108658D01*
X222258470Y-50154858D01*
X222270393Y-50202455D01*
X222277592Y-50250991D01*
X222280000Y-50300000D01*
X222280000Y-51300000D01*
X222277592Y-51349009D01*
X222270393Y-51397545D01*
X222258470Y-51445142D01*
X222241940Y-51491342D01*
X222220961Y-51535698D01*
X222195735Y-51577785D01*
X222166505Y-51617197D01*
X222133553Y-51653553D01*
X222097197Y-51686505D01*
X222057785Y-51715735D01*
X222015698Y-51740961D01*
X221971342Y-51761940D01*
X221925142Y-51778470D01*
X221877545Y-51790393D01*
X221829009Y-51797592D01*
X221780000Y-51800000D01*
X220180000Y-51800000D01*
X220130991Y-51797592D01*
X220082455Y-51790393D01*
X220034858Y-51778470D01*
X219988658Y-51761940D01*
X219944302Y-51740961D01*
X219902215Y-51715735D01*
X219862803Y-51686505D01*
X219826447Y-51653553D01*
X219793495Y-51617197D01*
X219764265Y-51577785D01*
X219739039Y-51535698D01*
X219718060Y-51491342D01*
X219701530Y-51445142D01*
X219689607Y-51397545D01*
X219682408Y-51349009D01*
X219680000Y-51300000D01*
X219680000Y-50300000D01*
X219682408Y-50250991D01*
X219689607Y-50202455D01*
X219701530Y-50154858D01*
X219718060Y-50108658D01*
X219739039Y-50064302D01*
X219764265Y-50022215D01*
X219793495Y-49982803D01*
X219826447Y-49946447D01*
X219862803Y-49913495D01*
X219902215Y-49884265D01*
X219944302Y-49859039D01*
X219988658Y-49838060D01*
X220034858Y-49821530D01*
X220082455Y-49809607D01*
X220130991Y-49802408D01*
X220180000Y-49800000D01*
X221780000Y-49800000D01*
X221829009Y-49802408D01*
X221829009Y-49802408D01*
G37*
D16*
X220980000Y-50800000D03*
D15*
G36*
X193589009Y-90142408D02*
G01*
X193637545Y-90149607D01*
X193685142Y-90161530D01*
X193731342Y-90178060D01*
X193775698Y-90199039D01*
X193817785Y-90224265D01*
X193857197Y-90253495D01*
X193893553Y-90286447D01*
X193926505Y-90322803D01*
X193955735Y-90362215D01*
X193980961Y-90404302D01*
X194001940Y-90448658D01*
X194018470Y-90494858D01*
X194030393Y-90542455D01*
X194037592Y-90590991D01*
X194040000Y-90640000D01*
X194040000Y-92240000D01*
X194037592Y-92289009D01*
X194030393Y-92337545D01*
X194018470Y-92385142D01*
X194001940Y-92431342D01*
X193980961Y-92475698D01*
X193955735Y-92517785D01*
X193926505Y-92557197D01*
X193893553Y-92593553D01*
X193857197Y-92626505D01*
X193817785Y-92655735D01*
X193775698Y-92680961D01*
X193731342Y-92701940D01*
X193685142Y-92718470D01*
X193637545Y-92730393D01*
X193589009Y-92737592D01*
X193540000Y-92740000D01*
X192540000Y-92740000D01*
X192490991Y-92737592D01*
X192442455Y-92730393D01*
X192394858Y-92718470D01*
X192348658Y-92701940D01*
X192304302Y-92680961D01*
X192262215Y-92655735D01*
X192222803Y-92626505D01*
X192186447Y-92593553D01*
X192153495Y-92557197D01*
X192124265Y-92517785D01*
X192099039Y-92475698D01*
X192078060Y-92431342D01*
X192061530Y-92385142D01*
X192049607Y-92337545D01*
X192042408Y-92289009D01*
X192040000Y-92240000D01*
X192040000Y-90640000D01*
X192042408Y-90590991D01*
X192049607Y-90542455D01*
X192061530Y-90494858D01*
X192078060Y-90448658D01*
X192099039Y-90404302D01*
X192124265Y-90362215D01*
X192153495Y-90322803D01*
X192186447Y-90286447D01*
X192222803Y-90253495D01*
X192262215Y-90224265D01*
X192304302Y-90199039D01*
X192348658Y-90178060D01*
X192394858Y-90161530D01*
X192442455Y-90149607D01*
X192490991Y-90142408D01*
X192540000Y-90140000D01*
X193540000Y-90140000D01*
X193589009Y-90142408D01*
X193589009Y-90142408D01*
G37*
D16*
X193040000Y-91440000D03*
D15*
G36*
X196129009Y-90142408D02*
G01*
X196177545Y-90149607D01*
X196225142Y-90161530D01*
X196271342Y-90178060D01*
X196315698Y-90199039D01*
X196357785Y-90224265D01*
X196397197Y-90253495D01*
X196433553Y-90286447D01*
X196466505Y-90322803D01*
X196495735Y-90362215D01*
X196520961Y-90404302D01*
X196541940Y-90448658D01*
X196558470Y-90494858D01*
X196570393Y-90542455D01*
X196577592Y-90590991D01*
X196580000Y-90640000D01*
X196580000Y-92240000D01*
X196577592Y-92289009D01*
X196570393Y-92337545D01*
X196558470Y-92385142D01*
X196541940Y-92431342D01*
X196520961Y-92475698D01*
X196495735Y-92517785D01*
X196466505Y-92557197D01*
X196433553Y-92593553D01*
X196397197Y-92626505D01*
X196357785Y-92655735D01*
X196315698Y-92680961D01*
X196271342Y-92701940D01*
X196225142Y-92718470D01*
X196177545Y-92730393D01*
X196129009Y-92737592D01*
X196080000Y-92740000D01*
X195080000Y-92740000D01*
X195030991Y-92737592D01*
X194982455Y-92730393D01*
X194934858Y-92718470D01*
X194888658Y-92701940D01*
X194844302Y-92680961D01*
X194802215Y-92655735D01*
X194762803Y-92626505D01*
X194726447Y-92593553D01*
X194693495Y-92557197D01*
X194664265Y-92517785D01*
X194639039Y-92475698D01*
X194618060Y-92431342D01*
X194601530Y-92385142D01*
X194589607Y-92337545D01*
X194582408Y-92289009D01*
X194580000Y-92240000D01*
X194580000Y-90640000D01*
X194582408Y-90590991D01*
X194589607Y-90542455D01*
X194601530Y-90494858D01*
X194618060Y-90448658D01*
X194639039Y-90404302D01*
X194664265Y-90362215D01*
X194693495Y-90322803D01*
X194726447Y-90286447D01*
X194762803Y-90253495D01*
X194802215Y-90224265D01*
X194844302Y-90199039D01*
X194888658Y-90178060D01*
X194934858Y-90161530D01*
X194982455Y-90149607D01*
X195030991Y-90142408D01*
X195080000Y-90140000D01*
X196080000Y-90140000D01*
X196129009Y-90142408D01*
X196129009Y-90142408D01*
G37*
D16*
X195580000Y-91440000D03*
D15*
G36*
X198669009Y-90142408D02*
G01*
X198717545Y-90149607D01*
X198765142Y-90161530D01*
X198811342Y-90178060D01*
X198855698Y-90199039D01*
X198897785Y-90224265D01*
X198937197Y-90253495D01*
X198973553Y-90286447D01*
X199006505Y-90322803D01*
X199035735Y-90362215D01*
X199060961Y-90404302D01*
X199081940Y-90448658D01*
X199098470Y-90494858D01*
X199110393Y-90542455D01*
X199117592Y-90590991D01*
X199120000Y-90640000D01*
X199120000Y-92240000D01*
X199117592Y-92289009D01*
X199110393Y-92337545D01*
X199098470Y-92385142D01*
X199081940Y-92431342D01*
X199060961Y-92475698D01*
X199035735Y-92517785D01*
X199006505Y-92557197D01*
X198973553Y-92593553D01*
X198937197Y-92626505D01*
X198897785Y-92655735D01*
X198855698Y-92680961D01*
X198811342Y-92701940D01*
X198765142Y-92718470D01*
X198717545Y-92730393D01*
X198669009Y-92737592D01*
X198620000Y-92740000D01*
X197620000Y-92740000D01*
X197570991Y-92737592D01*
X197522455Y-92730393D01*
X197474858Y-92718470D01*
X197428658Y-92701940D01*
X197384302Y-92680961D01*
X197342215Y-92655735D01*
X197302803Y-92626505D01*
X197266447Y-92593553D01*
X197233495Y-92557197D01*
X197204265Y-92517785D01*
X197179039Y-92475698D01*
X197158060Y-92431342D01*
X197141530Y-92385142D01*
X197129607Y-92337545D01*
X197122408Y-92289009D01*
X197120000Y-92240000D01*
X197120000Y-90640000D01*
X197122408Y-90590991D01*
X197129607Y-90542455D01*
X197141530Y-90494858D01*
X197158060Y-90448658D01*
X197179039Y-90404302D01*
X197204265Y-90362215D01*
X197233495Y-90322803D01*
X197266447Y-90286447D01*
X197302803Y-90253495D01*
X197342215Y-90224265D01*
X197384302Y-90199039D01*
X197428658Y-90178060D01*
X197474858Y-90161530D01*
X197522455Y-90149607D01*
X197570991Y-90142408D01*
X197620000Y-90140000D01*
X198620000Y-90140000D01*
X198669009Y-90142408D01*
X198669009Y-90142408D01*
G37*
D16*
X198120000Y-91440000D03*
D15*
G36*
X201209009Y-90142408D02*
G01*
X201257545Y-90149607D01*
X201305142Y-90161530D01*
X201351342Y-90178060D01*
X201395698Y-90199039D01*
X201437785Y-90224265D01*
X201477197Y-90253495D01*
X201513553Y-90286447D01*
X201546505Y-90322803D01*
X201575735Y-90362215D01*
X201600961Y-90404302D01*
X201621940Y-90448658D01*
X201638470Y-90494858D01*
X201650393Y-90542455D01*
X201657592Y-90590991D01*
X201660000Y-90640000D01*
X201660000Y-92240000D01*
X201657592Y-92289009D01*
X201650393Y-92337545D01*
X201638470Y-92385142D01*
X201621940Y-92431342D01*
X201600961Y-92475698D01*
X201575735Y-92517785D01*
X201546505Y-92557197D01*
X201513553Y-92593553D01*
X201477197Y-92626505D01*
X201437785Y-92655735D01*
X201395698Y-92680961D01*
X201351342Y-92701940D01*
X201305142Y-92718470D01*
X201257545Y-92730393D01*
X201209009Y-92737592D01*
X201160000Y-92740000D01*
X200160000Y-92740000D01*
X200110991Y-92737592D01*
X200062455Y-92730393D01*
X200014858Y-92718470D01*
X199968658Y-92701940D01*
X199924302Y-92680961D01*
X199882215Y-92655735D01*
X199842803Y-92626505D01*
X199806447Y-92593553D01*
X199773495Y-92557197D01*
X199744265Y-92517785D01*
X199719039Y-92475698D01*
X199698060Y-92431342D01*
X199681530Y-92385142D01*
X199669607Y-92337545D01*
X199662408Y-92289009D01*
X199660000Y-92240000D01*
X199660000Y-90640000D01*
X199662408Y-90590991D01*
X199669607Y-90542455D01*
X199681530Y-90494858D01*
X199698060Y-90448658D01*
X199719039Y-90404302D01*
X199744265Y-90362215D01*
X199773495Y-90322803D01*
X199806447Y-90286447D01*
X199842803Y-90253495D01*
X199882215Y-90224265D01*
X199924302Y-90199039D01*
X199968658Y-90178060D01*
X200014858Y-90161530D01*
X200062455Y-90149607D01*
X200110991Y-90142408D01*
X200160000Y-90140000D01*
X201160000Y-90140000D01*
X201209009Y-90142408D01*
X201209009Y-90142408D01*
G37*
D16*
X200660000Y-91440000D03*
D15*
G36*
X203749009Y-90142408D02*
G01*
X203797545Y-90149607D01*
X203845142Y-90161530D01*
X203891342Y-90178060D01*
X203935698Y-90199039D01*
X203977785Y-90224265D01*
X204017197Y-90253495D01*
X204053553Y-90286447D01*
X204086505Y-90322803D01*
X204115735Y-90362215D01*
X204140961Y-90404302D01*
X204161940Y-90448658D01*
X204178470Y-90494858D01*
X204190393Y-90542455D01*
X204197592Y-90590991D01*
X204200000Y-90640000D01*
X204200000Y-92240000D01*
X204197592Y-92289009D01*
X204190393Y-92337545D01*
X204178470Y-92385142D01*
X204161940Y-92431342D01*
X204140961Y-92475698D01*
X204115735Y-92517785D01*
X204086505Y-92557197D01*
X204053553Y-92593553D01*
X204017197Y-92626505D01*
X203977785Y-92655735D01*
X203935698Y-92680961D01*
X203891342Y-92701940D01*
X203845142Y-92718470D01*
X203797545Y-92730393D01*
X203749009Y-92737592D01*
X203700000Y-92740000D01*
X202700000Y-92740000D01*
X202650991Y-92737592D01*
X202602455Y-92730393D01*
X202554858Y-92718470D01*
X202508658Y-92701940D01*
X202464302Y-92680961D01*
X202422215Y-92655735D01*
X202382803Y-92626505D01*
X202346447Y-92593553D01*
X202313495Y-92557197D01*
X202284265Y-92517785D01*
X202259039Y-92475698D01*
X202238060Y-92431342D01*
X202221530Y-92385142D01*
X202209607Y-92337545D01*
X202202408Y-92289009D01*
X202200000Y-92240000D01*
X202200000Y-90640000D01*
X202202408Y-90590991D01*
X202209607Y-90542455D01*
X202221530Y-90494858D01*
X202238060Y-90448658D01*
X202259039Y-90404302D01*
X202284265Y-90362215D01*
X202313495Y-90322803D01*
X202346447Y-90286447D01*
X202382803Y-90253495D01*
X202422215Y-90224265D01*
X202464302Y-90199039D01*
X202508658Y-90178060D01*
X202554858Y-90161530D01*
X202602455Y-90149607D01*
X202650991Y-90142408D01*
X202700000Y-90140000D01*
X203700000Y-90140000D01*
X203749009Y-90142408D01*
X203749009Y-90142408D01*
G37*
D16*
X203200000Y-91440000D03*
D15*
G36*
X206289009Y-90142408D02*
G01*
X206337545Y-90149607D01*
X206385142Y-90161530D01*
X206431342Y-90178060D01*
X206475698Y-90199039D01*
X206517785Y-90224265D01*
X206557197Y-90253495D01*
X206593553Y-90286447D01*
X206626505Y-90322803D01*
X206655735Y-90362215D01*
X206680961Y-90404302D01*
X206701940Y-90448658D01*
X206718470Y-90494858D01*
X206730393Y-90542455D01*
X206737592Y-90590991D01*
X206740000Y-90640000D01*
X206740000Y-92240000D01*
X206737592Y-92289009D01*
X206730393Y-92337545D01*
X206718470Y-92385142D01*
X206701940Y-92431342D01*
X206680961Y-92475698D01*
X206655735Y-92517785D01*
X206626505Y-92557197D01*
X206593553Y-92593553D01*
X206557197Y-92626505D01*
X206517785Y-92655735D01*
X206475698Y-92680961D01*
X206431342Y-92701940D01*
X206385142Y-92718470D01*
X206337545Y-92730393D01*
X206289009Y-92737592D01*
X206240000Y-92740000D01*
X205240000Y-92740000D01*
X205190991Y-92737592D01*
X205142455Y-92730393D01*
X205094858Y-92718470D01*
X205048658Y-92701940D01*
X205004302Y-92680961D01*
X204962215Y-92655735D01*
X204922803Y-92626505D01*
X204886447Y-92593553D01*
X204853495Y-92557197D01*
X204824265Y-92517785D01*
X204799039Y-92475698D01*
X204778060Y-92431342D01*
X204761530Y-92385142D01*
X204749607Y-92337545D01*
X204742408Y-92289009D01*
X204740000Y-92240000D01*
X204740000Y-90640000D01*
X204742408Y-90590991D01*
X204749607Y-90542455D01*
X204761530Y-90494858D01*
X204778060Y-90448658D01*
X204799039Y-90404302D01*
X204824265Y-90362215D01*
X204853495Y-90322803D01*
X204886447Y-90286447D01*
X204922803Y-90253495D01*
X204962215Y-90224265D01*
X205004302Y-90199039D01*
X205048658Y-90178060D01*
X205094858Y-90161530D01*
X205142455Y-90149607D01*
X205190991Y-90142408D01*
X205240000Y-90140000D01*
X206240000Y-90140000D01*
X206289009Y-90142408D01*
X206289009Y-90142408D01*
G37*
D16*
X205740000Y-91440000D03*
D15*
G36*
X208829009Y-90142408D02*
G01*
X208877545Y-90149607D01*
X208925142Y-90161530D01*
X208971342Y-90178060D01*
X209015698Y-90199039D01*
X209057785Y-90224265D01*
X209097197Y-90253495D01*
X209133553Y-90286447D01*
X209166505Y-90322803D01*
X209195735Y-90362215D01*
X209220961Y-90404302D01*
X209241940Y-90448658D01*
X209258470Y-90494858D01*
X209270393Y-90542455D01*
X209277592Y-90590991D01*
X209280000Y-90640000D01*
X209280000Y-92240000D01*
X209277592Y-92289009D01*
X209270393Y-92337545D01*
X209258470Y-92385142D01*
X209241940Y-92431342D01*
X209220961Y-92475698D01*
X209195735Y-92517785D01*
X209166505Y-92557197D01*
X209133553Y-92593553D01*
X209097197Y-92626505D01*
X209057785Y-92655735D01*
X209015698Y-92680961D01*
X208971342Y-92701940D01*
X208925142Y-92718470D01*
X208877545Y-92730393D01*
X208829009Y-92737592D01*
X208780000Y-92740000D01*
X207780000Y-92740000D01*
X207730991Y-92737592D01*
X207682455Y-92730393D01*
X207634858Y-92718470D01*
X207588658Y-92701940D01*
X207544302Y-92680961D01*
X207502215Y-92655735D01*
X207462803Y-92626505D01*
X207426447Y-92593553D01*
X207393495Y-92557197D01*
X207364265Y-92517785D01*
X207339039Y-92475698D01*
X207318060Y-92431342D01*
X207301530Y-92385142D01*
X207289607Y-92337545D01*
X207282408Y-92289009D01*
X207280000Y-92240000D01*
X207280000Y-90640000D01*
X207282408Y-90590991D01*
X207289607Y-90542455D01*
X207301530Y-90494858D01*
X207318060Y-90448658D01*
X207339039Y-90404302D01*
X207364265Y-90362215D01*
X207393495Y-90322803D01*
X207426447Y-90286447D01*
X207462803Y-90253495D01*
X207502215Y-90224265D01*
X207544302Y-90199039D01*
X207588658Y-90178060D01*
X207634858Y-90161530D01*
X207682455Y-90149607D01*
X207730991Y-90142408D01*
X207780000Y-90140000D01*
X208780000Y-90140000D01*
X208829009Y-90142408D01*
X208829009Y-90142408D01*
G37*
D16*
X208280000Y-91440000D03*
D15*
G36*
X211369009Y-90142408D02*
G01*
X211417545Y-90149607D01*
X211465142Y-90161530D01*
X211511342Y-90178060D01*
X211555698Y-90199039D01*
X211597785Y-90224265D01*
X211637197Y-90253495D01*
X211673553Y-90286447D01*
X211706505Y-90322803D01*
X211735735Y-90362215D01*
X211760961Y-90404302D01*
X211781940Y-90448658D01*
X211798470Y-90494858D01*
X211810393Y-90542455D01*
X211817592Y-90590991D01*
X211820000Y-90640000D01*
X211820000Y-92240000D01*
X211817592Y-92289009D01*
X211810393Y-92337545D01*
X211798470Y-92385142D01*
X211781940Y-92431342D01*
X211760961Y-92475698D01*
X211735735Y-92517785D01*
X211706505Y-92557197D01*
X211673553Y-92593553D01*
X211637197Y-92626505D01*
X211597785Y-92655735D01*
X211555698Y-92680961D01*
X211511342Y-92701940D01*
X211465142Y-92718470D01*
X211417545Y-92730393D01*
X211369009Y-92737592D01*
X211320000Y-92740000D01*
X210320000Y-92740000D01*
X210270991Y-92737592D01*
X210222455Y-92730393D01*
X210174858Y-92718470D01*
X210128658Y-92701940D01*
X210084302Y-92680961D01*
X210042215Y-92655735D01*
X210002803Y-92626505D01*
X209966447Y-92593553D01*
X209933495Y-92557197D01*
X209904265Y-92517785D01*
X209879039Y-92475698D01*
X209858060Y-92431342D01*
X209841530Y-92385142D01*
X209829607Y-92337545D01*
X209822408Y-92289009D01*
X209820000Y-92240000D01*
X209820000Y-90640000D01*
X209822408Y-90590991D01*
X209829607Y-90542455D01*
X209841530Y-90494858D01*
X209858060Y-90448658D01*
X209879039Y-90404302D01*
X209904265Y-90362215D01*
X209933495Y-90322803D01*
X209966447Y-90286447D01*
X210002803Y-90253495D01*
X210042215Y-90224265D01*
X210084302Y-90199039D01*
X210128658Y-90178060D01*
X210174858Y-90161530D01*
X210222455Y-90149607D01*
X210270991Y-90142408D01*
X210320000Y-90140000D01*
X211320000Y-90140000D01*
X211369009Y-90142408D01*
X211369009Y-90142408D01*
G37*
D16*
X210820000Y-91440000D03*
D15*
G36*
X213909009Y-90142408D02*
G01*
X213957545Y-90149607D01*
X214005142Y-90161530D01*
X214051342Y-90178060D01*
X214095698Y-90199039D01*
X214137785Y-90224265D01*
X214177197Y-90253495D01*
X214213553Y-90286447D01*
X214246505Y-90322803D01*
X214275735Y-90362215D01*
X214300961Y-90404302D01*
X214321940Y-90448658D01*
X214338470Y-90494858D01*
X214350393Y-90542455D01*
X214357592Y-90590991D01*
X214360000Y-90640000D01*
X214360000Y-92240000D01*
X214357592Y-92289009D01*
X214350393Y-92337545D01*
X214338470Y-92385142D01*
X214321940Y-92431342D01*
X214300961Y-92475698D01*
X214275735Y-92517785D01*
X214246505Y-92557197D01*
X214213553Y-92593553D01*
X214177197Y-92626505D01*
X214137785Y-92655735D01*
X214095698Y-92680961D01*
X214051342Y-92701940D01*
X214005142Y-92718470D01*
X213957545Y-92730393D01*
X213909009Y-92737592D01*
X213860000Y-92740000D01*
X212860000Y-92740000D01*
X212810991Y-92737592D01*
X212762455Y-92730393D01*
X212714858Y-92718470D01*
X212668658Y-92701940D01*
X212624302Y-92680961D01*
X212582215Y-92655735D01*
X212542803Y-92626505D01*
X212506447Y-92593553D01*
X212473495Y-92557197D01*
X212444265Y-92517785D01*
X212419039Y-92475698D01*
X212398060Y-92431342D01*
X212381530Y-92385142D01*
X212369607Y-92337545D01*
X212362408Y-92289009D01*
X212360000Y-92240000D01*
X212360000Y-90640000D01*
X212362408Y-90590991D01*
X212369607Y-90542455D01*
X212381530Y-90494858D01*
X212398060Y-90448658D01*
X212419039Y-90404302D01*
X212444265Y-90362215D01*
X212473495Y-90322803D01*
X212506447Y-90286447D01*
X212542803Y-90253495D01*
X212582215Y-90224265D01*
X212624302Y-90199039D01*
X212668658Y-90178060D01*
X212714858Y-90161530D01*
X212762455Y-90149607D01*
X212810991Y-90142408D01*
X212860000Y-90140000D01*
X213860000Y-90140000D01*
X213909009Y-90142408D01*
X213909009Y-90142408D01*
G37*
D16*
X213360000Y-91440000D03*
D15*
G36*
X216449009Y-90142408D02*
G01*
X216497545Y-90149607D01*
X216545142Y-90161530D01*
X216591342Y-90178060D01*
X216635698Y-90199039D01*
X216677785Y-90224265D01*
X216717197Y-90253495D01*
X216753553Y-90286447D01*
X216786505Y-90322803D01*
X216815735Y-90362215D01*
X216840961Y-90404302D01*
X216861940Y-90448658D01*
X216878470Y-90494858D01*
X216890393Y-90542455D01*
X216897592Y-90590991D01*
X216900000Y-90640000D01*
X216900000Y-92240000D01*
X216897592Y-92289009D01*
X216890393Y-92337545D01*
X216878470Y-92385142D01*
X216861940Y-92431342D01*
X216840961Y-92475698D01*
X216815735Y-92517785D01*
X216786505Y-92557197D01*
X216753553Y-92593553D01*
X216717197Y-92626505D01*
X216677785Y-92655735D01*
X216635698Y-92680961D01*
X216591342Y-92701940D01*
X216545142Y-92718470D01*
X216497545Y-92730393D01*
X216449009Y-92737592D01*
X216400000Y-92740000D01*
X215400000Y-92740000D01*
X215350991Y-92737592D01*
X215302455Y-92730393D01*
X215254858Y-92718470D01*
X215208658Y-92701940D01*
X215164302Y-92680961D01*
X215122215Y-92655735D01*
X215082803Y-92626505D01*
X215046447Y-92593553D01*
X215013495Y-92557197D01*
X214984265Y-92517785D01*
X214959039Y-92475698D01*
X214938060Y-92431342D01*
X214921530Y-92385142D01*
X214909607Y-92337545D01*
X214902408Y-92289009D01*
X214900000Y-92240000D01*
X214900000Y-90640000D01*
X214902408Y-90590991D01*
X214909607Y-90542455D01*
X214921530Y-90494858D01*
X214938060Y-90448658D01*
X214959039Y-90404302D01*
X214984265Y-90362215D01*
X215013495Y-90322803D01*
X215046447Y-90286447D01*
X215082803Y-90253495D01*
X215122215Y-90224265D01*
X215164302Y-90199039D01*
X215208658Y-90178060D01*
X215254858Y-90161530D01*
X215302455Y-90149607D01*
X215350991Y-90142408D01*
X215400000Y-90140000D01*
X216400000Y-90140000D01*
X216449009Y-90142408D01*
X216449009Y-90142408D01*
G37*
D16*
X215900000Y-91440000D03*
D15*
G36*
X218989009Y-90142408D02*
G01*
X219037545Y-90149607D01*
X219085142Y-90161530D01*
X219131342Y-90178060D01*
X219175698Y-90199039D01*
X219217785Y-90224265D01*
X219257197Y-90253495D01*
X219293553Y-90286447D01*
X219326505Y-90322803D01*
X219355735Y-90362215D01*
X219380961Y-90404302D01*
X219401940Y-90448658D01*
X219418470Y-90494858D01*
X219430393Y-90542455D01*
X219437592Y-90590991D01*
X219440000Y-90640000D01*
X219440000Y-92240000D01*
X219437592Y-92289009D01*
X219430393Y-92337545D01*
X219418470Y-92385142D01*
X219401940Y-92431342D01*
X219380961Y-92475698D01*
X219355735Y-92517785D01*
X219326505Y-92557197D01*
X219293553Y-92593553D01*
X219257197Y-92626505D01*
X219217785Y-92655735D01*
X219175698Y-92680961D01*
X219131342Y-92701940D01*
X219085142Y-92718470D01*
X219037545Y-92730393D01*
X218989009Y-92737592D01*
X218940000Y-92740000D01*
X217940000Y-92740000D01*
X217890991Y-92737592D01*
X217842455Y-92730393D01*
X217794858Y-92718470D01*
X217748658Y-92701940D01*
X217704302Y-92680961D01*
X217662215Y-92655735D01*
X217622803Y-92626505D01*
X217586447Y-92593553D01*
X217553495Y-92557197D01*
X217524265Y-92517785D01*
X217499039Y-92475698D01*
X217478060Y-92431342D01*
X217461530Y-92385142D01*
X217449607Y-92337545D01*
X217442408Y-92289009D01*
X217440000Y-92240000D01*
X217440000Y-90640000D01*
X217442408Y-90590991D01*
X217449607Y-90542455D01*
X217461530Y-90494858D01*
X217478060Y-90448658D01*
X217499039Y-90404302D01*
X217524265Y-90362215D01*
X217553495Y-90322803D01*
X217586447Y-90286447D01*
X217622803Y-90253495D01*
X217662215Y-90224265D01*
X217704302Y-90199039D01*
X217748658Y-90178060D01*
X217794858Y-90161530D01*
X217842455Y-90149607D01*
X217890991Y-90142408D01*
X217940000Y-90140000D01*
X218940000Y-90140000D01*
X218989009Y-90142408D01*
X218989009Y-90142408D01*
G37*
D16*
X218440000Y-91440000D03*
D15*
G36*
X231989009Y-59962408D02*
G01*
X232037545Y-59969607D01*
X232085142Y-59981530D01*
X232131342Y-59998060D01*
X232175698Y-60019039D01*
X232217785Y-60044265D01*
X232257197Y-60073495D01*
X232293553Y-60106447D01*
X232326505Y-60142803D01*
X232355735Y-60182215D01*
X232380961Y-60224302D01*
X232401940Y-60268658D01*
X232418470Y-60314858D01*
X232430393Y-60362455D01*
X232437592Y-60410991D01*
X232440000Y-60460000D01*
X232440000Y-61460000D01*
X232437592Y-61509009D01*
X232430393Y-61557545D01*
X232418470Y-61605142D01*
X232401940Y-61651342D01*
X232380961Y-61695698D01*
X232355735Y-61737785D01*
X232326505Y-61777197D01*
X232293553Y-61813553D01*
X232257197Y-61846505D01*
X232217785Y-61875735D01*
X232175698Y-61900961D01*
X232131342Y-61921940D01*
X232085142Y-61938470D01*
X232037545Y-61950393D01*
X231989009Y-61957592D01*
X231940000Y-61960000D01*
X230340000Y-61960000D01*
X230290991Y-61957592D01*
X230242455Y-61950393D01*
X230194858Y-61938470D01*
X230148658Y-61921940D01*
X230104302Y-61900961D01*
X230062215Y-61875735D01*
X230022803Y-61846505D01*
X229986447Y-61813553D01*
X229953495Y-61777197D01*
X229924265Y-61737785D01*
X229899039Y-61695698D01*
X229878060Y-61651342D01*
X229861530Y-61605142D01*
X229849607Y-61557545D01*
X229842408Y-61509009D01*
X229840000Y-61460000D01*
X229840000Y-60460000D01*
X229842408Y-60410991D01*
X229849607Y-60362455D01*
X229861530Y-60314858D01*
X229878060Y-60268658D01*
X229899039Y-60224302D01*
X229924265Y-60182215D01*
X229953495Y-60142803D01*
X229986447Y-60106447D01*
X230022803Y-60073495D01*
X230062215Y-60044265D01*
X230104302Y-60019039D01*
X230148658Y-59998060D01*
X230194858Y-59981530D01*
X230242455Y-59969607D01*
X230290991Y-59962408D01*
X230340000Y-59960000D01*
X231940000Y-59960000D01*
X231989009Y-59962408D01*
X231989009Y-59962408D01*
G37*
D16*
X231140000Y-60960000D03*
D15*
G36*
X231989009Y-57422408D02*
G01*
X232037545Y-57429607D01*
X232085142Y-57441530D01*
X232131342Y-57458060D01*
X232175698Y-57479039D01*
X232217785Y-57504265D01*
X232257197Y-57533495D01*
X232293553Y-57566447D01*
X232326505Y-57602803D01*
X232355735Y-57642215D01*
X232380961Y-57684302D01*
X232401940Y-57728658D01*
X232418470Y-57774858D01*
X232430393Y-57822455D01*
X232437592Y-57870991D01*
X232440000Y-57920000D01*
X232440000Y-58920000D01*
X232437592Y-58969009D01*
X232430393Y-59017545D01*
X232418470Y-59065142D01*
X232401940Y-59111342D01*
X232380961Y-59155698D01*
X232355735Y-59197785D01*
X232326505Y-59237197D01*
X232293553Y-59273553D01*
X232257197Y-59306505D01*
X232217785Y-59335735D01*
X232175698Y-59360961D01*
X232131342Y-59381940D01*
X232085142Y-59398470D01*
X232037545Y-59410393D01*
X231989009Y-59417592D01*
X231940000Y-59420000D01*
X230340000Y-59420000D01*
X230290991Y-59417592D01*
X230242455Y-59410393D01*
X230194858Y-59398470D01*
X230148658Y-59381940D01*
X230104302Y-59360961D01*
X230062215Y-59335735D01*
X230022803Y-59306505D01*
X229986447Y-59273553D01*
X229953495Y-59237197D01*
X229924265Y-59197785D01*
X229899039Y-59155698D01*
X229878060Y-59111342D01*
X229861530Y-59065142D01*
X229849607Y-59017545D01*
X229842408Y-58969009D01*
X229840000Y-58920000D01*
X229840000Y-57920000D01*
X229842408Y-57870991D01*
X229849607Y-57822455D01*
X229861530Y-57774858D01*
X229878060Y-57728658D01*
X229899039Y-57684302D01*
X229924265Y-57642215D01*
X229953495Y-57602803D01*
X229986447Y-57566447D01*
X230022803Y-57533495D01*
X230062215Y-57504265D01*
X230104302Y-57479039D01*
X230148658Y-57458060D01*
X230194858Y-57441530D01*
X230242455Y-57429607D01*
X230290991Y-57422408D01*
X230340000Y-57420000D01*
X231940000Y-57420000D01*
X231989009Y-57422408D01*
X231989009Y-57422408D01*
G37*
D16*
X231140000Y-58420000D03*
D15*
G36*
X231989009Y-54882408D02*
G01*
X232037545Y-54889607D01*
X232085142Y-54901530D01*
X232131342Y-54918060D01*
X232175698Y-54939039D01*
X232217785Y-54964265D01*
X232257197Y-54993495D01*
X232293553Y-55026447D01*
X232326505Y-55062803D01*
X232355735Y-55102215D01*
X232380961Y-55144302D01*
X232401940Y-55188658D01*
X232418470Y-55234858D01*
X232430393Y-55282455D01*
X232437592Y-55330991D01*
X232440000Y-55380000D01*
X232440000Y-56380000D01*
X232437592Y-56429009D01*
X232430393Y-56477545D01*
X232418470Y-56525142D01*
X232401940Y-56571342D01*
X232380961Y-56615698D01*
X232355735Y-56657785D01*
X232326505Y-56697197D01*
X232293553Y-56733553D01*
X232257197Y-56766505D01*
X232217785Y-56795735D01*
X232175698Y-56820961D01*
X232131342Y-56841940D01*
X232085142Y-56858470D01*
X232037545Y-56870393D01*
X231989009Y-56877592D01*
X231940000Y-56880000D01*
X230340000Y-56880000D01*
X230290991Y-56877592D01*
X230242455Y-56870393D01*
X230194858Y-56858470D01*
X230148658Y-56841940D01*
X230104302Y-56820961D01*
X230062215Y-56795735D01*
X230022803Y-56766505D01*
X229986447Y-56733553D01*
X229953495Y-56697197D01*
X229924265Y-56657785D01*
X229899039Y-56615698D01*
X229878060Y-56571342D01*
X229861530Y-56525142D01*
X229849607Y-56477545D01*
X229842408Y-56429009D01*
X229840000Y-56380000D01*
X229840000Y-55380000D01*
X229842408Y-55330991D01*
X229849607Y-55282455D01*
X229861530Y-55234858D01*
X229878060Y-55188658D01*
X229899039Y-55144302D01*
X229924265Y-55102215D01*
X229953495Y-55062803D01*
X229986447Y-55026447D01*
X230022803Y-54993495D01*
X230062215Y-54964265D01*
X230104302Y-54939039D01*
X230148658Y-54918060D01*
X230194858Y-54901530D01*
X230242455Y-54889607D01*
X230290991Y-54882408D01*
X230340000Y-54880000D01*
X231940000Y-54880000D01*
X231989009Y-54882408D01*
X231989009Y-54882408D01*
G37*
D16*
X231140000Y-55880000D03*
D15*
G36*
X231989009Y-52342408D02*
G01*
X232037545Y-52349607D01*
X232085142Y-52361530D01*
X232131342Y-52378060D01*
X232175698Y-52399039D01*
X232217785Y-52424265D01*
X232257197Y-52453495D01*
X232293553Y-52486447D01*
X232326505Y-52522803D01*
X232355735Y-52562215D01*
X232380961Y-52604302D01*
X232401940Y-52648658D01*
X232418470Y-52694858D01*
X232430393Y-52742455D01*
X232437592Y-52790991D01*
X232440000Y-52840000D01*
X232440000Y-53840000D01*
X232437592Y-53889009D01*
X232430393Y-53937545D01*
X232418470Y-53985142D01*
X232401940Y-54031342D01*
X232380961Y-54075698D01*
X232355735Y-54117785D01*
X232326505Y-54157197D01*
X232293553Y-54193553D01*
X232257197Y-54226505D01*
X232217785Y-54255735D01*
X232175698Y-54280961D01*
X232131342Y-54301940D01*
X232085142Y-54318470D01*
X232037545Y-54330393D01*
X231989009Y-54337592D01*
X231940000Y-54340000D01*
X230340000Y-54340000D01*
X230290991Y-54337592D01*
X230242455Y-54330393D01*
X230194858Y-54318470D01*
X230148658Y-54301940D01*
X230104302Y-54280961D01*
X230062215Y-54255735D01*
X230022803Y-54226505D01*
X229986447Y-54193553D01*
X229953495Y-54157197D01*
X229924265Y-54117785D01*
X229899039Y-54075698D01*
X229878060Y-54031342D01*
X229861530Y-53985142D01*
X229849607Y-53937545D01*
X229842408Y-53889009D01*
X229840000Y-53840000D01*
X229840000Y-52840000D01*
X229842408Y-52790991D01*
X229849607Y-52742455D01*
X229861530Y-52694858D01*
X229878060Y-52648658D01*
X229899039Y-52604302D01*
X229924265Y-52562215D01*
X229953495Y-52522803D01*
X229986447Y-52486447D01*
X230022803Y-52453495D01*
X230062215Y-52424265D01*
X230104302Y-52399039D01*
X230148658Y-52378060D01*
X230194858Y-52361530D01*
X230242455Y-52349607D01*
X230290991Y-52342408D01*
X230340000Y-52340000D01*
X231940000Y-52340000D01*
X231989009Y-52342408D01*
X231989009Y-52342408D01*
G37*
D16*
X231140000Y-53340000D03*
D15*
G36*
X243419009Y-89172408D02*
G01*
X243467545Y-89179607D01*
X243515142Y-89191530D01*
X243561342Y-89208060D01*
X243605698Y-89229039D01*
X243647785Y-89254265D01*
X243687197Y-89283495D01*
X243723553Y-89316447D01*
X243756505Y-89352803D01*
X243785735Y-89392215D01*
X243810961Y-89434302D01*
X243831940Y-89478658D01*
X243848470Y-89524858D01*
X243860393Y-89572455D01*
X243867592Y-89620991D01*
X243870000Y-89670000D01*
X243870000Y-90670000D01*
X243867592Y-90719009D01*
X243860393Y-90767545D01*
X243848470Y-90815142D01*
X243831940Y-90861342D01*
X243810961Y-90905698D01*
X243785735Y-90947785D01*
X243756505Y-90987197D01*
X243723553Y-91023553D01*
X243687197Y-91056505D01*
X243647785Y-91085735D01*
X243605698Y-91110961D01*
X243561342Y-91131940D01*
X243515142Y-91148470D01*
X243467545Y-91160393D01*
X243419009Y-91167592D01*
X243370000Y-91170000D01*
X241770000Y-91170000D01*
X241720991Y-91167592D01*
X241672455Y-91160393D01*
X241624858Y-91148470D01*
X241578658Y-91131940D01*
X241534302Y-91110961D01*
X241492215Y-91085735D01*
X241452803Y-91056505D01*
X241416447Y-91023553D01*
X241383495Y-90987197D01*
X241354265Y-90947785D01*
X241329039Y-90905698D01*
X241308060Y-90861342D01*
X241291530Y-90815142D01*
X241279607Y-90767545D01*
X241272408Y-90719009D01*
X241270000Y-90670000D01*
X241270000Y-89670000D01*
X241272408Y-89620991D01*
X241279607Y-89572455D01*
X241291530Y-89524858D01*
X241308060Y-89478658D01*
X241329039Y-89434302D01*
X241354265Y-89392215D01*
X241383495Y-89352803D01*
X241416447Y-89316447D01*
X241452803Y-89283495D01*
X241492215Y-89254265D01*
X241534302Y-89229039D01*
X241578658Y-89208060D01*
X241624858Y-89191530D01*
X241672455Y-89179607D01*
X241720991Y-89172408D01*
X241770000Y-89170000D01*
X243370000Y-89170000D01*
X243419009Y-89172408D01*
X243419009Y-89172408D01*
G37*
D16*
X242570000Y-90170000D03*
D15*
G36*
X235799009Y-96792408D02*
G01*
X235847545Y-96799607D01*
X235895142Y-96811530D01*
X235941342Y-96828060D01*
X235985698Y-96849039D01*
X236027785Y-96874265D01*
X236067197Y-96903495D01*
X236103553Y-96936447D01*
X236136505Y-96972803D01*
X236165735Y-97012215D01*
X236190961Y-97054302D01*
X236211940Y-97098658D01*
X236228470Y-97144858D01*
X236240393Y-97192455D01*
X236247592Y-97240991D01*
X236250000Y-97290000D01*
X236250000Y-98290000D01*
X236247592Y-98339009D01*
X236240393Y-98387545D01*
X236228470Y-98435142D01*
X236211940Y-98481342D01*
X236190961Y-98525698D01*
X236165735Y-98567785D01*
X236136505Y-98607197D01*
X236103553Y-98643553D01*
X236067197Y-98676505D01*
X236027785Y-98705735D01*
X235985698Y-98730961D01*
X235941342Y-98751940D01*
X235895142Y-98768470D01*
X235847545Y-98780393D01*
X235799009Y-98787592D01*
X235750000Y-98790000D01*
X234150000Y-98790000D01*
X234100991Y-98787592D01*
X234052455Y-98780393D01*
X234004858Y-98768470D01*
X233958658Y-98751940D01*
X233914302Y-98730961D01*
X233872215Y-98705735D01*
X233832803Y-98676505D01*
X233796447Y-98643553D01*
X233763495Y-98607197D01*
X233734265Y-98567785D01*
X233709039Y-98525698D01*
X233688060Y-98481342D01*
X233671530Y-98435142D01*
X233659607Y-98387545D01*
X233652408Y-98339009D01*
X233650000Y-98290000D01*
X233650000Y-97290000D01*
X233652408Y-97240991D01*
X233659607Y-97192455D01*
X233671530Y-97144858D01*
X233688060Y-97098658D01*
X233709039Y-97054302D01*
X233734265Y-97012215D01*
X233763495Y-96972803D01*
X233796447Y-96936447D01*
X233832803Y-96903495D01*
X233872215Y-96874265D01*
X233914302Y-96849039D01*
X233958658Y-96828060D01*
X234004858Y-96811530D01*
X234052455Y-96799607D01*
X234100991Y-96792408D01*
X234150000Y-96790000D01*
X235750000Y-96790000D01*
X235799009Y-96792408D01*
X235799009Y-96792408D01*
G37*
D16*
X234950000Y-97790000D03*
D15*
G36*
X243419009Y-91712408D02*
G01*
X243467545Y-91719607D01*
X243515142Y-91731530D01*
X243561342Y-91748060D01*
X243605698Y-91769039D01*
X243647785Y-91794265D01*
X243687197Y-91823495D01*
X243723553Y-91856447D01*
X243756505Y-91892803D01*
X243785735Y-91932215D01*
X243810961Y-91974302D01*
X243831940Y-92018658D01*
X243848470Y-92064858D01*
X243860393Y-92112455D01*
X243867592Y-92160991D01*
X243870000Y-92210000D01*
X243870000Y-93210000D01*
X243867592Y-93259009D01*
X243860393Y-93307545D01*
X243848470Y-93355142D01*
X243831940Y-93401342D01*
X243810961Y-93445698D01*
X243785735Y-93487785D01*
X243756505Y-93527197D01*
X243723553Y-93563553D01*
X243687197Y-93596505D01*
X243647785Y-93625735D01*
X243605698Y-93650961D01*
X243561342Y-93671940D01*
X243515142Y-93688470D01*
X243467545Y-93700393D01*
X243419009Y-93707592D01*
X243370000Y-93710000D01*
X241770000Y-93710000D01*
X241720991Y-93707592D01*
X241672455Y-93700393D01*
X241624858Y-93688470D01*
X241578658Y-93671940D01*
X241534302Y-93650961D01*
X241492215Y-93625735D01*
X241452803Y-93596505D01*
X241416447Y-93563553D01*
X241383495Y-93527197D01*
X241354265Y-93487785D01*
X241329039Y-93445698D01*
X241308060Y-93401342D01*
X241291530Y-93355142D01*
X241279607Y-93307545D01*
X241272408Y-93259009D01*
X241270000Y-93210000D01*
X241270000Y-92210000D01*
X241272408Y-92160991D01*
X241279607Y-92112455D01*
X241291530Y-92064858D01*
X241308060Y-92018658D01*
X241329039Y-91974302D01*
X241354265Y-91932215D01*
X241383495Y-91892803D01*
X241416447Y-91856447D01*
X241452803Y-91823495D01*
X241492215Y-91794265D01*
X241534302Y-91769039D01*
X241578658Y-91748060D01*
X241624858Y-91731530D01*
X241672455Y-91719607D01*
X241720991Y-91712408D01*
X241770000Y-91710000D01*
X243370000Y-91710000D01*
X243419009Y-91712408D01*
X243419009Y-91712408D01*
G37*
D16*
X242570000Y-92710000D03*
D15*
G36*
X235799009Y-94252408D02*
G01*
X235847545Y-94259607D01*
X235895142Y-94271530D01*
X235941342Y-94288060D01*
X235985698Y-94309039D01*
X236027785Y-94334265D01*
X236067197Y-94363495D01*
X236103553Y-94396447D01*
X236136505Y-94432803D01*
X236165735Y-94472215D01*
X236190961Y-94514302D01*
X236211940Y-94558658D01*
X236228470Y-94604858D01*
X236240393Y-94652455D01*
X236247592Y-94700991D01*
X236250000Y-94750000D01*
X236250000Y-95750000D01*
X236247592Y-95799009D01*
X236240393Y-95847545D01*
X236228470Y-95895142D01*
X236211940Y-95941342D01*
X236190961Y-95985698D01*
X236165735Y-96027785D01*
X236136505Y-96067197D01*
X236103553Y-96103553D01*
X236067197Y-96136505D01*
X236027785Y-96165735D01*
X235985698Y-96190961D01*
X235941342Y-96211940D01*
X235895142Y-96228470D01*
X235847545Y-96240393D01*
X235799009Y-96247592D01*
X235750000Y-96250000D01*
X234150000Y-96250000D01*
X234100991Y-96247592D01*
X234052455Y-96240393D01*
X234004858Y-96228470D01*
X233958658Y-96211940D01*
X233914302Y-96190961D01*
X233872215Y-96165735D01*
X233832803Y-96136505D01*
X233796447Y-96103553D01*
X233763495Y-96067197D01*
X233734265Y-96027785D01*
X233709039Y-95985698D01*
X233688060Y-95941342D01*
X233671530Y-95895142D01*
X233659607Y-95847545D01*
X233652408Y-95799009D01*
X233650000Y-95750000D01*
X233650000Y-94750000D01*
X233652408Y-94700991D01*
X233659607Y-94652455D01*
X233671530Y-94604858D01*
X233688060Y-94558658D01*
X233709039Y-94514302D01*
X233734265Y-94472215D01*
X233763495Y-94432803D01*
X233796447Y-94396447D01*
X233832803Y-94363495D01*
X233872215Y-94334265D01*
X233914302Y-94309039D01*
X233958658Y-94288060D01*
X234004858Y-94271530D01*
X234052455Y-94259607D01*
X234100991Y-94252408D01*
X234150000Y-94250000D01*
X235750000Y-94250000D01*
X235799009Y-94252408D01*
X235799009Y-94252408D01*
G37*
D16*
X234950000Y-95250000D03*
D15*
G36*
X243419009Y-94252408D02*
G01*
X243467545Y-94259607D01*
X243515142Y-94271530D01*
X243561342Y-94288060D01*
X243605698Y-94309039D01*
X243647785Y-94334265D01*
X243687197Y-94363495D01*
X243723553Y-94396447D01*
X243756505Y-94432803D01*
X243785735Y-94472215D01*
X243810961Y-94514302D01*
X243831940Y-94558658D01*
X243848470Y-94604858D01*
X243860393Y-94652455D01*
X243867592Y-94700991D01*
X243870000Y-94750000D01*
X243870000Y-95750000D01*
X243867592Y-95799009D01*
X243860393Y-95847545D01*
X243848470Y-95895142D01*
X243831940Y-95941342D01*
X243810961Y-95985698D01*
X243785735Y-96027785D01*
X243756505Y-96067197D01*
X243723553Y-96103553D01*
X243687197Y-96136505D01*
X243647785Y-96165735D01*
X243605698Y-96190961D01*
X243561342Y-96211940D01*
X243515142Y-96228470D01*
X243467545Y-96240393D01*
X243419009Y-96247592D01*
X243370000Y-96250000D01*
X241770000Y-96250000D01*
X241720991Y-96247592D01*
X241672455Y-96240393D01*
X241624858Y-96228470D01*
X241578658Y-96211940D01*
X241534302Y-96190961D01*
X241492215Y-96165735D01*
X241452803Y-96136505D01*
X241416447Y-96103553D01*
X241383495Y-96067197D01*
X241354265Y-96027785D01*
X241329039Y-95985698D01*
X241308060Y-95941342D01*
X241291530Y-95895142D01*
X241279607Y-95847545D01*
X241272408Y-95799009D01*
X241270000Y-95750000D01*
X241270000Y-94750000D01*
X241272408Y-94700991D01*
X241279607Y-94652455D01*
X241291530Y-94604858D01*
X241308060Y-94558658D01*
X241329039Y-94514302D01*
X241354265Y-94472215D01*
X241383495Y-94432803D01*
X241416447Y-94396447D01*
X241452803Y-94363495D01*
X241492215Y-94334265D01*
X241534302Y-94309039D01*
X241578658Y-94288060D01*
X241624858Y-94271530D01*
X241672455Y-94259607D01*
X241720991Y-94252408D01*
X241770000Y-94250000D01*
X243370000Y-94250000D01*
X243419009Y-94252408D01*
X243419009Y-94252408D01*
G37*
D16*
X242570000Y-95250000D03*
D15*
G36*
X235799009Y-91712408D02*
G01*
X235847545Y-91719607D01*
X235895142Y-91731530D01*
X235941342Y-91748060D01*
X235985698Y-91769039D01*
X236027785Y-91794265D01*
X236067197Y-91823495D01*
X236103553Y-91856447D01*
X236136505Y-91892803D01*
X236165735Y-91932215D01*
X236190961Y-91974302D01*
X236211940Y-92018658D01*
X236228470Y-92064858D01*
X236240393Y-92112455D01*
X236247592Y-92160991D01*
X236250000Y-92210000D01*
X236250000Y-93210000D01*
X236247592Y-93259009D01*
X236240393Y-93307545D01*
X236228470Y-93355142D01*
X236211940Y-93401342D01*
X236190961Y-93445698D01*
X236165735Y-93487785D01*
X236136505Y-93527197D01*
X236103553Y-93563553D01*
X236067197Y-93596505D01*
X236027785Y-93625735D01*
X235985698Y-93650961D01*
X235941342Y-93671940D01*
X235895142Y-93688470D01*
X235847545Y-93700393D01*
X235799009Y-93707592D01*
X235750000Y-93710000D01*
X234150000Y-93710000D01*
X234100991Y-93707592D01*
X234052455Y-93700393D01*
X234004858Y-93688470D01*
X233958658Y-93671940D01*
X233914302Y-93650961D01*
X233872215Y-93625735D01*
X233832803Y-93596505D01*
X233796447Y-93563553D01*
X233763495Y-93527197D01*
X233734265Y-93487785D01*
X233709039Y-93445698D01*
X233688060Y-93401342D01*
X233671530Y-93355142D01*
X233659607Y-93307545D01*
X233652408Y-93259009D01*
X233650000Y-93210000D01*
X233650000Y-92210000D01*
X233652408Y-92160991D01*
X233659607Y-92112455D01*
X233671530Y-92064858D01*
X233688060Y-92018658D01*
X233709039Y-91974302D01*
X233734265Y-91932215D01*
X233763495Y-91892803D01*
X233796447Y-91856447D01*
X233832803Y-91823495D01*
X233872215Y-91794265D01*
X233914302Y-91769039D01*
X233958658Y-91748060D01*
X234004858Y-91731530D01*
X234052455Y-91719607D01*
X234100991Y-91712408D01*
X234150000Y-91710000D01*
X235750000Y-91710000D01*
X235799009Y-91712408D01*
X235799009Y-91712408D01*
G37*
D16*
X234950000Y-92710000D03*
D15*
G36*
X243419009Y-96792408D02*
G01*
X243467545Y-96799607D01*
X243515142Y-96811530D01*
X243561342Y-96828060D01*
X243605698Y-96849039D01*
X243647785Y-96874265D01*
X243687197Y-96903495D01*
X243723553Y-96936447D01*
X243756505Y-96972803D01*
X243785735Y-97012215D01*
X243810961Y-97054302D01*
X243831940Y-97098658D01*
X243848470Y-97144858D01*
X243860393Y-97192455D01*
X243867592Y-97240991D01*
X243870000Y-97290000D01*
X243870000Y-98290000D01*
X243867592Y-98339009D01*
X243860393Y-98387545D01*
X243848470Y-98435142D01*
X243831940Y-98481342D01*
X243810961Y-98525698D01*
X243785735Y-98567785D01*
X243756505Y-98607197D01*
X243723553Y-98643553D01*
X243687197Y-98676505D01*
X243647785Y-98705735D01*
X243605698Y-98730961D01*
X243561342Y-98751940D01*
X243515142Y-98768470D01*
X243467545Y-98780393D01*
X243419009Y-98787592D01*
X243370000Y-98790000D01*
X241770000Y-98790000D01*
X241720991Y-98787592D01*
X241672455Y-98780393D01*
X241624858Y-98768470D01*
X241578658Y-98751940D01*
X241534302Y-98730961D01*
X241492215Y-98705735D01*
X241452803Y-98676505D01*
X241416447Y-98643553D01*
X241383495Y-98607197D01*
X241354265Y-98567785D01*
X241329039Y-98525698D01*
X241308060Y-98481342D01*
X241291530Y-98435142D01*
X241279607Y-98387545D01*
X241272408Y-98339009D01*
X241270000Y-98290000D01*
X241270000Y-97290000D01*
X241272408Y-97240991D01*
X241279607Y-97192455D01*
X241291530Y-97144858D01*
X241308060Y-97098658D01*
X241329039Y-97054302D01*
X241354265Y-97012215D01*
X241383495Y-96972803D01*
X241416447Y-96936447D01*
X241452803Y-96903495D01*
X241492215Y-96874265D01*
X241534302Y-96849039D01*
X241578658Y-96828060D01*
X241624858Y-96811530D01*
X241672455Y-96799607D01*
X241720991Y-96792408D01*
X241770000Y-96790000D01*
X243370000Y-96790000D01*
X243419009Y-96792408D01*
X243419009Y-96792408D01*
G37*
D16*
X242570000Y-97790000D03*
D15*
G36*
X235799009Y-89172408D02*
G01*
X235847545Y-89179607D01*
X235895142Y-89191530D01*
X235941342Y-89208060D01*
X235985698Y-89229039D01*
X236027785Y-89254265D01*
X236067197Y-89283495D01*
X236103553Y-89316447D01*
X236136505Y-89352803D01*
X236165735Y-89392215D01*
X236190961Y-89434302D01*
X236211940Y-89478658D01*
X236228470Y-89524858D01*
X236240393Y-89572455D01*
X236247592Y-89620991D01*
X236250000Y-89670000D01*
X236250000Y-90670000D01*
X236247592Y-90719009D01*
X236240393Y-90767545D01*
X236228470Y-90815142D01*
X236211940Y-90861342D01*
X236190961Y-90905698D01*
X236165735Y-90947785D01*
X236136505Y-90987197D01*
X236103553Y-91023553D01*
X236067197Y-91056505D01*
X236027785Y-91085735D01*
X235985698Y-91110961D01*
X235941342Y-91131940D01*
X235895142Y-91148470D01*
X235847545Y-91160393D01*
X235799009Y-91167592D01*
X235750000Y-91170000D01*
X234150000Y-91170000D01*
X234100991Y-91167592D01*
X234052455Y-91160393D01*
X234004858Y-91148470D01*
X233958658Y-91131940D01*
X233914302Y-91110961D01*
X233872215Y-91085735D01*
X233832803Y-91056505D01*
X233796447Y-91023553D01*
X233763495Y-90987197D01*
X233734265Y-90947785D01*
X233709039Y-90905698D01*
X233688060Y-90861342D01*
X233671530Y-90815142D01*
X233659607Y-90767545D01*
X233652408Y-90719009D01*
X233650000Y-90670000D01*
X233650000Y-89670000D01*
X233652408Y-89620991D01*
X233659607Y-89572455D01*
X233671530Y-89524858D01*
X233688060Y-89478658D01*
X233709039Y-89434302D01*
X233734265Y-89392215D01*
X233763495Y-89352803D01*
X233796447Y-89316447D01*
X233832803Y-89283495D01*
X233872215Y-89254265D01*
X233914302Y-89229039D01*
X233958658Y-89208060D01*
X234004858Y-89191530D01*
X234052455Y-89179607D01*
X234100991Y-89172408D01*
X234150000Y-89170000D01*
X235750000Y-89170000D01*
X235799009Y-89172408D01*
X235799009Y-89172408D01*
G37*
D16*
X234950000Y-90170000D03*
D15*
G36*
X187729009Y-90482408D02*
G01*
X187777545Y-90489607D01*
X187825142Y-90501530D01*
X187871342Y-90518060D01*
X187915698Y-90539039D01*
X187957785Y-90564265D01*
X187997197Y-90593495D01*
X188033553Y-90626447D01*
X188066505Y-90662803D01*
X188095735Y-90702215D01*
X188120961Y-90744302D01*
X188141940Y-90788658D01*
X188158470Y-90834858D01*
X188170393Y-90882455D01*
X188177592Y-90930991D01*
X188180000Y-90980000D01*
X188180000Y-91980000D01*
X188177592Y-92029009D01*
X188170393Y-92077545D01*
X188158470Y-92125142D01*
X188141940Y-92171342D01*
X188120961Y-92215698D01*
X188095735Y-92257785D01*
X188066505Y-92297197D01*
X188033553Y-92333553D01*
X187997197Y-92366505D01*
X187957785Y-92395735D01*
X187915698Y-92420961D01*
X187871342Y-92441940D01*
X187825142Y-92458470D01*
X187777545Y-92470393D01*
X187729009Y-92477592D01*
X187680000Y-92480000D01*
X186080000Y-92480000D01*
X186030991Y-92477592D01*
X185982455Y-92470393D01*
X185934858Y-92458470D01*
X185888658Y-92441940D01*
X185844302Y-92420961D01*
X185802215Y-92395735D01*
X185762803Y-92366505D01*
X185726447Y-92333553D01*
X185693495Y-92297197D01*
X185664265Y-92257785D01*
X185639039Y-92215698D01*
X185618060Y-92171342D01*
X185601530Y-92125142D01*
X185589607Y-92077545D01*
X185582408Y-92029009D01*
X185580000Y-91980000D01*
X185580000Y-90980000D01*
X185582408Y-90930991D01*
X185589607Y-90882455D01*
X185601530Y-90834858D01*
X185618060Y-90788658D01*
X185639039Y-90744302D01*
X185664265Y-90702215D01*
X185693495Y-90662803D01*
X185726447Y-90626447D01*
X185762803Y-90593495D01*
X185802215Y-90564265D01*
X185844302Y-90539039D01*
X185888658Y-90518060D01*
X185934858Y-90501530D01*
X185982455Y-90489607D01*
X186030991Y-90482408D01*
X186080000Y-90480000D01*
X187680000Y-90480000D01*
X187729009Y-90482408D01*
X187729009Y-90482408D01*
G37*
D16*
X186880000Y-91480000D03*
D15*
G36*
X158440765Y-84534213D02*
G01*
X158525704Y-84546813D01*
X158608999Y-84567677D01*
X158689848Y-84596605D01*
X158767472Y-84633319D01*
X158841124Y-84677464D01*
X158910094Y-84728616D01*
X158973718Y-84786282D01*
X159031384Y-84849906D01*
X159082536Y-84918876D01*
X159126681Y-84992528D01*
X159163395Y-85070152D01*
X159192323Y-85151001D01*
X159213187Y-85234296D01*
X159225787Y-85319235D01*
X159230000Y-85405000D01*
X159230000Y-87155000D01*
X159225787Y-87240765D01*
X159213187Y-87325704D01*
X159192323Y-87408999D01*
X159163395Y-87489848D01*
X159126681Y-87567472D01*
X159082536Y-87641124D01*
X159031384Y-87710094D01*
X158973718Y-87773718D01*
X158910094Y-87831384D01*
X158841124Y-87882536D01*
X158767472Y-87926681D01*
X158689848Y-87963395D01*
X158608999Y-87992323D01*
X158525704Y-88013187D01*
X158440765Y-88025787D01*
X158355000Y-88030000D01*
X156605000Y-88030000D01*
X156519235Y-88025787D01*
X156434296Y-88013187D01*
X156351001Y-87992323D01*
X156270152Y-87963395D01*
X156192528Y-87926681D01*
X156118876Y-87882536D01*
X156049906Y-87831384D01*
X155986282Y-87773718D01*
X155928616Y-87710094D01*
X155877464Y-87641124D01*
X155833319Y-87567472D01*
X155796605Y-87489848D01*
X155767677Y-87408999D01*
X155746813Y-87325704D01*
X155734213Y-87240765D01*
X155730000Y-87155000D01*
X155730000Y-85405000D01*
X155734213Y-85319235D01*
X155746813Y-85234296D01*
X155767677Y-85151001D01*
X155796605Y-85070152D01*
X155833319Y-84992528D01*
X155877464Y-84918876D01*
X155928616Y-84849906D01*
X155986282Y-84786282D01*
X156049906Y-84728616D01*
X156118876Y-84677464D01*
X156192528Y-84633319D01*
X156270152Y-84596605D01*
X156351001Y-84567677D01*
X156434296Y-84546813D01*
X156519235Y-84534213D01*
X156605000Y-84530000D01*
X158355000Y-84530000D01*
X158440765Y-84534213D01*
X158440765Y-84534213D01*
G37*
D17*
X157480000Y-86280000D03*
D15*
G36*
X158440765Y-79534213D02*
G01*
X158525704Y-79546813D01*
X158608999Y-79567677D01*
X158689848Y-79596605D01*
X158767472Y-79633319D01*
X158841124Y-79677464D01*
X158910094Y-79728616D01*
X158973718Y-79786282D01*
X159031384Y-79849906D01*
X159082536Y-79918876D01*
X159126681Y-79992528D01*
X159163395Y-80070152D01*
X159192323Y-80151001D01*
X159213187Y-80234296D01*
X159225787Y-80319235D01*
X159230000Y-80405000D01*
X159230000Y-82155000D01*
X159225787Y-82240765D01*
X159213187Y-82325704D01*
X159192323Y-82408999D01*
X159163395Y-82489848D01*
X159126681Y-82567472D01*
X159082536Y-82641124D01*
X159031384Y-82710094D01*
X158973718Y-82773718D01*
X158910094Y-82831384D01*
X158841124Y-82882536D01*
X158767472Y-82926681D01*
X158689848Y-82963395D01*
X158608999Y-82992323D01*
X158525704Y-83013187D01*
X158440765Y-83025787D01*
X158355000Y-83030000D01*
X156605000Y-83030000D01*
X156519235Y-83025787D01*
X156434296Y-83013187D01*
X156351001Y-82992323D01*
X156270152Y-82963395D01*
X156192528Y-82926681D01*
X156118876Y-82882536D01*
X156049906Y-82831384D01*
X155986282Y-82773718D01*
X155928616Y-82710094D01*
X155877464Y-82641124D01*
X155833319Y-82567472D01*
X155796605Y-82489848D01*
X155767677Y-82408999D01*
X155746813Y-82325704D01*
X155734213Y-82240765D01*
X155730000Y-82155000D01*
X155730000Y-80405000D01*
X155734213Y-80319235D01*
X155746813Y-80234296D01*
X155767677Y-80151001D01*
X155796605Y-80070152D01*
X155833319Y-79992528D01*
X155877464Y-79918876D01*
X155928616Y-79849906D01*
X155986282Y-79786282D01*
X156049906Y-79728616D01*
X156118876Y-79677464D01*
X156192528Y-79633319D01*
X156270152Y-79596605D01*
X156351001Y-79567677D01*
X156434296Y-79546813D01*
X156519235Y-79534213D01*
X156605000Y-79530000D01*
X158355000Y-79530000D01*
X158440765Y-79534213D01*
X158440765Y-79534213D01*
G37*
D17*
X157480000Y-81280000D03*
D15*
G36*
X187729009Y-75082408D02*
G01*
X187777545Y-75089607D01*
X187825142Y-75101530D01*
X187871342Y-75118060D01*
X187915698Y-75139039D01*
X187957785Y-75164265D01*
X187997197Y-75193495D01*
X188033553Y-75226447D01*
X188066505Y-75262803D01*
X188095735Y-75302215D01*
X188120961Y-75344302D01*
X188141940Y-75388658D01*
X188158470Y-75434858D01*
X188170393Y-75482455D01*
X188177592Y-75530991D01*
X188180000Y-75580000D01*
X188180000Y-76580000D01*
X188177592Y-76629009D01*
X188170393Y-76677545D01*
X188158470Y-76725142D01*
X188141940Y-76771342D01*
X188120961Y-76815698D01*
X188095735Y-76857785D01*
X188066505Y-76897197D01*
X188033553Y-76933553D01*
X187997197Y-76966505D01*
X187957785Y-76995735D01*
X187915698Y-77020961D01*
X187871342Y-77041940D01*
X187825142Y-77058470D01*
X187777545Y-77070393D01*
X187729009Y-77077592D01*
X187680000Y-77080000D01*
X186080000Y-77080000D01*
X186030991Y-77077592D01*
X185982455Y-77070393D01*
X185934858Y-77058470D01*
X185888658Y-77041940D01*
X185844302Y-77020961D01*
X185802215Y-76995735D01*
X185762803Y-76966505D01*
X185726447Y-76933553D01*
X185693495Y-76897197D01*
X185664265Y-76857785D01*
X185639039Y-76815698D01*
X185618060Y-76771342D01*
X185601530Y-76725142D01*
X185589607Y-76677545D01*
X185582408Y-76629009D01*
X185580000Y-76580000D01*
X185580000Y-75580000D01*
X185582408Y-75530991D01*
X185589607Y-75482455D01*
X185601530Y-75434858D01*
X185618060Y-75388658D01*
X185639039Y-75344302D01*
X185664265Y-75302215D01*
X185693495Y-75262803D01*
X185726447Y-75226447D01*
X185762803Y-75193495D01*
X185802215Y-75164265D01*
X185844302Y-75139039D01*
X185888658Y-75118060D01*
X185934858Y-75101530D01*
X185982455Y-75089607D01*
X186030991Y-75082408D01*
X186080000Y-75080000D01*
X187680000Y-75080000D01*
X187729009Y-75082408D01*
X187729009Y-75082408D01*
G37*
D16*
X186880000Y-76080000D03*
D15*
G36*
X174950765Y-60484213D02*
G01*
X175035704Y-60496813D01*
X175118999Y-60517677D01*
X175199848Y-60546605D01*
X175277472Y-60583319D01*
X175351124Y-60627464D01*
X175420094Y-60678616D01*
X175483718Y-60736282D01*
X175541384Y-60799906D01*
X175592536Y-60868876D01*
X175636681Y-60942528D01*
X175673395Y-61020152D01*
X175702323Y-61101001D01*
X175723187Y-61184296D01*
X175735787Y-61269235D01*
X175740000Y-61355000D01*
X175740000Y-63105000D01*
X175735787Y-63190765D01*
X175723187Y-63275704D01*
X175702323Y-63358999D01*
X175673395Y-63439848D01*
X175636681Y-63517472D01*
X175592536Y-63591124D01*
X175541384Y-63660094D01*
X175483718Y-63723718D01*
X175420094Y-63781384D01*
X175351124Y-63832536D01*
X175277472Y-63876681D01*
X175199848Y-63913395D01*
X175118999Y-63942323D01*
X175035704Y-63963187D01*
X174950765Y-63975787D01*
X174865000Y-63980000D01*
X173115000Y-63980000D01*
X173029235Y-63975787D01*
X172944296Y-63963187D01*
X172861001Y-63942323D01*
X172780152Y-63913395D01*
X172702528Y-63876681D01*
X172628876Y-63832536D01*
X172559906Y-63781384D01*
X172496282Y-63723718D01*
X172438616Y-63660094D01*
X172387464Y-63591124D01*
X172343319Y-63517472D01*
X172306605Y-63439848D01*
X172277677Y-63358999D01*
X172256813Y-63275704D01*
X172244213Y-63190765D01*
X172240000Y-63105000D01*
X172240000Y-61355000D01*
X172244213Y-61269235D01*
X172256813Y-61184296D01*
X172277677Y-61101001D01*
X172306605Y-61020152D01*
X172343319Y-60942528D01*
X172387464Y-60868876D01*
X172438616Y-60799906D01*
X172496282Y-60736282D01*
X172559906Y-60678616D01*
X172628876Y-60627464D01*
X172702528Y-60583319D01*
X172780152Y-60546605D01*
X172861001Y-60517677D01*
X172944296Y-60496813D01*
X173029235Y-60484213D01*
X173115000Y-60480000D01*
X174865000Y-60480000D01*
X174950765Y-60484213D01*
X174950765Y-60484213D01*
G37*
D17*
X173990000Y-62230000D03*
D15*
G36*
X169870798Y-60484154D02*
G01*
X169955740Y-60496753D01*
X170039038Y-60517618D01*
X170119889Y-60546548D01*
X170197516Y-60583262D01*
X170271171Y-60627409D01*
X170340143Y-60678563D01*
X170403770Y-60736230D01*
X170461437Y-60799857D01*
X170512591Y-60868829D01*
X170556738Y-60942484D01*
X170593452Y-61020111D01*
X170622382Y-61100962D01*
X170643247Y-61184260D01*
X170655846Y-61269202D01*
X170660060Y-61354970D01*
X170660060Y-63105030D01*
X170655846Y-63190798D01*
X170643247Y-63275740D01*
X170622382Y-63359038D01*
X170593452Y-63439889D01*
X170556738Y-63517516D01*
X170512591Y-63591171D01*
X170461437Y-63660143D01*
X170403770Y-63723770D01*
X170340143Y-63781437D01*
X170271171Y-63832591D01*
X170197516Y-63876738D01*
X170119889Y-63913452D01*
X170039038Y-63942382D01*
X169955740Y-63963247D01*
X169870798Y-63975846D01*
X169785030Y-63980060D01*
X168034970Y-63980060D01*
X167949202Y-63975846D01*
X167864260Y-63963247D01*
X167780962Y-63942382D01*
X167700111Y-63913452D01*
X167622484Y-63876738D01*
X167548829Y-63832591D01*
X167479857Y-63781437D01*
X167416230Y-63723770D01*
X167358563Y-63660143D01*
X167307409Y-63591171D01*
X167263262Y-63517516D01*
X167226548Y-63439889D01*
X167197618Y-63359038D01*
X167176753Y-63275740D01*
X167164154Y-63190798D01*
X167159940Y-63105030D01*
X167159940Y-61354970D01*
X167164154Y-61269202D01*
X167176753Y-61184260D01*
X167197618Y-61100962D01*
X167226548Y-61020111D01*
X167263262Y-60942484D01*
X167307409Y-60868829D01*
X167358563Y-60799857D01*
X167416230Y-60736230D01*
X167479857Y-60678563D01*
X167548829Y-60627409D01*
X167622484Y-60583262D01*
X167700111Y-60546548D01*
X167780962Y-60517618D01*
X167864260Y-60496753D01*
X167949202Y-60484154D01*
X168034970Y-60479940D01*
X169785030Y-60479940D01*
X169870798Y-60484154D01*
X169870798Y-60484154D01*
G37*
D18*
X168910000Y-62230000D03*
D13*
X198120000Y-77470000D03*
X210820000Y-77470000D03*
X203200000Y-73660000D03*
X210820000Y-73660000D03*
D19*
X157480000Y-86280000D02*
X170100000Y-86280000D01*
X170180000Y-86360000D02*
X170180000Y-99060000D01*
X170100000Y-86280000D02*
X170180000Y-86360000D01*
X175260000Y-64460118D02*
X175260000Y-99060000D01*
X173990000Y-63190118D02*
X175260000Y-64460118D01*
X173990000Y-62230000D02*
X173990000Y-63190118D01*
X157480000Y-81280000D02*
X157480000Y-62230000D01*
X157480000Y-62230000D02*
X168910000Y-62230000D01*
D20*
X186880000Y-91480000D02*
X186880000Y-86550000D01*
X187070000Y-86360000D02*
X193040000Y-86360000D01*
X186880000Y-86550000D02*
X187070000Y-86360000D01*
X186880000Y-76080000D02*
X186880000Y-83630000D01*
X187070000Y-83820000D02*
X193040000Y-83820000D01*
X186880000Y-83630000D02*
X187070000Y-83820000D01*
X234950000Y-98921370D02*
X234950000Y-97790000D01*
X195580000Y-100330000D02*
X234950000Y-100330000D01*
X187070000Y-83820000D02*
X184150000Y-83820000D01*
X184150000Y-93980000D02*
X195580000Y-93980000D01*
X195580000Y-91440000D02*
X195580000Y-93980000D01*
X184150000Y-83820000D02*
X184150000Y-93980000D01*
X234950000Y-97790000D02*
X234950000Y-100330000D01*
X195580000Y-93980000D02*
X195580000Y-100330000D01*
X193040000Y-76200000D02*
X190500000Y-76200000D01*
X190500000Y-76200000D02*
X190500000Y-48260000D01*
X190500000Y-48260000D02*
X231140000Y-48260000D01*
X231140000Y-53340000D02*
X231140000Y-51290000D01*
X231140000Y-48260000D02*
X231140000Y-51290000D01*
X242570000Y-90170000D02*
X242570000Y-83820000D01*
X234950000Y-76200000D02*
X242570000Y-83820000D01*
X231140000Y-53340000D02*
X234950000Y-53340000D01*
X234950000Y-53340000D02*
X234950000Y-76200000D01*
X195580000Y-53340000D02*
X220980000Y-53340000D01*
X193040000Y-88900000D02*
X195580000Y-88900000D01*
X195580000Y-53340000D02*
X195580000Y-88900000D01*
X193040000Y-88900000D02*
X193040000Y-91440000D01*
X210820000Y-77470000D02*
X210820000Y-77470000D01*
X210820000Y-77470000D02*
X217170000Y-77470000D01*
X217170000Y-77470000D02*
X217170000Y-76200000D01*
X217170000Y-76200000D02*
X220980000Y-76200000D01*
X198120000Y-77470000D02*
X198120000Y-91440000D01*
X200660000Y-60960000D02*
X220980000Y-60960000D01*
X200660000Y-91440000D02*
X200660000Y-60960000D01*
X203200000Y-91440000D02*
X203200000Y-73660000D01*
X203200000Y-73660000D02*
X203200000Y-73660000D01*
X220980000Y-73660000D02*
X210820000Y-73660000D01*
X210820000Y-73660000D02*
X210820000Y-73660000D01*
X205740000Y-68580000D02*
X220980000Y-68580000D01*
X205740000Y-68580000D02*
X205740000Y-91440000D01*
X208280000Y-71120000D02*
X220980000Y-71120000D01*
X208280000Y-91440000D02*
X208280000Y-71120000D01*
X210820000Y-86360000D02*
X220980000Y-86360000D01*
X210820000Y-91440000D02*
X210820000Y-86360000D01*
X234950000Y-95250000D02*
X228600000Y-95250000D01*
X228600000Y-95250000D02*
X228600000Y-97790000D01*
X213360000Y-91440000D02*
X213360000Y-97790000D01*
X213360000Y-97790000D02*
X228600000Y-97790000D01*
X226060000Y-92710000D02*
X234950000Y-92710000D01*
X226060000Y-92710000D02*
X226060000Y-95250000D01*
X226060000Y-95250000D02*
X215900000Y-95250000D01*
X215900000Y-95250000D02*
X215900000Y-91440000D01*
X218440000Y-91440000D02*
X218440000Y-88900000D01*
X218440000Y-88900000D02*
X232410000Y-88900000D01*
X232410000Y-88900000D02*
X232410000Y-87630000D01*
X232410000Y-87630000D02*
X237490000Y-87630000D01*
X237490000Y-87630000D02*
X237490000Y-97790000D01*
X237490000Y-97790000D02*
X242570000Y-97790000D01*
X240030000Y-92710000D02*
X242570000Y-92710000D01*
X240030000Y-85090000D02*
X240030000Y-92710000D01*
X220980000Y-78740000D02*
X233680000Y-78740000D01*
X233680000Y-78740000D02*
X240030000Y-85090000D01*
X220980000Y-66040000D02*
X231140000Y-66040000D01*
X231140000Y-66040000D02*
X231140000Y-60960000D01*
X231140000Y-58420000D02*
X220980000Y-58420000D01*
X231140000Y-55880000D02*
X220980000Y-55880000D01*
X251333000Y-63627000D02*
X255933000Y-63627000D01*
X251333000Y-60960000D02*
X255933000Y-60960000D01*
X251460000Y-58420000D02*
X256060000Y-58420000D01*
X251333000Y-56007000D02*
X255933000Y-56007000D01*
M02*
