%TF.GenerationSoftware,KiCad,Pcbnew,(5.1.2)-1*%
%TF.CreationDate,2019-05-09T00:23:41+02:00*%
%TF.ProjectId,main,6d61696e-2e6b-4696-9361-645f70636258,rev?*%
%TF.SameCoordinates,Original*%
%TF.FileFunction,Plated,1,2,PTH,Drill*%
%TF.FilePolarity,Positive*%
%FSLAX46Y46*%
G04 Gerber Fmt 4.6, Leading zero omitted, Abs format (unit mm)*
G04 Created by KiCad (PCBNEW (5.1.2)-1) date 2019-05-09 00:23:41*
%MOMM*%
%LPD*%
G04 APERTURE LIST*
%TA.AperFunction,ComponentDrill*%
%ADD10C,0.800000*%
%TD*%
%TA.AperFunction,ViaDrill*%
%ADD11C,1.000000*%
%TD*%
%TA.AperFunction,ComponentDrill*%
%ADD12C,1.000000*%
%TD*%
%TA.AperFunction,ComponentDrill*%
%ADD13C,1.200000*%
%TD*%
%TA.AperFunction,ComponentDrill*%
%ADD14C,1.501140*%
%TD*%
G04 APERTURE END LIST*
D10*
%TO.C,U1*%
X234950000Y-90170000D03*
X234950000Y-92710000D03*
X234950000Y-95250000D03*
X234950000Y-97790000D03*
X242570000Y-90170000D03*
X242570000Y-92710000D03*
X242570000Y-95250000D03*
X242570000Y-97790000D03*
%TD*%
D11*
X198120000Y-77470000D03*
X203200000Y-73660000D03*
X210820000Y-73660000D03*
X210820000Y-77470000D03*
D12*
%TO.C,J6*%
X251460000Y-50800000D03*
X251460000Y-53340000D03*
X251460000Y-55880000D03*
X251460000Y-58420000D03*
X251460000Y-60960000D03*
X251460000Y-63500000D03*
%TO.C,J3*%
X193040000Y-91440000D03*
X195580000Y-91440000D03*
X198120000Y-91440000D03*
X200660000Y-91440000D03*
X203200000Y-91440000D03*
X205740000Y-91440000D03*
X208280000Y-91440000D03*
X210820000Y-91440000D03*
X213360000Y-91440000D03*
X215900000Y-91440000D03*
X218440000Y-91440000D03*
%TO.C,PS1*%
X157480000Y-81280000D03*
X157480000Y-86280000D03*
X186880000Y-76080000D03*
X186880000Y-91480000D03*
%TO.C,J4*%
X220980000Y-50800000D03*
X220980000Y-53340000D03*
X220980000Y-55880000D03*
X220980000Y-58420000D03*
X220980000Y-60960000D03*
X220980000Y-63500000D03*
X220980000Y-66040000D03*
X220980000Y-68580000D03*
X220980000Y-71120000D03*
X220980000Y-73660000D03*
X220980000Y-76200000D03*
X220980000Y-78740000D03*
X220980000Y-81280000D03*
X220980000Y-83820000D03*
X220980000Y-86360000D03*
%TO.C,J5*%
X231140000Y-53340000D03*
X231140000Y-55880000D03*
X231140000Y-58420000D03*
X231140000Y-60960000D03*
%TO.C,J2*%
X193040000Y-50800000D03*
X193040000Y-53340000D03*
X193040000Y-55880000D03*
X193040000Y-58420000D03*
X193040000Y-60960000D03*
X193040000Y-63500000D03*
X193040000Y-66040000D03*
X193040000Y-68580000D03*
X193040000Y-71120000D03*
X193040000Y-73660000D03*
X193040000Y-76200000D03*
X193040000Y-78740000D03*
X193040000Y-81280000D03*
X193040000Y-83820000D03*
X193040000Y-86360000D03*
D13*
%TO.C,SW1*%
X165100000Y-99060000D03*
X165100000Y-104140000D03*
X170180000Y-99060000D03*
X170180000Y-104140000D03*
X175260000Y-99060000D03*
X175260000Y-104140000D03*
D14*
%TO.C,J1*%
X168910000Y-62230000D03*
X173990000Y-62230000D03*
M02*
